<?xml version="1.0" encoding="iso-8859-1"?>
<!-- Generator: Adobe Illustrator 19.0.0, SVG Export Plug-In . SVG Version: 6.00 Build 0)  -->
<svg version="1.1" id="Capa_1" xmlns="http://www.w3.org/2000/svg" xmlns:xlink="http://www.w3.org/1999/xlink" x="0px" y="0px"
	 viewBox="0 0 512 512" style="enable-background:new 0 0 512 512;" xml:space="preserve">
<g>
	<g>
		<path d="M413.931,312.204l-33.067-33.067c-12.971-12.971-34.112-12.971-47.083,0c-3.883,3.904-6.613,8.533-8.171,13.44
			c-11.691-4.075-25.173-1.429-34.496,7.893c-4.885,4.885-7.915,10.923-9.131,17.237c-10.197-1.451-20.8,2.027-28.203,9.429
			c-2.987,2.965-5.269,6.379-6.891,10.027l-19.115-19.115c-12.587-12.587-34.517-12.544-47.083,0
			c-6.293,6.293-9.771,14.656-9.771,23.552c0,8.896,3.477,17.259,9.771,23.552l81.557,81.557h-16.917
			c-29.397,0-53.333,23.936-53.333,53.333c0,5.888,4.779,10.667,10.667,10.667h129.067C395.84,510.71,448,458.55,448,394.444
			C448,363.382,435.904,334.198,413.931,312.204z M331.733,489.377H215.147c4.416-12.416,16.277-21.333,30.165-21.355h42.667
			c4.309,0,8.213-2.603,9.856-6.592c1.664-3.989,0.747-8.576-2.304-11.627l-99.755-99.755c-2.261-2.24-3.52-5.269-3.52-8.448
			c0-3.179,1.259-6.187,3.52-8.448c4.523-4.501,12.395-4.523,16.917,0l67.776,67.776c4.16,4.16,10.923,4.16,15.083,0
			c2.069-2.091,3.115-4.821,3.115-7.552c0-2.731-1.045-5.461-3.115-7.552l-26.667-26.667c-2.261-2.24-3.499-5.269-3.499-8.448
			s1.237-6.187,3.499-8.448c4.523-4.523,12.395-4.523,16.917,0l16,16c4.16,4.16,10.923,4.16,15.083,0
			c2.069-2.091,3.115-4.821,3.115-7.552s-1.045-5.461-3.115-7.531l-10.667-10.667c-2.261-2.24-3.499-5.269-3.499-8.448
			s1.237-6.187,3.499-8.448c4.672-4.672,12.245-4.672,16.917,0l10.667,10.667c4.16,4.16,10.923,4.16,15.083,0
			c2.069-2.091,3.115-4.821,3.115-7.552c0-2.731-1.024-5.461-3.115-7.552c-4.672-4.672-4.672-12.245,0-16.917s12.245-4.672,16.917,0
			l33.067,33.067c17.92,17.92,27.797,41.771,27.797,67.115C426.667,446.796,384.085,489.377,331.733,489.377z"/>
	</g>
</g>
<g>
	<g>
		<path d="M74.667,286.71C33.493,286.71,0,320.204,0,361.377c0,41.173,33.493,74.667,74.667,74.667s74.667-33.493,74.667-74.667
			C149.333,320.204,115.84,286.71,74.667,286.71z M74.667,414.71c-29.397,0-53.333-23.936-53.333-53.333
			c0-29.397,23.936-53.333,53.333-53.333S128,331.98,128,361.377C128,390.774,104.064,414.71,74.667,414.71z"/>
	</g>
</g>
<g>
	<g>
		<g>
			<path d="M415.168,121.889c-5.419-2.453-10.347-5.803-14.656-9.92c-4.245-4.096-11.008-3.925-15.083,0.341
				c-4.075,4.267-3.925,11.029,0.341,15.083c6.037,5.781,12.949,10.453,20.501,13.909c1.451,0.64,2.965,0.96,4.437,0.96
				c4.053,0,7.936-2.304,9.728-6.229C422.869,130.657,420.523,124.342,415.168,121.889z"/>
			<path d="M409.557,4.065c-7.701,3.093-14.827,7.424-21.12,12.885c-4.437,3.84-4.928,10.581-1.067,15.019
				c2.112,2.432,5.077,3.691,8.064,3.691c2.475,0,4.971-0.853,6.955-2.581c4.523-3.904,9.6-7.019,15.125-9.237
				c5.461-2.176,8.107-8.405,5.909-13.867C421.227,4.534,415.019,1.868,409.557,4.065z"/>
			<path d="M384.533,80.95C384.171,78.497,384,75.98,384,73.377c0-3.456,0.341-6.827,0.96-10.112
				c1.109-5.803-2.667-11.392-8.448-12.501c-5.845-1.088-11.392,2.688-12.501,8.448c-0.896,4.587-1.344,9.301-1.344,14.123
				c0,3.627,0.235,7.168,0.725,10.645c0.789,5.312,5.333,9.152,10.56,9.152c0.512,0,1.024-0.043,1.536-0.107
				C381.333,92.193,385.365,86.774,384.533,80.95z"/>
			<path d="M480.683,12.577c-6.784-4.864-14.293-8.512-22.293-10.859c-5.632-1.643-11.584,1.579-13.248,7.232
				c-1.664,5.675,1.579,11.584,7.232,13.248c5.696,1.664,11.051,4.267,15.893,7.723c1.877,1.344,4.032,1.984,6.187,1.984
				c3.328,0,6.592-1.557,8.704-4.459C486.592,22.668,485.483,16.012,480.683,12.577z"/>
			<path d="M466.176,118.241c-4.992,3.221-10.475,5.568-16.256,6.976c-5.717,1.387-9.237,7.147-7.851,12.885
				c1.173,4.885,5.547,8.149,10.347,8.149c0.832,0,1.685-0.085,2.539-0.299c8.107-1.984,15.765-5.269,22.763-9.771
				c4.971-3.179,6.379-9.792,3.2-14.741C477.739,116.47,471.147,115.084,466.176,118.241z"/>
			<path d="M509.013,52.342c-1.664-5.632-7.531-8.832-13.248-7.232c-5.653,1.685-8.896,7.595-7.232,13.248
				c1.429,4.843,2.133,9.899,2.133,15.019c0,5.973-0.981,11.861-2.923,17.451c-1.92,5.568,1.024,11.648,6.592,13.568
				c1.173,0.384,2.347,0.576,3.499,0.576c4.416,0,8.555-2.773,10.091-7.168C510.635,89.974,512,81.761,512,73.398
				C512,66.252,510.997,59.169,509.013,52.342z"/>
		</g>
	</g>
</g>
<g>
	<g>
		<g>
			<path d="M191.915,173.878c-5.547,4.736-10.965,9.557-16.256,14.421c-4.331,3.989-4.629,10.752-0.64,15.083
				c2.091,2.304,4.971,3.456,7.851,3.456c2.581,0,5.163-0.917,7.232-2.795c5.077-4.693,10.347-9.344,15.68-13.952
				c4.48-3.84,5.013-10.581,1.173-15.04C203.115,170.55,196.395,170.081,191.915,173.878z"/>
			<path d="M144.747,219.041c-5.141,5.568-9.984,11.115-14.464,16.576c-3.733,4.565-3.072,11.285,1.493,15.019
				c1.963,1.621,4.373,2.411,6.741,2.411c3.093,0,6.144-1.344,8.277-3.904c4.224-5.163,8.768-10.368,13.632-15.616
				c3.989-4.331,3.733-11.072-0.597-15.083C155.477,214.454,148.757,214.71,144.747,219.041z"/>
			<path d="M119.36,268.129c-5.227-2.731-11.669-0.704-14.4,4.523c-4.096,7.872-7.019,15.339-8.683,22.229
				c-1.387,5.739,2.133,11.499,7.872,12.864c0.853,0.213,1.685,0.299,2.517,0.299c4.821,0,9.195-3.285,10.347-8.171
				c1.259-5.184,3.563-11.029,6.869-17.344C126.592,277.302,124.587,270.86,119.36,268.129z"/>
			<path d="M373.483,83.212c-1.003-5.824-6.507-9.664-12.309-8.747c-6.699,1.152-14.229,3.2-22.379,6.123
				c-5.547,2.005-8.427,8.107-6.443,13.653c1.579,4.352,5.675,7.061,10.048,7.061c1.195,0,2.411-0.192,3.605-0.619
				c6.955-2.496,13.269-4.245,18.731-5.163C370.56,94.518,374.464,89.014,373.483,83.212z"/>
			<path d="M298.56,99.126c-6.208,3.349-12.544,6.997-18.965,10.901c-5.035,3.072-6.656,9.621-3.605,14.656
				c2.005,3.307,5.525,5.141,9.131,5.141c1.877,0,3.776-0.512,5.525-1.557c6.144-3.712,12.181-7.189,18.091-10.389
				c5.184-2.816,7.104-9.28,4.288-14.464C310.208,98.252,303.744,96.31,298.56,99.126z"/>
			<path d="M243.264,133.878c-5.867,4.16-11.712,8.427-17.515,12.821c-4.715,3.541-5.653,10.24-2.091,14.933
				c2.091,2.795,5.291,4.245,8.512,4.245c2.24,0,4.501-0.704,6.421-2.155c5.632-4.267,11.307-8.405,16.981-12.416
				c4.821-3.413,5.973-10.069,2.56-14.869C254.72,131.617,248.085,130.465,243.264,133.878z"/>
		</g>
	</g>
</g>
<g>
</g>
<g>
</g>
<g>
</g>
<g>
</g>
<g>
</g>
<g>
</g>
<g>
</g>
<g>
</g>
<g>
</g>
<g>
</g>
<g>
</g>
<g>
</g>
<g>
</g>
<g>
</g>
<g>
</g>
</svg>
