<?xml version="1.0" encoding="iso-8859-1"?>
<!-- Generator: Adobe Illustrator 19.0.0, SVG Export Plug-In . SVG Version: 6.00 Build 0)  -->
<svg version="1.1" id="Capa_1" xmlns="http://www.w3.org/2000/svg" xmlns:xlink="http://www.w3.org/1999/xlink" x="0px" y="0px"
	 viewBox="0 0 512.003 512.003" style="enable-background:new 0 0 512.003 512.003;" xml:space="preserve">
<g>
	<g>
		<path d="M483.132,12.173c-9.18-9.477-22.424-13.816-35.435-11.608l-58.844,9.993c-16.403,2.786-32.085,9.566-45.353,19.607
			c-3.369,2.55-4.033,7.348-1.484,10.716c2.55,3.368,7.348,4.033,10.716,1.483c11.316-8.565,24.692-14.347,38.683-16.722
			l58.843-9.993c8.153-1.385,16.131,1.228,21.885,7.168c5.754,5.94,8.113,13.996,6.47,22.102l-10.459,51.609
			c-2.721,13.427-8.62,26.23-17.06,37.023L294.64,333.629l-55.547,10.547c-3.316,0.629-5.828,3.359-6.181,6.715
			c-0.353,3.358,1.537,6.549,4.649,7.855l22.987,9.639l-31.084,31.319c-7.677,7.736-18.332,12.173-29.232,12.173
			c-4.225,0-7.65,3.424-7.65,7.65c0,4.226,3.425,7.65,7.65,7.65c14.949,0,29.561-6.085,40.09-16.695l39.078-39.374
			c1.792-1.806,2.569-4.384,2.074-6.879c-0.496-2.495-2.199-4.581-4.545-5.565l-10.013-4.198l33.404-6.343
			c1.822-0.346,3.457-1.342,4.599-2.803l158.227-202.344c9.896-12.656,16.812-27.666,20.002-43.409l10.459-51.609
			C496.229,35.027,492.313,21.65,483.132,12.173z"/>
	</g>
</g>
<g>
	<g>
		<path d="M410.872,85.592c-2.982-2.995-7.826-3.004-10.818-0.021l-95.93,95.564v-60.792c0-4.225-3.425-7.65-7.65-7.65
			c-4.225,0-7.65,3.424-7.65,7.65v76.033L161.892,322.823v-60.249c0-4.225-3.425-7.65-7.65-7.65c-4.225,0-7.65,3.424-7.65,7.65
			v75.49l-60.697,60.465V297.325c0-10.942,4.245-21.245,11.953-29.013l90.541-91.227l31.567,23.764
			c2.316,1.743,5.421,2.029,8.016,0.733c2.595-1.294,4.235-3.945,4.235-6.845V133.59l89.479-67.725
			c3.369-2.55,4.032-7.348,1.483-10.716s-7.347-4.031-10.716-1.483l-92.512,70.021c-1.91,1.446-3.033,3.704-3.033,6.1v49.619
			l-24.647-18.554c-3.055-2.297-7.337-1.99-10.03,0.723l-95.24,95.962c-10.572,10.652-16.394,24.782-16.394,39.79v116.444
			l-19.033,18.96c-10.705,10.673-18.836,23.912-23.513,38.286l-10.077,30.966c-1.307,4.018,0.889,8.335,4.907,9.642
			c0.786,0.256,1.584,0.378,2.369,0.378c3.223,0,6.221-2.054,7.273-5.285L42.6,475.752c3.932-12.084,10.768-23.213,19.764-32.183
			l16.454-16.391h86.179c4.225,0,7.65-3.424,7.65-7.65c0-4.226-3.425-7.652-7.65-7.652H94.175l157.85-157.247h67.635
			c4.225,0,7.65-3.424,7.65-7.65c0-4.225-3.425-7.65-7.65-7.65h-52.278L410.851,96.41C413.844,93.428,413.854,88.585,410.872,85.592
			z"/>
	</g>
</g>
<g>
</g>
<g>
</g>
<g>
</g>
<g>
</g>
<g>
</g>
<g>
</g>
<g>
</g>
<g>
</g>
<g>
</g>
<g>
</g>
<g>
</g>
<g>
</g>
<g>
</g>
<g>
</g>
<g>
</g>
</svg>
