<?xml version="1.0"?>
<svg width="1000" height="1000" xmlns="http://www.w3.org/2000/svg" xmlns:svg="http://www.w3.org/2000/svg">
 <metadata>Svg Vector Icons : http://www.onlinewebfonts.com/icon</metadata>
 <g class="layer">
  <title>Layer 1</title>
  <g id="svg_1">
   <path fill="#ffffff" id="svg_2" d="m990,500c0,-270.6 -219.4,-490 -490,-490c-270.6,0 -490,219.4 -490,490c0,270.6 219.4,490 490,490c270.6,0 490,-219.4 490,-490zm-621.6,0l0,-93.8l57.5,0l0,-56.7c0,-76.5 22.9,-131.6 106.6,-131.6l99.6,0l0,93.5l-70.1,0c-35.1,0 -43.1,23.3 -43.1,47.8l0,47l108.1,0l-14.8,93.8l-93.3,0l0,282.8l-93,0l0,-282.8l-57.5,0z"/>
  </g>
 </g>
</svg>