<?xml version="1.0"?>
<svg width="224" height="224" xmlns="http://www.w3.org/2000/svg" xmlns:svg="http://www.w3.org/2000/svg" clip-rule="evenodd">
 <defs>
  <style type="text/css">
   <![CDATA[
    .fil2 {fill:#CFBC0E}
    .fil0 {fill:#FFE812}
    .fil1 {fill:white}
   ]]>
  </style>
 </defs>
 <g class="layer">
  <title>Layer 1</title>
  <g id="Layer_x0020_1">
   <g id="_445029784">
    <path fill="black" id="svg_2" d="m30,98c0,13 5,26 12,34c5,6 17,18 26,21c-2,14 -13,35 -4,31l20,-13c18,-13 10,-8 30,-8c40,0 80,-27 80,-65c0,-39 -40,-64 -83,-64c-40,0 -81,26 -81,64zm49,-14l-8,0l0,29c0,1 -1,3 -1,3c-1,1 -2,1 -3,1c-1,0 -2,0 -3,-1c-1,-1 -1,-2 -1,-3l0,-29l-9,0c-1,0 -2,0 -3,0c-1,-1 -1,-2 -1,-3c0,-1 0,-2 1,-2c1,-1 2,-1 3,-1l25,0c2,0 3,0 3,1c1,0 1,1 1,2c0,1 0,2 -1,3c0,0 -1,0 -3,0zm25,28l-2,-4l-16,0l-2,5c-1,1 -1,3 -2,3c0,1 -1,1 -2,1c-1,0 -2,0 -3,-1c-1,0 -1,-1 -1,-2c0,-1 0,-1 0,-2c0,0 1,-1 1,-2l10,-25c0,-1 1,-2 1,-3c0,-1 1,-2 1,-2c1,-1 1,-2 2,-2c1,-1 2,-1 3,-1c1,0 2,0 3,1c0,0 1,1 1,1c1,1 1,2 1,3c1,0 1,1 2,3l10,25c1,2 1,3 1,4c0,1 0,2 -1,2c-1,1 -2,1 -3,1c0,0 -1,0 -1,0c-1,0 -1,0 -2,-1c0,0 0,-1 -1,-1c0,-1 0,-2 0,-3zm-16,-10l12,0l-6,-16l-6,16zm34,-20l0,28l11,0c1,0 2,1 3,1c1,1 1,2 1,3c0,1 0,1 -1,2c-1,1 -2,1 -3,1l-14,0c-2,0 -3,-1 -4,-1c-1,-1 -1,-2 -1,-4l0,-30c0,-2 0,-3 1,-4c1,0 1,-1 3,-1c1,0 2,1 2,1c1,1 2,2 2,4zm24,0l0,14l16,-16c1,-1 1,-2 2,-2c0,-1 1,-1 2,-1c1,0 2,1 3,1c0,1 1,2 1,3c0,1 -1,2 -2,3l-10,9l11,16c1,1 2,2 2,3c1,1 1,1 1,2c0,1 -1,2 -1,3c-1,0 -2,0 -3,0c-1,0 -2,0 -3,0c0,-1 -1,-1 -1,-2c-1,-1 -1,-2 -2,-2l-9,-15l-7,7l0,8c0,1 0,3 -1,3c0,1 -1,1 -2,1c-1,0 -2,0 -2,0c-1,0 -2,-1 -2,-1c0,-1 0,-2 0,-2c0,-1 0,-2 0,-3l0,-29c0,-2 0,-3 1,-4c0,0 1,-1 3,-1c1,0 2,1 2,1c1,1 1,2 1,4z" class="fil1"/>
   </g>
  </g>
 </g>
</svg>