<?xml version="1.0"?>
<svg width="512" height="512" xmlns="http://www.w3.org/2000/svg" xmlns:svg="http://www.w3.org/2000/svg">
 <pattern y="512" width="69" viewBox="2.125 -70.896 69 69" patternUnits="userSpaceOnUse" id="Polka_Dot_Pattern" height="69">
  <g id="svg_1">
   <polygon id="svg_2" fill="none" points="71.125,-1.896 2.125,-1.896 2.125,-70.896 71.125,-70.896   "/>
   <polygon id="svg_3" fill="#F6BB60" points="71.125,-1.896 2.125,-1.896 2.125,-70.896 71.125,-70.896   "/>
   <g id="svg_4">
    <path id="svg_5" fill="#FFFFFF" d="m61.772,-71.653c0.018,0.072 0.007,0.127 -0.026,0.19c-0.053,0.101 -0.112,0.062 -0.165,0.128c-0.05,0.062 -0.099,0.276 -0.079,0.362c-0.169,0.058 -0.01,0.227 -0.015,0.35c-0.002,0.05 -0.041,0.105 -0.045,0.161c-0.01,0.119 0.017,0.266 0.068,0.37c0.097,0.198 0.268,0.413 0.435,0.544c0.19,0.148 0.365,0.572 0.608,0.631c0.177,0.042 0.384,-0.104 0.543,-0.143c0.18,-0.043 0.397,0.01 0.571,-0.053c0.222,-0.079 0.127,-0.337 0.288,-0.45c0.104,-0.074 0.287,-0.01 0.406,-0.051c0.2,-0.069 0.339,-0.263 0.376,-0.46c0.016,-0.082 0.01,-0.145 0.039,-0.221c0.039,-0.103 0.111,-0.16 0.09,-0.293c-0.01,-0.062 -0.052,-0.12 -0.064,-0.187c-0.022,-0.114 0.002,-0.224 0,-0.337c-0.003,-0.2 0.017,-0.379 -0.078,-0.55c-0.38,-0.688 -1.236,-0.929 -1.975,-0.789c-0.18,0.034 -0.287,0.126 -0.442,0.207c-0.17,0.088 -0.139,0.166 -0.318,0.224c-0.081,0.026 -0.216,0.124 -0.215,0.224c0.001,0.115 0.005,0.051 0.012,0.169c-0.021,0.011 -0.021,-0.005 -0.03,-0.025"/>
    <path id="svg_6" fill="#FFFFFF" d="m54.105,-71.653c0.018,0.072 0.007,0.127 -0.026,0.19c-0.053,0.101 -0.112,0.062 -0.165,0.128c-0.05,0.062 -0.099,0.276 -0.079,0.362c-0.169,0.058 -0.01,0.227 -0.015,0.35c-0.002,0.05 -0.041,0.105 -0.045,0.161c-0.01,0.119 0.017,0.266 0.068,0.37c0.097,0.198 0.268,0.413 0.435,0.544c0.19,0.148 0.365,0.572 0.608,0.631c0.177,0.042 0.384,-0.104 0.543,-0.143c0.18,-0.043 0.397,0.01 0.571,-0.053c0.222,-0.079 0.127,-0.337 0.288,-0.45c0.104,-0.074 0.287,-0.01 0.406,-0.051c0.2,-0.069 0.339,-0.263 0.376,-0.46c0.016,-0.082 0.01,-0.145 0.039,-0.221c0.039,-0.103 0.111,-0.16 0.09,-0.293c-0.01,-0.062 -0.052,-0.12 -0.064,-0.187c-0.022,-0.114 0.002,-0.224 0,-0.337c-0.003,-0.2 0.017,-0.379 -0.078,-0.55c-0.38,-0.688 -1.236,-0.929 -1.975,-0.789c-0.18,0.034 -0.287,0.126 -0.442,0.207c-0.17,0.088 -0.139,0.166 -0.318,0.224c-0.081,0.026 -0.216,0.124 -0.215,0.224c0.001,0.115 0.005,0.051 0.012,0.169c-0.021,0.011 -0.021,-0.005 -0.03,-0.025"/>
    <path id="svg_7" fill="#FFFFFF" d="m46.439,-71.653c0.018,0.072 0.007,0.127 -0.026,0.19c-0.053,0.101 -0.112,0.062 -0.165,0.128c-0.05,0.062 -0.099,0.276 -0.079,0.362c-0.169,0.058 -0.01,0.227 -0.015,0.35c-0.002,0.05 -0.041,0.105 -0.045,0.161c-0.01,0.119 0.017,0.266 0.068,0.37c0.097,0.198 0.268,0.413 0.435,0.544c0.19,0.148 0.365,0.572 0.608,0.631c0.177,0.042 0.384,-0.104 0.543,-0.143c0.18,-0.043 0.397,0.01 0.571,-0.053c0.222,-0.079 0.127,-0.337 0.288,-0.45c0.104,-0.074 0.287,-0.01 0.406,-0.051c0.2,-0.069 0.339,-0.263 0.376,-0.46c0.016,-0.082 0.01,-0.145 0.039,-0.221c0.039,-0.103 0.111,-0.16 0.09,-0.293c-0.01,-0.062 -0.052,-0.12 -0.064,-0.187c-0.022,-0.114 0.002,-0.224 0,-0.337c-0.003,-0.2 0.017,-0.379 -0.078,-0.55c-0.38,-0.688 -1.236,-0.929 -1.975,-0.789c-0.18,0.034 -0.287,0.126 -0.442,0.207c-0.17,0.088 -0.139,0.166 -0.318,0.224c-0.081,0.026 -0.216,0.124 -0.215,0.224c0.001,0.115 0.005,0.051 0.012,0.169c-0.021,0.011 -0.021,-0.005 -0.03,-0.025"/>
    <path id="svg_8" fill="#FFFFFF" d="m38.772,-71.653c0.018,0.072 0.007,0.127 -0.026,0.19c-0.053,0.101 -0.112,0.062 -0.165,0.128c-0.05,0.062 -0.099,0.276 -0.079,0.362c-0.169,0.058 -0.01,0.227 -0.015,0.35c-0.002,0.05 -0.041,0.105 -0.045,0.161c-0.01,0.119 0.017,0.266 0.068,0.37c0.097,0.198 0.268,0.413 0.435,0.544c0.19,0.148 0.365,0.572 0.608,0.631c0.177,0.042 0.384,-0.104 0.543,-0.143c0.18,-0.043 0.397,0.01 0.571,-0.053c0.222,-0.079 0.127,-0.337 0.288,-0.45c0.104,-0.074 0.287,-0.01 0.406,-0.051c0.2,-0.069 0.339,-0.263 0.376,-0.46c0.016,-0.082 0.01,-0.145 0.039,-0.221c0.039,-0.103 0.111,-0.16 0.09,-0.293c-0.01,-0.062 -0.052,-0.12 -0.064,-0.187c-0.022,-0.114 0.002,-0.224 0,-0.337c-0.003,-0.2 0.017,-0.379 -0.078,-0.55c-0.38,-0.688 -1.236,-0.929 -1.975,-0.789c-0.18,0.034 -0.287,0.126 -0.442,0.207c-0.17,0.088 -0.139,0.166 -0.318,0.224c-0.081,0.026 -0.216,0.124 -0.215,0.224c0.001,0.115 0.005,0.051 0.012,0.169c-0.021,0.011 -0.021,-0.005 -0.03,-0.025"/>
    <path id="svg_9" fill="#FFFFFF" d="m31.105,-71.653c0.018,0.072 0.007,0.127 -0.026,0.19c-0.053,0.101 -0.112,0.062 -0.165,0.128c-0.05,0.062 -0.099,0.276 -0.079,0.362c-0.169,0.058 -0.01,0.227 -0.015,0.35c-0.002,0.05 -0.041,0.105 -0.045,0.161c-0.01,0.119 0.017,0.266 0.068,0.37c0.097,0.198 0.268,0.413 0.435,0.544c0.19,0.148 0.365,0.572 0.608,0.631c0.177,0.042 0.384,-0.104 0.543,-0.143c0.18,-0.043 0.397,0.01 0.571,-0.053c0.222,-0.079 0.127,-0.337 0.288,-0.45c0.104,-0.074 0.287,-0.01 0.406,-0.051c0.2,-0.069 0.339,-0.263 0.376,-0.46c0.016,-0.082 0.01,-0.145 0.039,-0.221c0.039,-0.103 0.111,-0.16 0.09,-0.293c-0.01,-0.062 -0.052,-0.12 -0.064,-0.187c-0.022,-0.114 0.002,-0.224 0,-0.337c-0.003,-0.2 0.017,-0.379 -0.078,-0.55c-0.38,-0.688 -1.236,-0.929 -1.975,-0.789c-0.18,0.034 -0.287,0.126 -0.442,0.207c-0.17,0.088 -0.139,0.166 -0.318,0.224c-0.081,0.026 -0.216,0.124 -0.215,0.224c0.001,0.115 0.005,0.051 0.012,0.169c-0.021,0.011 -0.021,-0.005 -0.03,-0.025"/>
    <path id="svg_10" fill="#FFFFFF" d="m23.439,-71.653c0.018,0.072 0.007,0.127 -0.026,0.19c-0.053,0.101 -0.112,0.062 -0.165,0.128c-0.05,0.062 -0.099,0.276 -0.079,0.362c-0.169,0.058 -0.01,0.227 -0.015,0.35c-0.002,0.05 -0.041,0.105 -0.045,0.161c-0.01,0.119 0.017,0.266 0.068,0.37c0.097,0.198 0.268,0.413 0.435,0.544c0.19,0.148 0.365,0.572 0.608,0.631c0.177,0.042 0.384,-0.104 0.543,-0.143c0.18,-0.043 0.397,0.01 0.571,-0.053c0.222,-0.079 0.127,-0.337 0.288,-0.45c0.104,-0.074 0.287,-0.01 0.406,-0.051c0.2,-0.069 0.339,-0.263 0.376,-0.46c0.016,-0.082 0.01,-0.145 0.039,-0.221c0.039,-0.103 0.111,-0.16 0.09,-0.293c-0.01,-0.062 -0.052,-0.12 -0.064,-0.187c-0.022,-0.114 0.002,-0.224 0,-0.337c-0.003,-0.2 0.017,-0.379 -0.078,-0.55c-0.38,-0.688 -1.236,-0.929 -1.975,-0.789c-0.18,0.034 -0.287,0.126 -0.442,0.207c-0.17,0.088 -0.139,0.166 -0.318,0.224c-0.081,0.026 -0.216,0.124 -0.215,0.224c0.001,0.115 0.005,0.051 0.012,0.169c-0.021,0.011 -0.021,-0.005 -0.03,-0.025"/>
    <path id="svg_11" fill="#FFFFFF" d="m15.772,-71.653c0.018,0.072 0.007,0.127 -0.026,0.19c-0.053,0.101 -0.112,0.062 -0.165,0.128c-0.05,0.062 -0.099,0.276 -0.079,0.362c-0.169,0.058 -0.01,0.227 -0.015,0.35c-0.002,0.05 -0.041,0.105 -0.045,0.161c-0.01,0.119 0.017,0.266 0.068,0.37c0.097,0.198 0.268,0.413 0.435,0.544c0.19,0.148 0.365,0.572 0.608,0.631c0.177,0.042 0.384,-0.104 0.543,-0.143c0.18,-0.043 0.397,0.01 0.571,-0.053c0.222,-0.079 0.127,-0.337 0.288,-0.45c0.104,-0.074 0.287,-0.01 0.406,-0.051c0.2,-0.069 0.339,-0.263 0.376,-0.46c0.016,-0.082 0.01,-0.145 0.039,-0.221c0.039,-0.103 0.111,-0.16 0.09,-0.293c-0.01,-0.062 -0.052,-0.12 -0.064,-0.187c-0.022,-0.114 0.002,-0.224 0,-0.337c-0.003,-0.2 0.017,-0.379 -0.078,-0.55c-0.38,-0.688 -1.236,-0.929 -1.975,-0.789c-0.18,0.034 -0.287,0.126 -0.442,0.207c-0.17,0.088 -0.139,0.166 -0.318,0.224c-0.081,0.026 -0.216,0.124 -0.215,0.224c0.001,0.115 0.005,0.051 0.012,0.169c-0.021,0.011 -0.021,-0.005 -0.03,-0.025"/>
    <path id="svg_12" fill="#FFFFFF" d="m8.105,-71.653c0.018,0.072 0.007,0.127 -0.026,0.19c-0.053,0.101 -0.112,0.062 -0.165,0.128c-0.05,0.062 -0.099,0.276 -0.079,0.362c-0.169,0.058 -0.01,0.227 -0.015,0.35c-0.002,0.05 -0.041,0.105 -0.045,0.161c-0.01,0.119 0.017,0.266 0.068,0.37c0.097,0.198 0.268,0.413 0.435,0.544c0.19,0.148 0.365,0.572 0.608,0.631c0.177,0.042 0.384,-0.104 0.543,-0.143c0.18,-0.043 0.397,0.01 0.571,-0.053c0.222,-0.079 0.127,-0.337 0.288,-0.45c0.104,-0.074 0.287,-0.01 0.406,-0.051c0.2,-0.069 0.339,-0.263 0.376,-0.46c0.016,-0.082 0.01,-0.145 0.039,-0.221c0.039,-0.103 0.111,-0.16 0.09,-0.293c-0.01,-0.062 -0.052,-0.12 -0.064,-0.187c-0.022,-0.114 0.002,-0.224 0,-0.337c-0.003,-0.2 0.017,-0.379 -0.078,-0.55c-0.38,-0.688 -1.236,-0.929 -1.975,-0.789c-0.18,0.034 -0.287,0.126 -0.442,0.207c-0.17,0.088 -0.139,0.166 -0.318,0.224c-0.081,0.026 -0.216,0.124 -0.215,0.224c0.001,0.115 0.005,0.051 0.012,0.169c-0.021,0.011 -0.021,-0.005 -0.03,-0.025"/>
    <path id="svg_13" fill="#FFFFFF" d="m0.439,-71.653c0.018,0.072 0.008,0.127 -0.026,0.19c-0.052,0.101 -0.113,0.063 -0.165,0.128c-0.051,0.062 -0.099,0.276 -0.079,0.362c-0.169,0.058 -0.01,0.227 -0.015,0.35c-0.002,0.05 -0.041,0.105 -0.045,0.161c-0.01,0.119 0.017,0.266 0.068,0.37c0.097,0.198 0.268,0.413 0.435,0.544c0.19,0.148 0.365,0.572 0.608,0.631c0.177,0.042 0.384,-0.104 0.543,-0.143c0.18,-0.043 0.397,0.01 0.571,-0.053c0.222,-0.079 0.127,-0.337 0.288,-0.45c0.104,-0.074 0.287,-0.01 0.406,-0.051c0.2,-0.07 0.339,-0.263 0.376,-0.46c0.016,-0.082 0.01,-0.145 0.039,-0.221c0.038,-0.103 0.111,-0.16 0.09,-0.293c-0.01,-0.062 -0.051,-0.12 -0.064,-0.187c-0.021,-0.114 0.002,-0.224 0,-0.337c-0.003,-0.2 0.017,-0.379 -0.078,-0.55c-0.38,-0.688 -1.236,-0.929 -1.975,-0.789c-0.18,0.034 -0.287,0.126 -0.442,0.207c-0.17,0.088 -0.139,0.166 -0.318,0.224c-0.081,0.026 -0.215,0.124 -0.215,0.224c0.002,0.115 0.005,0.051 0.012,0.169c-0.021,0.011 -0.021,-0.005 -0.03,-0.025"/>
   </g>
   <g id="svg_14">
    <path id="svg_15" fill="#FFFFFF" d="m69.439,-71.653c0.018,0.072 0.008,0.127 -0.026,0.19c-0.052,0.101 -0.113,0.062 -0.165,0.128c-0.051,0.062 -0.099,0.276 -0.079,0.362c-0.169,0.058 -0.01,0.227 -0.015,0.35c-0.002,0.05 -0.041,0.105 -0.045,0.161c-0.01,0.119 0.017,0.266 0.068,0.37c0.097,0.198 0.268,0.413 0.435,0.544c0.19,0.148 0.365,0.572 0.608,0.631c0.177,0.042 0.384,-0.104 0.543,-0.143c0.18,-0.043 0.397,0.01 0.571,-0.053c0.222,-0.079 0.127,-0.337 0.288,-0.45c0.104,-0.074 0.287,-0.01 0.406,-0.051c0.2,-0.07 0.339,-0.263 0.376,-0.46c0.016,-0.082 0.01,-0.145 0.039,-0.221c0.038,-0.103 0.111,-0.16 0.09,-0.293c-0.01,-0.062 -0.051,-0.12 -0.064,-0.187c-0.021,-0.114 0.002,-0.224 0,-0.337c-0.003,-0.2 0.017,-0.379 -0.078,-0.55c-0.38,-0.688 -1.236,-0.929 -1.975,-0.789c-0.18,0.034 -0.287,0.126 -0.442,0.207c-0.17,0.088 -0.139,0.166 -0.318,0.224c-0.081,0.026 -0.215,0.124 -0.215,0.224c0.002,0.115 0.005,0.051 0.012,0.169c-0.021,0.011 -0.021,-0.005 -0.03,-0.025"/>
   </g>
   <path id="svg_16" fill="#FFFFFF" d="m0.495,-71.653c0.018,0.072 0.008,0.127 -0.026,0.19c-0.052,0.101 -0.113,0.062 -0.165,0.128c-0.051,0.062 -0.099,0.276 -0.079,0.362c-0.169,0.058 -0.01,0.227 -0.015,0.35c-0.002,0.05 -0.041,0.105 -0.045,0.161c-0.01,0.119 0.017,0.266 0.068,0.37c0.097,0.198 0.268,0.413 0.435,0.544c0.19,0.148 0.365,0.572 0.608,0.631c0.177,0.042 0.384,-0.104 0.543,-0.143c0.18,-0.043 0.397,0.01 0.571,-0.053c0.222,-0.079 0.127,-0.337 0.288,-0.45c0.104,-0.074 0.287,-0.01 0.406,-0.051c0.2,-0.07 0.339,-0.263 0.376,-0.46c0.016,-0.082 0.01,-0.145 0.039,-0.221c0.038,-0.103 0.111,-0.16 0.09,-0.293c-0.01,-0.062 -0.051,-0.12 -0.064,-0.187c-0.021,-0.114 0.002,-0.224 0,-0.337c-0.003,-0.2 0.017,-0.379 -0.078,-0.55c-0.38,-0.688 -1.236,-0.929 -1.975,-0.789c-0.18,0.034 -0.287,0.126 -0.442,0.207c-0.17,0.088 -0.139,0.166 -0.318,0.224c-0.081,0.026 -0.215,0.124 -0.215,0.224c0.003,0.116 0.006,0.052 0.013,0.17c-0.021,0.011 -0.021,-0.005 -0.03,-0.025"/>
   <g id="svg_17">
    <g id="svg_18">
     <path id="svg_19" fill="#FFFFFF" d="m69.439,-64.001c0.018,0.072 0.007,0.127 -0.026,0.19c-0.053,0.101 -0.112,0.062 -0.165,0.128c-0.05,0.062 -0.099,0.276 -0.079,0.362c-0.169,0.058 -0.01,0.227 -0.015,0.35c-0.002,0.05 -0.041,0.105 -0.045,0.161c-0.01,0.119 0.017,0.266 0.068,0.37c0.097,0.198 0.268,0.413 0.435,0.544c0.19,0.148 0.365,0.572 0.608,0.631c0.177,0.042 0.384,-0.104 0.543,-0.143c0.18,-0.043 0.397,0.01 0.571,-0.053c0.222,-0.079 0.127,-0.337 0.288,-0.45c0.104,-0.074 0.287,-0.01 0.406,-0.051c0.2,-0.069 0.339,-0.263 0.376,-0.46c0.016,-0.082 0.01,-0.145 0.039,-0.221c0.039,-0.103 0.111,-0.16 0.09,-0.293c-0.01,-0.062 -0.052,-0.12 -0.064,-0.187c-0.022,-0.114 0.002,-0.224 0,-0.337c-0.003,-0.2 0.017,-0.379 -0.078,-0.55c-0.38,-0.688 -1.236,-0.929 -1.975,-0.789c-0.18,0.034 -0.287,0.126 -0.442,0.207c-0.17,0.088 -0.139,0.166 -0.318,0.224c-0.081,0.026 -0.216,0.124 -0.215,0.224c0.001,0.115 0.005,0.051 0.012,0.169c-0.021,0.011 -0.021,-0.005 -0.03,-0.025"/>
     <path id="svg_20" fill="#FFFFFF" d="m61.778,-64.001c0.018,0.072 0.007,0.127 -0.026,0.19c-0.053,0.101 -0.112,0.062 -0.165,0.128c-0.05,0.062 -0.099,0.276 -0.079,0.362c-0.169,0.058 -0.009,0.227 -0.015,0.35c-0.002,0.05 -0.041,0.105 -0.045,0.161c-0.01,0.119 0.017,0.266 0.068,0.37c0.097,0.198 0.268,0.413 0.435,0.544c0.19,0.148 0.365,0.572 0.608,0.631c0.177,0.042 0.384,-0.104 0.543,-0.143c0.18,-0.043 0.397,0.01 0.571,-0.053c0.222,-0.079 0.127,-0.337 0.288,-0.45c0.104,-0.074 0.287,-0.01 0.406,-0.051c0.2,-0.069 0.339,-0.263 0.376,-0.46c0.016,-0.082 0.01,-0.145 0.039,-0.221c0.039,-0.103 0.111,-0.16 0.09,-0.293c-0.01,-0.062 -0.052,-0.12 -0.064,-0.187c-0.022,-0.114 0.002,-0.224 0,-0.337c-0.003,-0.2 0.017,-0.379 -0.078,-0.55c-0.38,-0.688 -1.236,-0.929 -1.975,-0.789c-0.18,0.034 -0.287,0.126 -0.442,0.207c-0.17,0.088 -0.139,0.166 -0.318,0.224c-0.081,0.026 -0.216,0.124 -0.215,0.224c0.001,0.115 0.005,0.051 0.012,0.169c-0.021,0.011 -0.021,-0.005 -0.03,-0.025"/>
     <path id="svg_21" fill="#FFFFFF" d="m54.118,-64.001c0.018,0.072 0.007,0.127 -0.026,0.19c-0.053,0.101 -0.112,0.062 -0.165,0.128c-0.05,0.062 -0.099,0.276 -0.079,0.362c-0.169,0.058 -0.009,0.227 -0.015,0.35c-0.002,0.05 -0.041,0.105 -0.045,0.161c-0.01,0.119 0.017,0.266 0.068,0.37c0.097,0.198 0.268,0.413 0.435,0.544c0.19,0.148 0.365,0.572 0.608,0.631c0.177,0.042 0.384,-0.104 0.543,-0.143c0.18,-0.043 0.397,0.01 0.571,-0.053c0.222,-0.079 0.127,-0.337 0.288,-0.45c0.104,-0.074 0.287,-0.01 0.406,-0.051c0.2,-0.069 0.339,-0.263 0.376,-0.46c0.016,-0.082 0.01,-0.145 0.039,-0.221c0.039,-0.103 0.111,-0.16 0.09,-0.293c-0.01,-0.062 -0.052,-0.12 -0.064,-0.187c-0.022,-0.114 0.002,-0.224 0,-0.337c-0.003,-0.2 0.017,-0.379 -0.078,-0.55c-0.38,-0.688 -1.236,-0.929 -1.975,-0.789c-0.18,0.034 -0.287,0.126 -0.442,0.207c-0.17,0.088 -0.139,0.166 -0.318,0.224c-0.081,0.026 -0.216,0.124 -0.215,0.224c0.001,0.115 0.005,0.051 0.012,0.169c-0.021,0.011 -0.021,-0.005 -0.03,-0.025"/>
     <path id="svg_22" fill="#FFFFFF" d="m46.458,-64.001c0.018,0.072 0.007,0.127 -0.026,0.19c-0.053,0.101 -0.112,0.062 -0.165,0.128c-0.05,0.062 -0.099,0.276 -0.079,0.362c-0.169,0.058 -0.009,0.227 -0.015,0.35c-0.002,0.05 -0.041,0.105 -0.045,0.161c-0.01,0.119 0.017,0.266 0.068,0.37c0.097,0.198 0.268,0.413 0.435,0.544c0.19,0.148 0.365,0.572 0.608,0.631c0.177,0.042 0.384,-0.104 0.543,-0.143c0.18,-0.043 0.397,0.01 0.571,-0.053c0.222,-0.079 0.127,-0.337 0.288,-0.45c0.104,-0.074 0.287,-0.01 0.406,-0.051c0.2,-0.069 0.339,-0.263 0.376,-0.46c0.016,-0.082 0.01,-0.145 0.039,-0.221c0.039,-0.103 0.111,-0.16 0.09,-0.293c-0.01,-0.062 -0.052,-0.12 -0.064,-0.187c-0.022,-0.114 0.002,-0.224 0,-0.337c-0.003,-0.2 0.017,-0.379 -0.078,-0.55c-0.38,-0.688 -1.236,-0.929 -1.975,-0.789c-0.18,0.034 -0.287,0.126 -0.442,0.207c-0.17,0.088 -0.139,0.166 -0.318,0.224c-0.081,0.026 -0.216,0.124 -0.215,0.224c0.001,0.115 0.005,0.051 0.012,0.169c-0.021,0.011 -0.021,-0.005 -0.03,-0.025"/>
     <path id="svg_23" fill="#FFFFFF" d="m38.797,-64.001c0.018,0.072 0.007,0.127 -0.026,0.19c-0.053,0.101 -0.112,0.062 -0.165,0.128c-0.05,0.062 -0.099,0.276 -0.079,0.362c-0.169,0.058 -0.009,0.227 -0.015,0.35c-0.002,0.05 -0.041,0.105 -0.045,0.161c-0.01,0.119 0.017,0.266 0.068,0.37c0.097,0.198 0.268,0.413 0.435,0.544c0.19,0.148 0.365,0.572 0.608,0.631c0.177,0.042 0.384,-0.104 0.543,-0.143c0.18,-0.043 0.397,0.01 0.571,-0.053c0.222,-0.079 0.127,-0.337 0.288,-0.45c0.104,-0.074 0.287,-0.01 0.406,-0.051c0.2,-0.069 0.339,-0.263 0.376,-0.46c0.016,-0.082 0.01,-0.145 0.039,-0.221c0.039,-0.103 0.111,-0.16 0.09,-0.293c-0.01,-0.062 -0.052,-0.12 -0.064,-0.187c-0.022,-0.114 0.002,-0.224 0,-0.337c-0.003,-0.2 0.017,-0.379 -0.078,-0.55c-0.38,-0.688 -1.236,-0.929 -1.975,-0.789c-0.18,0.034 -0.287,0.126 -0.442,0.207c-0.17,0.088 -0.139,0.166 -0.318,0.224c-0.081,0.026 -0.216,0.124 -0.215,0.224c0.001,0.115 0.005,0.051 0.012,0.169c-0.021,0.011 -0.021,-0.005 -0.03,-0.025"/>
     <path id="svg_24" fill="#FFFFFF" d="m31.137,-64.001c0.018,0.072 0.007,0.127 -0.026,0.19c-0.053,0.101 -0.112,0.062 -0.165,0.128c-0.05,0.062 -0.099,0.276 -0.079,0.362c-0.169,0.058 -0.009,0.227 -0.015,0.35c-0.002,0.05 -0.041,0.105 -0.045,0.161c-0.01,0.119 0.017,0.266 0.068,0.37c0.097,0.198 0.268,0.413 0.435,0.544c0.19,0.148 0.365,0.572 0.608,0.631c0.177,0.042 0.384,-0.104 0.543,-0.143c0.18,-0.043 0.397,0.01 0.571,-0.053c0.222,-0.079 0.127,-0.337 0.288,-0.45c0.104,-0.074 0.287,-0.01 0.406,-0.051c0.2,-0.069 0.339,-0.263 0.376,-0.46c0.016,-0.082 0.01,-0.145 0.039,-0.221c0.039,-0.103 0.111,-0.16 0.09,-0.293c-0.01,-0.062 -0.052,-0.12 -0.064,-0.187c-0.022,-0.114 0.002,-0.224 0,-0.337c-0.003,-0.2 0.017,-0.379 -0.078,-0.55c-0.38,-0.688 -1.236,-0.929 -1.975,-0.789c-0.18,0.034 -0.287,0.126 -0.442,0.207c-0.17,0.088 -0.139,0.166 -0.318,0.224c-0.081,0.026 -0.216,0.124 -0.215,0.224c0.001,0.115 0.005,0.051 0.012,0.169c-0.021,0.011 -0.021,-0.005 -0.03,-0.025"/>
     <path id="svg_25" fill="#FFFFFF" d="m23.477,-64.001c0.018,0.072 0.007,0.127 -0.026,0.19c-0.053,0.101 -0.112,0.062 -0.165,0.128c-0.05,0.062 -0.099,0.276 -0.079,0.362c-0.169,0.058 -0.009,0.227 -0.015,0.35c-0.002,0.05 -0.041,0.105 -0.045,0.161c-0.01,0.119 0.017,0.266 0.068,0.37c0.097,0.198 0.268,0.413 0.435,0.544c0.19,0.148 0.365,0.572 0.608,0.631c0.177,0.042 0.384,-0.104 0.543,-0.143c0.18,-0.043 0.397,0.01 0.571,-0.053c0.222,-0.079 0.127,-0.337 0.288,-0.45c0.104,-0.074 0.287,-0.01 0.406,-0.051c0.2,-0.069 0.339,-0.263 0.376,-0.46c0.016,-0.082 0.01,-0.145 0.039,-0.221c0.039,-0.103 0.111,-0.16 0.09,-0.293c-0.01,-0.062 -0.052,-0.12 -0.064,-0.187c-0.022,-0.114 0.002,-0.224 0,-0.337c-0.003,-0.2 0.017,-0.379 -0.078,-0.55c-0.38,-0.688 -1.236,-0.929 -1.975,-0.789c-0.18,0.034 -0.287,0.126 -0.442,0.207c-0.17,0.088 -0.139,0.166 -0.318,0.224c-0.081,0.026 -0.216,0.124 -0.215,0.224c0.001,0.115 0.005,0.051 0.012,0.169c-0.021,0.011 -0.021,-0.005 -0.03,-0.025"/>
     <path id="svg_26" fill="#FFFFFF" d="m15.816,-64.001c0.018,0.072 0.007,0.127 -0.026,0.19c-0.053,0.101 -0.112,0.062 -0.165,0.128c-0.05,0.062 -0.099,0.276 -0.079,0.362c-0.169,0.058 -0.009,0.227 -0.015,0.35c-0.002,0.05 -0.041,0.105 -0.045,0.161c-0.01,0.119 0.017,0.266 0.068,0.37c0.097,0.198 0.268,0.413 0.435,0.544c0.19,0.148 0.365,0.572 0.608,0.631c0.177,0.042 0.384,-0.104 0.543,-0.143c0.18,-0.043 0.397,0.01 0.571,-0.053c0.222,-0.079 0.127,-0.337 0.288,-0.45c0.104,-0.074 0.287,-0.01 0.406,-0.051c0.2,-0.069 0.339,-0.263 0.376,-0.46c0.016,-0.082 0.01,-0.145 0.039,-0.221c0.039,-0.103 0.111,-0.16 0.09,-0.293c-0.01,-0.062 -0.052,-0.12 -0.064,-0.187c-0.022,-0.114 0.002,-0.224 0,-0.337c-0.003,-0.2 0.017,-0.379 -0.078,-0.55c-0.38,-0.688 -1.236,-0.929 -1.975,-0.789c-0.18,0.034 -0.287,0.126 -0.442,0.207c-0.17,0.088 -0.139,0.166 -0.318,0.224c-0.081,0.026 -0.216,0.124 -0.215,0.224c0.001,0.115 0.005,0.051 0.012,0.169c-0.021,0.011 -0.021,-0.005 -0.03,-0.025"/>
     <path id="svg_27" fill="#FFFFFF" d="m8.156,-64.001c0.018,0.072 0.007,0.127 -0.026,0.19c-0.053,0.101 -0.112,0.062 -0.165,0.128c-0.05,0.062 -0.099,0.276 -0.079,0.362c-0.169,0.058 -0.009,0.227 -0.015,0.35c-0.002,0.05 -0.041,0.105 -0.045,0.161c-0.01,0.119 0.017,0.266 0.068,0.37c0.097,0.198 0.268,0.413 0.435,0.544c0.19,0.148 0.365,0.572 0.608,0.631c0.177,0.042 0.384,-0.104 0.543,-0.143c0.18,-0.043 0.397,0.01 0.571,-0.053c0.222,-0.079 0.127,-0.337 0.288,-0.45c0.104,-0.074 0.287,-0.01 0.406,-0.051c0.2,-0.069 0.339,-0.263 0.376,-0.46c0.016,-0.082 0.01,-0.145 0.039,-0.221c0.039,-0.103 0.111,-0.16 0.09,-0.293c-0.01,-0.062 -0.052,-0.12 -0.064,-0.187c-0.022,-0.114 0.002,-0.224 0,-0.337c-0.003,-0.2 0.017,-0.379 -0.078,-0.55c-0.38,-0.688 -1.236,-0.929 -1.975,-0.789c-0.18,0.034 -0.287,0.126 -0.442,0.207c-0.17,0.088 -0.139,0.166 -0.318,0.224c-0.081,0.026 -0.216,0.124 -0.215,0.224c0.001,0.115 0.005,0.051 0.012,0.169c-0.021,0.011 -0.021,-0.005 -0.03,-0.025"/>
     <path id="svg_28" fill="#FFFFFF" d="m0.495,-64.001c0.018,0.072 0.007,0.127 -0.026,0.19c-0.053,0.101 -0.112,0.062 -0.165,0.128c-0.05,0.062 -0.099,0.276 -0.079,0.362c-0.169,0.058 -0.01,0.227 -0.015,0.35c-0.002,0.05 -0.041,0.105 -0.045,0.161c-0.01,0.119 0.017,0.266 0.068,0.37c0.097,0.198 0.268,0.413 0.435,0.544c0.19,0.148 0.365,0.572 0.608,0.631c0.177,0.042 0.384,-0.104 0.543,-0.143c0.181,-0.042 0.398,0.011 0.572,-0.052c0.222,-0.079 0.127,-0.337 0.288,-0.45c0.104,-0.074 0.287,-0.01 0.406,-0.051c0.2,-0.069 0.339,-0.263 0.376,-0.46c0.016,-0.082 0.01,-0.145 0.039,-0.221c0.039,-0.103 0.111,-0.16 0.09,-0.293c-0.01,-0.062 -0.052,-0.12 -0.064,-0.187c-0.022,-0.114 0.002,-0.224 0,-0.337c-0.003,-0.2 0.017,-0.379 -0.078,-0.55c-0.38,-0.688 -1.236,-0.929 -1.975,-0.789c-0.18,0.034 -0.287,0.126 -0.442,0.207c-0.17,0.088 -0.139,0.166 -0.318,0.224c-0.081,0.026 -0.216,0.124 -0.215,0.224c0.001,0.115 0.005,0.051 0.012,0.169c-0.021,0.011 -0.021,-0.005 -0.03,-0.025"/>
    </g>
    <g id="svg_29">
     <path id="svg_30" fill="#FFFFFF" d="m69.439,-56.348c0.018,0.072 0.007,0.127 -0.026,0.19c-0.053,0.101 -0.112,0.062 -0.165,0.128c-0.05,0.062 -0.099,0.276 -0.079,0.362c-0.169,0.058 -0.01,0.227 -0.015,0.35c-0.002,0.05 -0.041,0.105 -0.045,0.161c-0.01,0.119 0.017,0.266 0.068,0.37c0.097,0.198 0.268,0.413 0.435,0.544c0.19,0.148 0.365,0.572 0.608,0.631c0.177,0.042 0.384,-0.104 0.543,-0.143c0.18,-0.043 0.397,0.01 0.571,-0.053c0.222,-0.079 0.127,-0.337 0.288,-0.45c0.104,-0.074 0.287,-0.01 0.406,-0.051c0.2,-0.069 0.339,-0.263 0.376,-0.46c0.016,-0.082 0.01,-0.145 0.039,-0.221c0.039,-0.103 0.111,-0.16 0.09,-0.293c-0.01,-0.062 -0.052,-0.12 -0.064,-0.187c-0.022,-0.114 0.002,-0.224 0,-0.337c-0.003,-0.2 0.017,-0.379 -0.078,-0.55c-0.38,-0.688 -1.236,-0.929 -1.975,-0.789c-0.18,0.034 -0.287,0.126 -0.442,0.207c-0.17,0.088 -0.139,0.166 -0.318,0.224c-0.081,0.026 -0.216,0.124 -0.215,0.224c0.001,0.115 0.005,0.051 0.012,0.169c-0.021,0.011 -0.021,-0.005 -0.03,-0.025"/>
     <path id="svg_31" fill="#FFFFFF" d="m61.778,-56.348c0.018,0.072 0.007,0.127 -0.026,0.19c-0.053,0.101 -0.112,0.062 -0.165,0.128c-0.05,0.062 -0.099,0.276 -0.079,0.362c-0.169,0.058 -0.009,0.227 -0.015,0.35c-0.002,0.05 -0.041,0.105 -0.045,0.161c-0.01,0.119 0.017,0.266 0.068,0.37c0.097,0.198 0.268,0.413 0.435,0.544c0.19,0.148 0.365,0.572 0.608,0.631c0.177,0.042 0.384,-0.104 0.543,-0.143c0.18,-0.043 0.397,0.01 0.571,-0.053c0.222,-0.079 0.127,-0.337 0.288,-0.45c0.104,-0.074 0.287,-0.01 0.406,-0.051c0.2,-0.069 0.339,-0.263 0.376,-0.46c0.016,-0.082 0.01,-0.145 0.039,-0.221c0.039,-0.103 0.111,-0.16 0.09,-0.293c-0.01,-0.062 -0.052,-0.12 -0.064,-0.187c-0.022,-0.114 0.002,-0.224 0,-0.337c-0.003,-0.2 0.017,-0.379 -0.078,-0.55c-0.38,-0.688 -1.236,-0.929 -1.975,-0.789c-0.18,0.034 -0.287,0.126 -0.442,0.207c-0.17,0.088 -0.139,0.166 -0.318,0.224c-0.081,0.026 -0.216,0.124 -0.215,0.224c0.001,0.115 0.005,0.051 0.012,0.169c-0.021,0.011 -0.021,-0.005 -0.03,-0.025"/>
     <path id="svg_32" fill="#FFFFFF" d="m54.118,-56.348c0.018,0.072 0.007,0.127 -0.026,0.19c-0.053,0.101 -0.112,0.062 -0.165,0.128c-0.05,0.062 -0.099,0.276 -0.079,0.362c-0.169,0.058 -0.009,0.227 -0.015,0.35c-0.002,0.05 -0.041,0.105 -0.045,0.161c-0.01,0.119 0.017,0.266 0.068,0.37c0.097,0.198 0.268,0.413 0.435,0.544c0.19,0.148 0.365,0.572 0.608,0.631c0.177,0.042 0.384,-0.104 0.543,-0.143c0.18,-0.043 0.397,0.01 0.571,-0.053c0.222,-0.079 0.127,-0.337 0.288,-0.45c0.104,-0.074 0.287,-0.01 0.406,-0.051c0.2,-0.069 0.339,-0.263 0.376,-0.46c0.016,-0.082 0.01,-0.145 0.039,-0.221c0.039,-0.103 0.111,-0.16 0.09,-0.293c-0.01,-0.062 -0.052,-0.12 -0.064,-0.187c-0.022,-0.114 0.002,-0.224 0,-0.337c-0.003,-0.2 0.017,-0.379 -0.078,-0.55c-0.38,-0.688 -1.236,-0.929 -1.975,-0.789c-0.18,0.034 -0.287,0.126 -0.442,0.207c-0.17,0.088 -0.139,0.166 -0.318,0.224c-0.081,0.026 -0.216,0.124 -0.215,0.224c0.001,0.115 0.005,0.051 0.012,0.169c-0.021,0.011 -0.021,-0.005 -0.03,-0.025"/>
     <path id="svg_33" fill="#FFFFFF" d="m46.458,-56.348c0.018,0.072 0.007,0.127 -0.026,0.19c-0.053,0.101 -0.112,0.062 -0.165,0.128c-0.05,0.062 -0.099,0.276 -0.079,0.362c-0.169,0.058 -0.009,0.227 -0.015,0.35c-0.002,0.05 -0.041,0.105 -0.045,0.161c-0.01,0.119 0.017,0.266 0.068,0.37c0.097,0.198 0.268,0.413 0.435,0.544c0.19,0.148 0.365,0.572 0.608,0.631c0.177,0.042 0.384,-0.104 0.543,-0.143c0.18,-0.043 0.397,0.01 0.571,-0.053c0.222,-0.079 0.127,-0.337 0.288,-0.45c0.104,-0.074 0.287,-0.01 0.406,-0.051c0.2,-0.069 0.339,-0.263 0.376,-0.46c0.016,-0.082 0.01,-0.145 0.039,-0.221c0.039,-0.103 0.111,-0.16 0.09,-0.293c-0.01,-0.062 -0.052,-0.12 -0.064,-0.187c-0.022,-0.114 0.002,-0.224 0,-0.337c-0.003,-0.2 0.017,-0.379 -0.078,-0.55c-0.38,-0.688 -1.236,-0.929 -1.975,-0.789c-0.18,0.034 -0.287,0.126 -0.442,0.207c-0.17,0.088 -0.139,0.166 -0.318,0.224c-0.081,0.026 -0.216,0.124 -0.215,0.224c0.001,0.115 0.005,0.051 0.012,0.169c-0.021,0.011 -0.021,-0.005 -0.03,-0.025"/>
     <path id="svg_34" fill="#FFFFFF" d="m38.797,-56.348c0.018,0.072 0.007,0.127 -0.026,0.19c-0.053,0.101 -0.112,0.062 -0.165,0.128c-0.05,0.062 -0.099,0.276 -0.079,0.362c-0.169,0.058 -0.009,0.227 -0.015,0.35c-0.002,0.05 -0.041,0.105 -0.045,0.161c-0.01,0.119 0.017,0.266 0.068,0.37c0.097,0.198 0.268,0.413 0.435,0.544c0.19,0.148 0.365,0.572 0.608,0.631c0.177,0.042 0.384,-0.104 0.543,-0.143c0.18,-0.043 0.397,0.01 0.571,-0.053c0.222,-0.079 0.127,-0.337 0.288,-0.45c0.104,-0.074 0.287,-0.01 0.406,-0.051c0.2,-0.069 0.339,-0.263 0.376,-0.46c0.016,-0.082 0.01,-0.145 0.039,-0.221c0.039,-0.103 0.111,-0.16 0.09,-0.293c-0.01,-0.062 -0.052,-0.12 -0.064,-0.187c-0.022,-0.114 0.002,-0.224 0,-0.337c-0.003,-0.2 0.017,-0.379 -0.078,-0.55c-0.38,-0.688 -1.236,-0.929 -1.975,-0.789c-0.18,0.034 -0.287,0.126 -0.442,0.207c-0.17,0.088 -0.139,0.166 -0.318,0.224c-0.081,0.026 -0.216,0.124 -0.215,0.224c0.001,0.115 0.005,0.051 0.012,0.169c-0.021,0.011 -0.021,-0.005 -0.03,-0.025"/>
     <path id="svg_35" fill="#FFFFFF" d="m31.137,-56.348c0.018,0.072 0.007,0.127 -0.026,0.19c-0.053,0.101 -0.112,0.062 -0.165,0.128c-0.05,0.062 -0.099,0.276 -0.079,0.362c-0.169,0.058 -0.009,0.227 -0.015,0.35c-0.002,0.05 -0.041,0.105 -0.045,0.161c-0.01,0.119 0.017,0.266 0.068,0.37c0.097,0.198 0.268,0.413 0.435,0.544c0.19,0.148 0.365,0.572 0.608,0.631c0.177,0.042 0.384,-0.104 0.543,-0.143c0.18,-0.043 0.397,0.01 0.571,-0.053c0.222,-0.079 0.127,-0.337 0.288,-0.45c0.104,-0.074 0.287,-0.01 0.406,-0.051c0.2,-0.069 0.339,-0.263 0.376,-0.46c0.016,-0.082 0.01,-0.145 0.039,-0.221c0.039,-0.103 0.111,-0.16 0.09,-0.293c-0.01,-0.062 -0.052,-0.12 -0.064,-0.187c-0.022,-0.114 0.002,-0.224 0,-0.337c-0.003,-0.2 0.017,-0.379 -0.078,-0.55c-0.38,-0.688 -1.236,-0.929 -1.975,-0.789c-0.18,0.034 -0.287,0.126 -0.442,0.207c-0.17,0.088 -0.139,0.166 -0.318,0.224c-0.081,0.026 -0.216,0.124 -0.215,0.224c0.001,0.115 0.005,0.051 0.012,0.169c-0.021,0.011 -0.021,-0.005 -0.03,-0.025"/>
     <path id="svg_36" fill="#FFFFFF" d="m23.477,-56.348c0.018,0.072 0.007,0.127 -0.026,0.19c-0.053,0.101 -0.112,0.062 -0.165,0.128c-0.05,0.062 -0.099,0.276 -0.079,0.362c-0.169,0.058 -0.009,0.227 -0.015,0.35c-0.002,0.05 -0.041,0.105 -0.045,0.161c-0.01,0.119 0.017,0.266 0.068,0.37c0.097,0.198 0.268,0.413 0.435,0.544c0.19,0.148 0.365,0.572 0.608,0.631c0.177,0.042 0.384,-0.104 0.543,-0.143c0.18,-0.043 0.397,0.01 0.571,-0.053c0.222,-0.079 0.127,-0.337 0.288,-0.45c0.104,-0.074 0.287,-0.01 0.406,-0.051c0.2,-0.069 0.339,-0.263 0.376,-0.46c0.016,-0.082 0.01,-0.145 0.039,-0.221c0.039,-0.103 0.111,-0.16 0.09,-0.293c-0.01,-0.062 -0.052,-0.12 -0.064,-0.187c-0.022,-0.114 0.002,-0.224 0,-0.337c-0.003,-0.2 0.017,-0.379 -0.078,-0.55c-0.38,-0.688 -1.236,-0.929 -1.975,-0.789c-0.18,0.034 -0.287,0.126 -0.442,0.207c-0.17,0.088 -0.139,0.166 -0.318,0.224c-0.081,0.026 -0.216,0.124 -0.215,0.224c0.001,0.115 0.005,0.051 0.012,0.169c-0.021,0.011 -0.021,-0.005 -0.03,-0.025"/>
     <path id="svg_37" fill="#FFFFFF" d="m15.816,-56.348c0.018,0.072 0.007,0.127 -0.026,0.19c-0.053,0.101 -0.112,0.062 -0.165,0.128c-0.05,0.062 -0.099,0.276 -0.079,0.362c-0.169,0.058 -0.009,0.227 -0.015,0.35c-0.002,0.05 -0.041,0.105 -0.045,0.161c-0.01,0.119 0.017,0.266 0.068,0.37c0.097,0.198 0.268,0.413 0.435,0.544c0.19,0.148 0.365,0.572 0.608,0.631c0.177,0.042 0.384,-0.104 0.543,-0.143c0.18,-0.043 0.397,0.01 0.571,-0.053c0.222,-0.079 0.127,-0.337 0.288,-0.45c0.104,-0.074 0.287,-0.01 0.406,-0.051c0.2,-0.069 0.339,-0.263 0.376,-0.46c0.016,-0.082 0.01,-0.145 0.039,-0.221c0.039,-0.103 0.111,-0.16 0.09,-0.293c-0.01,-0.062 -0.052,-0.12 -0.064,-0.187c-0.022,-0.114 0.002,-0.224 0,-0.337c-0.003,-0.2 0.017,-0.379 -0.078,-0.55c-0.38,-0.688 -1.236,-0.929 -1.975,-0.789c-0.18,0.034 -0.287,0.126 -0.442,0.207c-0.17,0.088 -0.139,0.166 -0.318,0.224c-0.081,0.026 -0.216,0.124 -0.215,0.224c0.001,0.115 0.005,0.051 0.012,0.169c-0.021,0.011 -0.021,-0.005 -0.03,-0.025"/>
     <path id="svg_38" fill="#FFFFFF" d="m8.156,-56.348c0.018,0.072 0.007,0.127 -0.026,0.19c-0.053,0.101 -0.112,0.062 -0.165,0.128c-0.05,0.062 -0.099,0.276 -0.079,0.362c-0.169,0.058 -0.009,0.227 -0.015,0.35c-0.002,0.05 -0.041,0.105 -0.045,0.161c-0.01,0.119 0.017,0.266 0.068,0.37c0.097,0.198 0.268,0.413 0.435,0.544c0.19,0.148 0.365,0.572 0.608,0.631c0.177,0.042 0.384,-0.104 0.543,-0.143c0.18,-0.043 0.397,0.01 0.571,-0.053c0.222,-0.079 0.127,-0.337 0.288,-0.45c0.104,-0.074 0.287,-0.01 0.406,-0.051c0.2,-0.069 0.339,-0.263 0.376,-0.46c0.016,-0.082 0.01,-0.145 0.039,-0.221c0.039,-0.103 0.111,-0.16 0.09,-0.293c-0.01,-0.062 -0.052,-0.12 -0.064,-0.187c-0.022,-0.114 0.002,-0.224 0,-0.337c-0.003,-0.2 0.017,-0.379 -0.078,-0.55c-0.38,-0.688 -1.236,-0.929 -1.975,-0.789c-0.18,0.034 -0.287,0.126 -0.442,0.207c-0.17,0.088 -0.139,0.166 -0.318,0.224c-0.081,0.026 -0.216,0.124 -0.215,0.224c0.001,0.115 0.005,0.051 0.012,0.169c-0.021,0.011 -0.021,-0.005 -0.03,-0.025"/>
     <path id="svg_39" fill="#FFFFFF" d="m0.495,-56.348c0.018,0.072 0.007,0.127 -0.026,0.19c-0.053,0.101 -0.112,0.062 -0.165,0.128c-0.05,0.062 -0.099,0.276 -0.079,0.362c-0.169,0.058 -0.01,0.227 -0.015,0.35c-0.002,0.05 -0.041,0.105 -0.045,0.161c-0.01,0.119 0.017,0.266 0.068,0.37c0.097,0.198 0.268,0.413 0.435,0.544c0.19,0.148 0.365,0.572 0.608,0.631c0.177,0.042 0.384,-0.104 0.543,-0.143c0.18,-0.043 0.397,0.01 0.571,-0.053c0.222,-0.079 0.127,-0.337 0.288,-0.45c0.104,-0.074 0.287,-0.01 0.406,-0.051c0.2,-0.069 0.339,-0.263 0.376,-0.46c0.016,-0.082 0.01,-0.145 0.039,-0.221c0.039,-0.103 0.111,-0.16 0.09,-0.293c-0.01,-0.062 -0.052,-0.12 -0.064,-0.187c-0.022,-0.114 0.002,-0.224 0,-0.337c-0.003,-0.2 0.017,-0.379 -0.078,-0.55c-0.38,-0.688 -1.236,-0.929 -1.975,-0.789c-0.18,0.034 -0.287,0.126 -0.442,0.207c-0.17,0.088 -0.139,0.166 -0.318,0.224c-0.081,0.026 -0.216,0.124 -0.215,0.224c0.003,0.117 0.006,0.053 0.013,0.171c-0.021,0.011 -0.021,-0.005 -0.03,-0.025"/>
    </g>
    <g id="svg_40">
     <path id="svg_41" fill="#FFFFFF" d="m69.439,-48.695c0.018,0.072 0.007,0.127 -0.026,0.19c-0.053,0.101 -0.112,0.062 -0.165,0.128c-0.05,0.062 -0.099,0.276 -0.079,0.362c-0.169,0.058 -0.01,0.227 -0.015,0.35c-0.002,0.05 -0.041,0.105 -0.045,0.161c-0.01,0.119 0.017,0.266 0.068,0.37c0.097,0.198 0.268,0.413 0.435,0.544c0.19,0.148 0.365,0.572 0.608,0.631c0.177,0.042 0.384,-0.104 0.543,-0.143c0.18,-0.043 0.397,0.01 0.571,-0.053c0.222,-0.079 0.127,-0.337 0.288,-0.45c0.104,-0.074 0.287,-0.01 0.406,-0.051c0.2,-0.069 0.339,-0.263 0.376,-0.46c0.016,-0.082 0.01,-0.145 0.039,-0.221c0.039,-0.103 0.111,-0.16 0.09,-0.293c-0.01,-0.062 -0.052,-0.12 -0.064,-0.187c-0.022,-0.114 0.002,-0.224 0,-0.337c-0.003,-0.2 0.017,-0.379 -0.078,-0.55c-0.38,-0.688 -1.236,-0.929 -1.975,-0.789c-0.18,0.034 -0.287,0.126 -0.442,0.207c-0.17,0.088 -0.139,0.166 -0.318,0.224c-0.081,0.026 -0.216,0.124 -0.215,0.224c0.001,0.115 0.005,0.051 0.012,0.169c-0.021,0.011 -0.021,-0.005 -0.03,-0.025"/>
     <path id="svg_42" fill="#FFFFFF" d="m61.778,-48.695c0.018,0.072 0.007,0.127 -0.026,0.19c-0.053,0.101 -0.112,0.062 -0.165,0.128c-0.05,0.062 -0.099,0.276 -0.079,0.362c-0.169,0.058 -0.009,0.227 -0.015,0.35c-0.002,0.05 -0.041,0.105 -0.045,0.161c-0.01,0.119 0.017,0.266 0.068,0.37c0.097,0.198 0.268,0.413 0.435,0.544c0.19,0.148 0.365,0.572 0.608,0.631c0.177,0.042 0.384,-0.104 0.543,-0.143c0.18,-0.043 0.397,0.01 0.571,-0.053c0.222,-0.079 0.127,-0.337 0.288,-0.45c0.104,-0.074 0.287,-0.01 0.406,-0.051c0.2,-0.069 0.339,-0.263 0.376,-0.46c0.016,-0.082 0.01,-0.145 0.039,-0.221c0.039,-0.103 0.111,-0.16 0.09,-0.293c-0.01,-0.062 -0.052,-0.12 -0.064,-0.187c-0.022,-0.114 0.002,-0.224 0,-0.337c-0.003,-0.2 0.017,-0.379 -0.078,-0.55c-0.38,-0.688 -1.236,-0.929 -1.975,-0.789c-0.18,0.034 -0.287,0.126 -0.442,0.207c-0.17,0.088 -0.139,0.166 -0.318,0.224c-0.081,0.026 -0.216,0.124 -0.215,0.224c0.001,0.115 0.005,0.051 0.012,0.169c-0.021,0.011 -0.021,-0.005 -0.03,-0.025"/>
     <path id="svg_43" fill="#FFFFFF" d="m54.118,-48.695c0.018,0.072 0.007,0.127 -0.026,0.19c-0.053,0.101 -0.112,0.062 -0.165,0.128c-0.05,0.062 -0.099,0.276 -0.079,0.362c-0.169,0.058 -0.009,0.227 -0.015,0.35c-0.002,0.05 -0.041,0.105 -0.045,0.161c-0.01,0.119 0.017,0.266 0.068,0.37c0.097,0.198 0.268,0.413 0.435,0.544c0.19,0.148 0.365,0.572 0.608,0.631c0.177,0.042 0.384,-0.104 0.543,-0.143c0.18,-0.043 0.397,0.01 0.571,-0.053c0.222,-0.079 0.127,-0.337 0.288,-0.45c0.104,-0.074 0.287,-0.01 0.406,-0.051c0.2,-0.069 0.339,-0.263 0.376,-0.46c0.016,-0.082 0.01,-0.145 0.039,-0.221c0.039,-0.103 0.111,-0.16 0.09,-0.293c-0.01,-0.062 -0.052,-0.12 -0.064,-0.187c-0.022,-0.114 0.002,-0.224 0,-0.337c-0.003,-0.2 0.017,-0.379 -0.078,-0.55c-0.38,-0.688 -1.236,-0.929 -1.975,-0.789c-0.18,0.034 -0.287,0.126 -0.442,0.207c-0.17,0.088 -0.139,0.166 -0.318,0.224c-0.081,0.026 -0.216,0.124 -0.215,0.224c0.001,0.115 0.005,0.051 0.012,0.169c-0.021,0.011 -0.021,-0.005 -0.03,-0.025"/>
     <path id="svg_44" fill="#FFFFFF" d="m46.458,-48.695c0.018,0.072 0.007,0.127 -0.026,0.19c-0.053,0.101 -0.112,0.062 -0.165,0.128c-0.05,0.062 -0.099,0.276 -0.079,0.362c-0.169,0.058 -0.009,0.227 -0.015,0.35c-0.002,0.05 -0.041,0.105 -0.045,0.161c-0.01,0.119 0.017,0.266 0.068,0.37c0.097,0.198 0.268,0.413 0.435,0.544c0.19,0.148 0.365,0.572 0.608,0.631c0.177,0.042 0.384,-0.104 0.543,-0.143c0.18,-0.043 0.397,0.01 0.571,-0.053c0.222,-0.079 0.127,-0.337 0.288,-0.45c0.104,-0.074 0.287,-0.01 0.406,-0.051c0.2,-0.069 0.339,-0.263 0.376,-0.46c0.016,-0.082 0.01,-0.145 0.039,-0.221c0.039,-0.103 0.111,-0.16 0.09,-0.293c-0.01,-0.062 -0.052,-0.12 -0.064,-0.187c-0.022,-0.114 0.002,-0.224 0,-0.337c-0.003,-0.2 0.017,-0.379 -0.078,-0.55c-0.38,-0.688 -1.236,-0.929 -1.975,-0.789c-0.18,0.034 -0.287,0.126 -0.442,0.207c-0.17,0.088 -0.139,0.166 -0.318,0.224c-0.081,0.026 -0.216,0.124 -0.215,0.224c0.001,0.115 0.005,0.051 0.012,0.169c-0.021,0.011 -0.021,-0.005 -0.03,-0.025"/>
     <path id="svg_45" fill="#FFFFFF" d="m38.797,-48.695c0.018,0.072 0.007,0.127 -0.026,0.19c-0.053,0.101 -0.112,0.062 -0.165,0.128c-0.05,0.062 -0.099,0.276 -0.079,0.362c-0.169,0.058 -0.009,0.227 -0.015,0.35c-0.002,0.05 -0.041,0.105 -0.045,0.161c-0.01,0.119 0.017,0.266 0.068,0.37c0.097,0.198 0.268,0.413 0.435,0.544c0.19,0.148 0.365,0.572 0.608,0.631c0.177,0.042 0.384,-0.104 0.543,-0.143c0.18,-0.043 0.397,0.01 0.571,-0.053c0.222,-0.079 0.127,-0.337 0.288,-0.45c0.104,-0.074 0.287,-0.01 0.406,-0.051c0.2,-0.069 0.339,-0.263 0.376,-0.46c0.016,-0.082 0.01,-0.145 0.039,-0.221c0.039,-0.103 0.111,-0.16 0.09,-0.293c-0.01,-0.062 -0.052,-0.12 -0.064,-0.187c-0.022,-0.114 0.002,-0.224 0,-0.337c-0.003,-0.2 0.017,-0.379 -0.078,-0.55c-0.38,-0.688 -1.236,-0.929 -1.975,-0.789c-0.18,0.034 -0.287,0.126 -0.442,0.207c-0.17,0.088 -0.139,0.166 -0.318,0.224c-0.081,0.026 -0.216,0.124 -0.215,0.224c0.001,0.115 0.005,0.051 0.012,0.169c-0.021,0.011 -0.021,-0.005 -0.03,-0.025"/>
     <path id="svg_46" fill="#FFFFFF" d="m31.137,-48.695c0.018,0.072 0.007,0.127 -0.026,0.19c-0.053,0.101 -0.112,0.062 -0.165,0.128c-0.05,0.062 -0.099,0.276 -0.079,0.362c-0.169,0.058 -0.009,0.227 -0.015,0.35c-0.002,0.05 -0.041,0.105 -0.045,0.161c-0.01,0.119 0.017,0.266 0.068,0.37c0.097,0.198 0.268,0.413 0.435,0.544c0.19,0.148 0.365,0.572 0.608,0.631c0.177,0.042 0.384,-0.104 0.543,-0.143c0.18,-0.043 0.397,0.01 0.571,-0.053c0.222,-0.079 0.127,-0.337 0.288,-0.45c0.104,-0.074 0.287,-0.01 0.406,-0.051c0.2,-0.069 0.339,-0.263 0.376,-0.46c0.016,-0.082 0.01,-0.145 0.039,-0.221c0.039,-0.103 0.111,-0.16 0.09,-0.293c-0.01,-0.062 -0.052,-0.12 -0.064,-0.187c-0.022,-0.114 0.002,-0.224 0,-0.337c-0.003,-0.2 0.017,-0.379 -0.078,-0.55c-0.38,-0.688 -1.236,-0.929 -1.975,-0.789c-0.18,0.034 -0.287,0.126 -0.442,0.207c-0.17,0.088 -0.139,0.166 -0.318,0.224c-0.081,0.026 -0.216,0.124 -0.215,0.224c0.001,0.115 0.005,0.051 0.012,0.169c-0.021,0.011 -0.021,-0.005 -0.03,-0.025"/>
     <path id="svg_47" fill="#FFFFFF" d="m23.477,-48.695c0.018,0.072 0.007,0.127 -0.026,0.19c-0.053,0.101 -0.112,0.062 -0.165,0.128c-0.05,0.062 -0.099,0.276 -0.079,0.362c-0.169,0.058 -0.009,0.227 -0.015,0.35c-0.002,0.05 -0.041,0.105 -0.045,0.161c-0.01,0.119 0.017,0.266 0.068,0.37c0.097,0.198 0.268,0.413 0.435,0.544c0.19,0.148 0.365,0.572 0.608,0.631c0.177,0.042 0.384,-0.104 0.543,-0.143c0.18,-0.043 0.397,0.01 0.571,-0.053c0.222,-0.079 0.127,-0.337 0.288,-0.45c0.104,-0.074 0.287,-0.01 0.406,-0.051c0.2,-0.069 0.339,-0.263 0.376,-0.46c0.016,-0.082 0.01,-0.145 0.039,-0.221c0.039,-0.103 0.111,-0.16 0.09,-0.293c-0.01,-0.062 -0.052,-0.12 -0.064,-0.187c-0.022,-0.114 0.002,-0.224 0,-0.337c-0.003,-0.2 0.017,-0.379 -0.078,-0.55c-0.38,-0.688 -1.236,-0.929 -1.975,-0.789c-0.18,0.034 -0.287,0.126 -0.442,0.207c-0.17,0.088 -0.139,0.166 -0.318,0.224c-0.081,0.026 -0.216,0.124 -0.215,0.224c0.001,0.115 0.005,0.051 0.012,0.169c-0.021,0.011 -0.021,-0.005 -0.03,-0.025"/>
     <path id="svg_48" fill="#FFFFFF" d="m15.816,-48.695c0.018,0.072 0.007,0.127 -0.026,0.19c-0.053,0.101 -0.112,0.062 -0.165,0.128c-0.05,0.062 -0.099,0.276 -0.079,0.362c-0.169,0.058 -0.009,0.227 -0.015,0.35c-0.002,0.05 -0.041,0.105 -0.045,0.161c-0.01,0.119 0.017,0.266 0.068,0.37c0.097,0.198 0.268,0.413 0.435,0.544c0.19,0.148 0.365,0.572 0.608,0.631c0.177,0.042 0.384,-0.104 0.543,-0.143c0.18,-0.043 0.397,0.01 0.571,-0.053c0.222,-0.079 0.127,-0.337 0.288,-0.45c0.104,-0.074 0.287,-0.01 0.406,-0.051c0.2,-0.069 0.339,-0.263 0.376,-0.46c0.016,-0.082 0.01,-0.145 0.039,-0.221c0.039,-0.103 0.111,-0.16 0.09,-0.293c-0.01,-0.062 -0.052,-0.12 -0.064,-0.187c-0.022,-0.114 0.002,-0.224 0,-0.337c-0.003,-0.2 0.017,-0.379 -0.078,-0.55c-0.38,-0.688 -1.236,-0.929 -1.975,-0.789c-0.18,0.034 -0.287,0.126 -0.442,0.207c-0.17,0.088 -0.139,0.166 -0.318,0.224c-0.081,0.026 -0.216,0.124 -0.215,0.224c0.001,0.115 0.005,0.051 0.012,0.169c-0.021,0.011 -0.021,-0.005 -0.03,-0.025"/>
     <path id="svg_49" fill="#FFFFFF" d="m8.156,-48.695c0.018,0.072 0.007,0.127 -0.026,0.19c-0.053,0.101 -0.112,0.062 -0.165,0.128c-0.05,0.062 -0.099,0.276 -0.079,0.362c-0.169,0.058 -0.009,0.227 -0.015,0.35c-0.002,0.05 -0.041,0.105 -0.045,0.161c-0.01,0.119 0.017,0.266 0.068,0.37c0.097,0.198 0.268,0.413 0.435,0.544c0.19,0.148 0.365,0.572 0.608,0.631c0.177,0.042 0.384,-0.104 0.543,-0.143c0.18,-0.043 0.397,0.01 0.571,-0.053c0.222,-0.079 0.127,-0.337 0.288,-0.45c0.104,-0.074 0.287,-0.01 0.406,-0.051c0.2,-0.069 0.339,-0.263 0.376,-0.46c0.016,-0.082 0.01,-0.145 0.039,-0.221c0.039,-0.103 0.111,-0.16 0.09,-0.293c-0.01,-0.062 -0.052,-0.12 -0.064,-0.187c-0.022,-0.114 0.002,-0.224 0,-0.337c-0.003,-0.2 0.017,-0.379 -0.078,-0.55c-0.38,-0.688 -1.236,-0.929 -1.975,-0.789c-0.18,0.034 -0.287,0.126 -0.442,0.207c-0.17,0.088 -0.139,0.166 -0.318,0.224c-0.081,0.026 -0.216,0.124 -0.215,0.224c0.001,0.115 0.005,0.051 0.012,0.169c-0.021,0.011 -0.021,-0.005 -0.03,-0.025"/>
     <path id="svg_50" fill="#FFFFFF" d="m0.495,-48.695c0.018,0.072 0.007,0.127 -0.026,0.19c-0.053,0.101 -0.112,0.062 -0.165,0.128c-0.05,0.062 -0.099,0.276 -0.079,0.362c-0.169,0.058 -0.01,0.227 -0.015,0.35c-0.002,0.05 -0.041,0.105 -0.045,0.161c-0.01,0.119 0.017,0.266 0.068,0.37c0.097,0.198 0.268,0.413 0.435,0.544c0.19,0.148 0.365,0.572 0.608,0.631c0.177,0.042 0.384,-0.104 0.543,-0.143c0.18,-0.043 0.397,0.01 0.571,-0.053c0.222,-0.079 0.127,-0.337 0.288,-0.45c0.104,-0.074 0.287,-0.01 0.406,-0.051c0.2,-0.069 0.339,-0.263 0.376,-0.46c0.016,-0.082 0.01,-0.145 0.039,-0.221c0.039,-0.103 0.111,-0.16 0.09,-0.293c-0.01,-0.062 -0.052,-0.12 -0.064,-0.187c-0.022,-0.114 0.002,-0.224 0,-0.337c-0.003,-0.2 0.017,-0.379 -0.078,-0.55c-0.38,-0.688 -1.236,-0.929 -1.975,-0.789c-0.18,0.034 -0.287,0.126 -0.442,0.207c-0.17,0.088 -0.139,0.166 -0.318,0.224c-0.081,0.026 -0.216,0.124 -0.215,0.224c0.001,0.115 0.005,0.051 0.012,0.169c-0.021,0.011 -0.021,-0.005 -0.03,-0.025"/>
    </g>
    <g id="svg_51">
     <path id="svg_52" fill="#FFFFFF" d="m69.439,-41.042c0.018,0.072 0.007,0.127 -0.026,0.19c-0.053,0.101 -0.112,0.062 -0.165,0.128c-0.05,0.062 -0.099,0.276 -0.079,0.362c-0.169,0.058 -0.01,0.227 -0.015,0.35c-0.002,0.05 -0.041,0.105 -0.045,0.161c-0.01,0.119 0.017,0.266 0.068,0.37c0.097,0.198 0.268,0.413 0.435,0.544c0.19,0.148 0.365,0.572 0.608,0.631c0.177,0.042 0.384,-0.104 0.543,-0.143c0.18,-0.043 0.397,0.01 0.571,-0.053c0.222,-0.079 0.127,-0.337 0.288,-0.45c0.104,-0.074 0.287,-0.01 0.406,-0.051c0.2,-0.069 0.339,-0.263 0.376,-0.46c0.016,-0.082 0.01,-0.145 0.039,-0.221c0.039,-0.103 0.111,-0.16 0.09,-0.293c-0.01,-0.062 -0.052,-0.12 -0.064,-0.187c-0.022,-0.114 0.002,-0.224 0,-0.337c-0.003,-0.2 0.017,-0.379 -0.078,-0.55c-0.38,-0.688 -1.236,-0.929 -1.975,-0.789c-0.18,0.034 -0.287,0.126 -0.442,0.207c-0.17,0.088 -0.139,0.166 -0.318,0.224c-0.081,0.026 -0.216,0.124 -0.215,0.224c0.001,0.115 0.005,0.051 0.012,0.169c-0.021,0.011 -0.021,-0.005 -0.03,-0.025"/>
     <path id="svg_53" fill="#FFFFFF" d="m61.778,-41.042c0.018,0.072 0.007,0.127 -0.026,0.19c-0.053,0.101 -0.112,0.062 -0.165,0.128c-0.05,0.062 -0.099,0.276 -0.079,0.362c-0.169,0.058 -0.009,0.227 -0.015,0.35c-0.002,0.05 -0.041,0.105 -0.045,0.161c-0.01,0.119 0.017,0.266 0.068,0.37c0.097,0.198 0.268,0.413 0.435,0.544c0.19,0.148 0.365,0.572 0.608,0.631c0.177,0.042 0.384,-0.104 0.543,-0.143c0.18,-0.043 0.397,0.01 0.571,-0.053c0.222,-0.079 0.127,-0.337 0.288,-0.45c0.104,-0.074 0.287,-0.01 0.406,-0.051c0.2,-0.069 0.339,-0.263 0.376,-0.46c0.016,-0.082 0.01,-0.145 0.039,-0.221c0.039,-0.103 0.111,-0.16 0.09,-0.293c-0.01,-0.062 -0.052,-0.12 -0.064,-0.187c-0.022,-0.114 0.002,-0.224 0,-0.337c-0.003,-0.2 0.017,-0.379 -0.078,-0.55c-0.38,-0.688 -1.236,-0.929 -1.975,-0.789c-0.18,0.034 -0.287,0.126 -0.442,0.207c-0.17,0.088 -0.139,0.166 -0.318,0.224c-0.081,0.026 -0.216,0.124 -0.215,0.224c0.001,0.115 0.005,0.051 0.012,0.169c-0.021,0.011 -0.021,-0.005 -0.03,-0.025"/>
     <path id="svg_54" fill="#FFFFFF" d="m54.118,-41.042c0.018,0.072 0.007,0.127 -0.026,0.19c-0.053,0.101 -0.112,0.062 -0.165,0.128c-0.05,0.062 -0.099,0.276 -0.079,0.362c-0.169,0.058 -0.009,0.227 -0.015,0.35c-0.002,0.05 -0.041,0.105 -0.045,0.161c-0.01,0.119 0.017,0.266 0.068,0.37c0.097,0.198 0.268,0.413 0.435,0.544c0.19,0.148 0.365,0.572 0.608,0.631c0.177,0.042 0.384,-0.104 0.543,-0.143c0.18,-0.043 0.397,0.01 0.571,-0.053c0.222,-0.079 0.127,-0.337 0.288,-0.45c0.104,-0.074 0.287,-0.01 0.406,-0.051c0.2,-0.069 0.339,-0.263 0.376,-0.46c0.016,-0.082 0.01,-0.145 0.039,-0.221c0.039,-0.103 0.111,-0.16 0.09,-0.293c-0.01,-0.062 -0.052,-0.12 -0.064,-0.187c-0.022,-0.114 0.002,-0.224 0,-0.337c-0.003,-0.2 0.017,-0.379 -0.078,-0.55c-0.38,-0.688 -1.236,-0.929 -1.975,-0.789c-0.18,0.034 -0.287,0.126 -0.442,0.207c-0.17,0.088 -0.139,0.166 -0.318,0.224c-0.081,0.026 -0.216,0.124 -0.215,0.224c0.001,0.115 0.005,0.051 0.012,0.169c-0.021,0.011 -0.021,-0.005 -0.03,-0.025"/>
     <path id="svg_55" fill="#FFFFFF" d="m46.458,-41.042c0.018,0.072 0.007,0.127 -0.026,0.19c-0.053,0.101 -0.112,0.062 -0.165,0.128c-0.05,0.062 -0.099,0.276 -0.079,0.362c-0.169,0.058 -0.009,0.227 -0.015,0.35c-0.002,0.05 -0.041,0.105 -0.045,0.161c-0.01,0.119 0.017,0.266 0.068,0.37c0.097,0.198 0.268,0.413 0.435,0.544c0.19,0.148 0.365,0.572 0.608,0.631c0.177,0.042 0.384,-0.104 0.543,-0.143c0.18,-0.043 0.397,0.01 0.571,-0.053c0.222,-0.079 0.127,-0.337 0.288,-0.45c0.104,-0.074 0.287,-0.01 0.406,-0.051c0.2,-0.069 0.339,-0.263 0.376,-0.46c0.016,-0.082 0.01,-0.145 0.039,-0.221c0.039,-0.103 0.111,-0.16 0.09,-0.293c-0.01,-0.062 -0.052,-0.12 -0.064,-0.187c-0.022,-0.114 0.002,-0.224 0,-0.337c-0.003,-0.2 0.017,-0.379 -0.078,-0.55c-0.38,-0.688 -1.236,-0.929 -1.975,-0.789c-0.18,0.034 -0.287,0.126 -0.442,0.207c-0.17,0.088 -0.139,0.166 -0.318,0.224c-0.081,0.026 -0.216,0.124 -0.215,0.224c0.001,0.115 0.005,0.051 0.012,0.169c-0.021,0.011 -0.021,-0.005 -0.03,-0.025"/>
     <path id="svg_56" fill="#FFFFFF" d="m38.797,-41.042c0.018,0.072 0.007,0.127 -0.026,0.19c-0.053,0.101 -0.112,0.062 -0.165,0.128c-0.05,0.062 -0.099,0.276 -0.079,0.362c-0.169,0.058 -0.009,0.227 -0.015,0.35c-0.002,0.05 -0.041,0.105 -0.045,0.161c-0.01,0.119 0.017,0.266 0.068,0.37c0.097,0.198 0.268,0.413 0.435,0.544c0.19,0.148 0.365,0.572 0.608,0.631c0.177,0.042 0.384,-0.104 0.543,-0.143c0.18,-0.043 0.397,0.01 0.571,-0.053c0.222,-0.079 0.127,-0.337 0.288,-0.45c0.104,-0.074 0.287,-0.01 0.406,-0.051c0.2,-0.069 0.339,-0.263 0.376,-0.46c0.016,-0.082 0.01,-0.145 0.039,-0.221c0.039,-0.103 0.111,-0.16 0.09,-0.293c-0.01,-0.062 -0.052,-0.12 -0.064,-0.187c-0.022,-0.114 0.002,-0.224 0,-0.337c-0.003,-0.2 0.017,-0.379 -0.078,-0.55c-0.38,-0.688 -1.236,-0.929 -1.975,-0.789c-0.18,0.034 -0.287,0.126 -0.442,0.207c-0.17,0.088 -0.139,0.166 -0.318,0.224c-0.081,0.026 -0.216,0.124 -0.215,0.224c0.001,0.115 0.005,0.051 0.012,0.169c-0.021,0.011 -0.021,-0.005 -0.03,-0.025"/>
     <path id="svg_57" fill="#FFFFFF" d="m31.137,-41.042c0.018,0.072 0.007,0.127 -0.026,0.19c-0.053,0.101 -0.112,0.062 -0.165,0.128c-0.05,0.062 -0.099,0.276 -0.079,0.362c-0.169,0.058 -0.009,0.227 -0.015,0.35c-0.002,0.05 -0.041,0.105 -0.045,0.161c-0.01,0.119 0.017,0.266 0.068,0.37c0.097,0.198 0.268,0.413 0.435,0.544c0.19,0.148 0.365,0.572 0.608,0.631c0.177,0.042 0.384,-0.104 0.543,-0.143c0.18,-0.043 0.397,0.01 0.571,-0.053c0.222,-0.079 0.127,-0.337 0.288,-0.45c0.104,-0.074 0.287,-0.01 0.406,-0.051c0.2,-0.069 0.339,-0.263 0.376,-0.46c0.016,-0.082 0.01,-0.145 0.039,-0.221c0.039,-0.103 0.111,-0.16 0.09,-0.293c-0.01,-0.062 -0.052,-0.12 -0.064,-0.187c-0.022,-0.114 0.002,-0.224 0,-0.337c-0.003,-0.2 0.017,-0.379 -0.078,-0.55c-0.38,-0.688 -1.236,-0.929 -1.975,-0.789c-0.18,0.034 -0.287,0.126 -0.442,0.207c-0.17,0.088 -0.139,0.166 -0.318,0.224c-0.081,0.026 -0.216,0.124 -0.215,0.224c0.001,0.115 0.005,0.051 0.012,0.169c-0.021,0.011 -0.021,-0.005 -0.03,-0.025"/>
     <path id="svg_58" fill="#FFFFFF" d="m23.477,-41.042c0.018,0.072 0.007,0.127 -0.026,0.19c-0.053,0.101 -0.112,0.062 -0.165,0.128c-0.05,0.062 -0.099,0.276 -0.079,0.362c-0.169,0.058 -0.009,0.227 -0.015,0.35c-0.002,0.05 -0.041,0.105 -0.045,0.161c-0.01,0.119 0.017,0.266 0.068,0.37c0.097,0.198 0.268,0.413 0.435,0.544c0.19,0.148 0.365,0.572 0.608,0.631c0.177,0.042 0.384,-0.104 0.543,-0.143c0.18,-0.043 0.397,0.01 0.571,-0.053c0.222,-0.079 0.127,-0.337 0.288,-0.45c0.104,-0.074 0.287,-0.01 0.406,-0.051c0.2,-0.069 0.339,-0.263 0.376,-0.46c0.016,-0.082 0.01,-0.145 0.039,-0.221c0.039,-0.103 0.111,-0.16 0.09,-0.293c-0.01,-0.062 -0.052,-0.12 -0.064,-0.187c-0.022,-0.114 0.002,-0.224 0,-0.337c-0.003,-0.2 0.017,-0.379 -0.078,-0.55c-0.38,-0.688 -1.236,-0.929 -1.975,-0.789c-0.18,0.034 -0.287,0.126 -0.442,0.207c-0.17,0.088 -0.139,0.166 -0.318,0.224c-0.081,0.026 -0.216,0.124 -0.215,0.224c0.001,0.115 0.005,0.051 0.012,0.169c-0.021,0.011 -0.021,-0.005 -0.03,-0.025"/>
     <path id="svg_59" fill="#FFFFFF" d="m15.816,-41.042c0.018,0.072 0.007,0.127 -0.026,0.19c-0.053,0.101 -0.112,0.062 -0.165,0.128c-0.05,0.062 -0.099,0.276 -0.079,0.362c-0.169,0.058 -0.009,0.227 -0.015,0.35c-0.002,0.05 -0.041,0.105 -0.045,0.161c-0.01,0.119 0.017,0.266 0.068,0.37c0.097,0.198 0.268,0.413 0.435,0.544c0.19,0.148 0.365,0.572 0.608,0.631c0.177,0.042 0.384,-0.104 0.543,-0.143c0.18,-0.043 0.397,0.01 0.571,-0.053c0.222,-0.079 0.127,-0.337 0.288,-0.45c0.104,-0.074 0.287,-0.01 0.406,-0.051c0.2,-0.069 0.339,-0.263 0.376,-0.46c0.016,-0.082 0.01,-0.145 0.039,-0.221c0.039,-0.103 0.111,-0.16 0.09,-0.293c-0.01,-0.062 -0.052,-0.12 -0.064,-0.187c-0.022,-0.114 0.002,-0.224 0,-0.337c-0.003,-0.2 0.017,-0.379 -0.078,-0.55c-0.38,-0.688 -1.236,-0.929 -1.975,-0.789c-0.18,0.034 -0.287,0.126 -0.442,0.207c-0.17,0.088 -0.139,0.166 -0.318,0.224c-0.081,0.026 -0.216,0.124 -0.215,0.224c0.001,0.115 0.005,0.051 0.012,0.169c-0.021,0.011 -0.021,-0.005 -0.03,-0.025"/>
     <path id="svg_60" fill="#FFFFFF" d="m8.156,-41.042c0.018,0.072 0.007,0.127 -0.026,0.19c-0.053,0.101 -0.112,0.062 -0.165,0.128c-0.05,0.062 -0.099,0.276 -0.079,0.362c-0.169,0.058 -0.009,0.227 -0.015,0.35c-0.002,0.05 -0.041,0.105 -0.045,0.161c-0.01,0.119 0.017,0.266 0.068,0.37c0.097,0.198 0.268,0.413 0.435,0.544c0.19,0.148 0.365,0.572 0.608,0.631c0.177,0.042 0.384,-0.104 0.543,-0.143c0.18,-0.043 0.397,0.01 0.571,-0.053c0.222,-0.079 0.127,-0.337 0.288,-0.45c0.104,-0.074 0.287,-0.01 0.406,-0.051c0.2,-0.069 0.339,-0.263 0.376,-0.46c0.016,-0.082 0.01,-0.145 0.039,-0.221c0.039,-0.103 0.111,-0.16 0.09,-0.293c-0.01,-0.062 -0.052,-0.12 -0.064,-0.187c-0.022,-0.114 0.002,-0.224 0,-0.337c-0.003,-0.2 0.017,-0.379 -0.078,-0.55c-0.38,-0.688 -1.236,-0.929 -1.975,-0.789c-0.18,0.034 -0.287,0.126 -0.442,0.207c-0.17,0.088 -0.139,0.166 -0.318,0.224c-0.081,0.026 -0.216,0.124 -0.215,0.224c0.001,0.115 0.005,0.051 0.012,0.169c-0.02,0.012 -0.021,-0.004 -0.03,-0.024"/>
     <path id="svg_61" fill="#FFFFFF" d="m0.495,-41.042c0.018,0.072 0.007,0.127 -0.026,0.19c-0.053,0.101 -0.112,0.062 -0.165,0.128c-0.05,0.062 -0.099,0.276 -0.079,0.362c-0.169,0.058 -0.01,0.227 -0.015,0.35c-0.002,0.05 -0.041,0.105 -0.045,0.161c-0.01,0.119 0.017,0.266 0.068,0.37c0.097,0.198 0.268,0.413 0.435,0.544c0.19,0.148 0.365,0.572 0.608,0.631c0.177,0.042 0.384,-0.104 0.543,-0.143c0.18,-0.043 0.397,0.01 0.571,-0.053c0.222,-0.079 0.127,-0.337 0.288,-0.45c0.104,-0.074 0.287,-0.01 0.406,-0.051c0.2,-0.069 0.339,-0.263 0.376,-0.46c0.016,-0.082 0.01,-0.145 0.039,-0.221c0.039,-0.103 0.111,-0.16 0.09,-0.293c-0.01,-0.062 -0.052,-0.12 -0.064,-0.187c-0.022,-0.114 0.002,-0.224 0,-0.337c-0.003,-0.2 0.017,-0.379 -0.078,-0.55c-0.38,-0.688 -1.236,-0.929 -1.975,-0.789c-0.18,0.034 -0.287,0.126 -0.442,0.207c-0.17,0.088 -0.139,0.166 -0.318,0.224c-0.081,0.026 -0.216,0.124 -0.215,0.224c0.001,0.115 0.005,0.051 0.012,0.169c-0.021,0.011 -0.021,-0.005 -0.03,-0.025"/>
    </g>
    <g id="svg_62">
     <path id="svg_63" fill="#FFFFFF" d="m69.439,-33.39c0.018,0.072 0.007,0.127 -0.026,0.19c-0.053,0.101 -0.112,0.062 -0.165,0.128c-0.05,0.062 -0.099,0.276 -0.079,0.362c-0.169,0.058 -0.01,0.227 -0.015,0.35c-0.002,0.05 -0.041,0.105 -0.045,0.161c-0.01,0.119 0.017,0.266 0.068,0.37c0.097,0.198 0.268,0.413 0.435,0.544c0.19,0.148 0.365,0.572 0.608,0.631c0.177,0.042 0.384,-0.104 0.543,-0.143c0.18,-0.043 0.397,0.01 0.571,-0.053c0.222,-0.079 0.127,-0.337 0.288,-0.45c0.104,-0.074 0.287,-0.01 0.406,-0.051c0.2,-0.069 0.339,-0.263 0.376,-0.46c0.016,-0.082 0.01,-0.145 0.039,-0.221c0.039,-0.103 0.111,-0.16 0.09,-0.293c-0.01,-0.062 -0.052,-0.12 -0.064,-0.187c-0.022,-0.114 0.002,-0.224 0,-0.337c-0.003,-0.2 0.017,-0.379 -0.078,-0.55c-0.38,-0.688 -1.236,-0.929 -1.975,-0.789c-0.18,0.034 -0.287,0.126 -0.442,0.207c-0.17,0.088 -0.139,0.166 -0.318,0.224c-0.081,0.026 -0.216,0.124 -0.215,0.224c0.001,0.115 0.005,0.051 0.012,0.169c-0.021,0.011 -0.021,-0.005 -0.03,-0.025"/>
     <path id="svg_64" fill="#FFFFFF" d="m61.778,-33.39c0.018,0.072 0.007,0.127 -0.026,0.19c-0.053,0.101 -0.112,0.062 -0.165,0.128c-0.05,0.062 -0.099,0.276 -0.079,0.362c-0.169,0.058 -0.009,0.227 -0.015,0.35c-0.002,0.05 -0.041,0.105 -0.045,0.161c-0.01,0.119 0.017,0.266 0.068,0.37c0.097,0.198 0.268,0.413 0.435,0.544c0.19,0.148 0.365,0.572 0.608,0.631c0.177,0.042 0.384,-0.104 0.543,-0.143c0.18,-0.043 0.397,0.01 0.571,-0.053c0.222,-0.079 0.127,-0.337 0.288,-0.45c0.104,-0.074 0.287,-0.01 0.406,-0.051c0.2,-0.069 0.339,-0.263 0.376,-0.46c0.016,-0.082 0.01,-0.145 0.039,-0.221c0.039,-0.103 0.111,-0.16 0.09,-0.293c-0.01,-0.062 -0.052,-0.12 -0.064,-0.187c-0.022,-0.114 0.002,-0.224 0,-0.337c-0.003,-0.2 0.017,-0.379 -0.078,-0.55c-0.38,-0.688 -1.236,-0.929 -1.975,-0.789c-0.18,0.034 -0.287,0.126 -0.442,0.207c-0.17,0.088 -0.139,0.166 -0.318,0.224c-0.081,0.026 -0.216,0.124 -0.215,0.224c0.001,0.115 0.005,0.051 0.012,0.169c-0.021,0.011 -0.021,-0.005 -0.03,-0.025"/>
     <path id="svg_65" fill="#FFFFFF" d="m54.118,-33.39c0.018,0.072 0.007,0.127 -0.026,0.19c-0.053,0.101 -0.112,0.062 -0.165,0.128c-0.05,0.062 -0.099,0.276 -0.079,0.362c-0.169,0.058 -0.009,0.227 -0.015,0.35c-0.002,0.05 -0.041,0.105 -0.045,0.161c-0.01,0.119 0.017,0.266 0.068,0.37c0.097,0.198 0.268,0.413 0.435,0.544c0.19,0.148 0.365,0.572 0.608,0.631c0.177,0.042 0.384,-0.104 0.543,-0.143c0.18,-0.043 0.397,0.01 0.571,-0.053c0.222,-0.079 0.127,-0.337 0.288,-0.45c0.104,-0.074 0.287,-0.01 0.406,-0.051c0.2,-0.069 0.339,-0.263 0.376,-0.46c0.016,-0.082 0.01,-0.145 0.039,-0.221c0.039,-0.103 0.111,-0.16 0.09,-0.293c-0.01,-0.062 -0.052,-0.12 -0.064,-0.187c-0.022,-0.114 0.002,-0.224 0,-0.337c-0.003,-0.2 0.017,-0.379 -0.078,-0.55c-0.38,-0.688 -1.236,-0.929 -1.975,-0.789c-0.18,0.034 -0.287,0.126 -0.442,0.207c-0.17,0.088 -0.139,0.166 -0.318,0.224c-0.081,0.026 -0.216,0.124 -0.215,0.224c0.001,0.115 0.005,0.051 0.012,0.169c-0.021,0.011 -0.021,-0.005 -0.03,-0.025"/>
     <path id="svg_66" fill="#FFFFFF" d="m46.458,-33.39c0.018,0.072 0.007,0.127 -0.026,0.19c-0.053,0.101 -0.112,0.062 -0.165,0.128c-0.05,0.062 -0.099,0.276 -0.079,0.362c-0.169,0.058 -0.009,0.227 -0.015,0.35c-0.002,0.05 -0.041,0.105 -0.045,0.161c-0.01,0.119 0.017,0.266 0.068,0.37c0.097,0.198 0.268,0.413 0.435,0.544c0.19,0.148 0.365,0.572 0.608,0.631c0.177,0.042 0.384,-0.104 0.543,-0.143c0.18,-0.043 0.397,0.01 0.571,-0.053c0.222,-0.079 0.127,-0.337 0.288,-0.45c0.104,-0.074 0.287,-0.01 0.406,-0.051c0.2,-0.069 0.339,-0.263 0.376,-0.46c0.016,-0.082 0.01,-0.145 0.039,-0.221c0.039,-0.103 0.111,-0.16 0.09,-0.293c-0.01,-0.062 -0.052,-0.12 -0.064,-0.187c-0.022,-0.114 0.002,-0.224 0,-0.337c-0.003,-0.2 0.017,-0.379 -0.078,-0.55c-0.38,-0.688 -1.236,-0.929 -1.975,-0.789c-0.18,0.034 -0.287,0.126 -0.442,0.207c-0.17,0.088 -0.139,0.166 -0.318,0.224c-0.081,0.026 -0.216,0.124 -0.215,0.224c0.001,0.115 0.005,0.051 0.012,0.169c-0.021,0.011 -0.021,-0.005 -0.03,-0.025"/>
     <path id="svg_67" fill="#FFFFFF" d="m38.797,-33.39c0.018,0.072 0.007,0.127 -0.026,0.19c-0.053,0.101 -0.112,0.062 -0.165,0.128c-0.05,0.062 -0.099,0.276 -0.079,0.362c-0.169,0.058 -0.009,0.227 -0.015,0.35c-0.002,0.05 -0.041,0.105 -0.045,0.161c-0.01,0.119 0.017,0.266 0.068,0.37c0.097,0.198 0.268,0.413 0.435,0.544c0.19,0.148 0.365,0.572 0.608,0.631c0.177,0.042 0.384,-0.104 0.543,-0.143c0.18,-0.043 0.397,0.01 0.571,-0.053c0.222,-0.079 0.127,-0.337 0.288,-0.45c0.104,-0.074 0.287,-0.01 0.406,-0.051c0.2,-0.069 0.339,-0.263 0.376,-0.46c0.016,-0.082 0.01,-0.145 0.039,-0.221c0.039,-0.103 0.111,-0.16 0.09,-0.293c-0.01,-0.062 -0.052,-0.12 -0.064,-0.187c-0.022,-0.114 0.002,-0.224 0,-0.337c-0.003,-0.2 0.017,-0.379 -0.078,-0.55c-0.38,-0.688 -1.236,-0.929 -1.975,-0.789c-0.18,0.034 -0.287,0.126 -0.442,0.207c-0.17,0.088 -0.139,0.166 -0.318,0.224c-0.081,0.026 -0.216,0.124 -0.215,0.224c0.001,0.115 0.005,0.051 0.012,0.169c-0.021,0.011 -0.021,-0.005 -0.03,-0.025"/>
     <path id="svg_68" fill="#FFFFFF" d="m31.137,-33.39c0.018,0.072 0.007,0.127 -0.026,0.19c-0.053,0.101 -0.112,0.062 -0.165,0.128c-0.05,0.062 -0.099,0.276 -0.079,0.362c-0.169,0.058 -0.009,0.227 -0.015,0.35c-0.002,0.05 -0.041,0.105 -0.045,0.161c-0.01,0.119 0.017,0.266 0.068,0.37c0.097,0.198 0.268,0.413 0.435,0.544c0.19,0.148 0.365,0.572 0.608,0.631c0.177,0.042 0.384,-0.104 0.543,-0.143c0.18,-0.043 0.397,0.01 0.571,-0.053c0.222,-0.079 0.127,-0.337 0.288,-0.45c0.104,-0.074 0.287,-0.01 0.406,-0.051c0.2,-0.069 0.339,-0.263 0.376,-0.46c0.016,-0.082 0.01,-0.145 0.039,-0.221c0.039,-0.103 0.111,-0.16 0.09,-0.293c-0.01,-0.062 -0.052,-0.12 -0.064,-0.187c-0.022,-0.114 0.002,-0.224 0,-0.337c-0.003,-0.2 0.017,-0.379 -0.078,-0.55c-0.38,-0.688 -1.236,-0.929 -1.975,-0.789c-0.18,0.034 -0.287,0.126 -0.442,0.207c-0.17,0.088 -0.139,0.166 -0.318,0.224c-0.081,0.026 -0.216,0.124 -0.215,0.224c0.001,0.115 0.005,0.051 0.012,0.169c-0.021,0.011 -0.021,-0.005 -0.03,-0.025"/>
     <path id="svg_69" fill="#FFFFFF" d="m23.477,-33.39c0.018,0.072 0.007,0.127 -0.026,0.19c-0.053,0.101 -0.112,0.062 -0.165,0.128c-0.05,0.062 -0.099,0.276 -0.079,0.362c-0.169,0.058 -0.009,0.227 -0.015,0.35c-0.002,0.05 -0.041,0.105 -0.045,0.161c-0.01,0.119 0.017,0.266 0.068,0.37c0.097,0.198 0.268,0.413 0.435,0.544c0.19,0.148 0.365,0.572 0.608,0.631c0.177,0.042 0.384,-0.104 0.543,-0.143c0.18,-0.043 0.397,0.01 0.571,-0.053c0.222,-0.079 0.127,-0.337 0.288,-0.45c0.104,-0.074 0.287,-0.01 0.406,-0.051c0.2,-0.069 0.339,-0.263 0.376,-0.46c0.016,-0.082 0.01,-0.145 0.039,-0.221c0.039,-0.103 0.111,-0.16 0.09,-0.293c-0.01,-0.062 -0.052,-0.12 -0.064,-0.187c-0.022,-0.114 0.002,-0.224 0,-0.337c-0.003,-0.2 0.017,-0.379 -0.078,-0.55c-0.38,-0.688 -1.236,-0.929 -1.975,-0.789c-0.18,0.034 -0.287,0.126 -0.442,0.207c-0.17,0.088 -0.139,0.166 -0.318,0.224c-0.081,0.026 -0.216,0.124 -0.215,0.224c0.001,0.115 0.005,0.051 0.012,0.169c-0.021,0.011 -0.021,-0.005 -0.03,-0.025"/>
     <path id="svg_70" fill="#FFFFFF" d="m15.816,-33.39c0.018,0.072 0.007,0.127 -0.026,0.19c-0.053,0.101 -0.112,0.062 -0.165,0.128c-0.05,0.062 -0.099,0.276 -0.079,0.362c-0.169,0.058 -0.009,0.227 -0.015,0.35c-0.002,0.05 -0.041,0.105 -0.045,0.161c-0.01,0.119 0.017,0.266 0.068,0.37c0.097,0.198 0.268,0.413 0.435,0.544c0.19,0.148 0.365,0.572 0.608,0.631c0.177,0.042 0.384,-0.104 0.543,-0.143c0.18,-0.043 0.397,0.01 0.571,-0.053c0.222,-0.079 0.127,-0.337 0.288,-0.45c0.104,-0.074 0.287,-0.01 0.406,-0.051c0.2,-0.069 0.339,-0.263 0.376,-0.46c0.016,-0.082 0.01,-0.145 0.039,-0.221c0.039,-0.103 0.111,-0.16 0.09,-0.293c-0.01,-0.062 -0.052,-0.12 -0.064,-0.187c-0.022,-0.114 0.002,-0.224 0,-0.337c-0.003,-0.2 0.017,-0.379 -0.078,-0.55c-0.38,-0.688 -1.236,-0.929 -1.975,-0.789c-0.18,0.034 -0.287,0.126 -0.442,0.207c-0.17,0.088 -0.139,0.166 -0.318,0.224c-0.081,0.026 -0.216,0.124 -0.215,0.224c0.001,0.115 0.005,0.051 0.012,0.169c-0.021,0.011 -0.021,-0.005 -0.03,-0.025"/>
     <path id="svg_71" fill="#FFFFFF" d="m8.156,-33.39c0.018,0.072 0.007,0.127 -0.026,0.19c-0.053,0.101 -0.112,0.062 -0.165,0.128c-0.05,0.062 -0.099,0.276 -0.079,0.362c-0.169,0.058 -0.009,0.227 -0.015,0.35c-0.002,0.05 -0.041,0.105 -0.045,0.161c-0.01,0.119 0.017,0.266 0.068,0.37c0.097,0.198 0.268,0.413 0.435,0.544c0.19,0.148 0.365,0.572 0.608,0.631c0.177,0.042 0.384,-0.104 0.543,-0.143c0.18,-0.043 0.397,0.01 0.571,-0.053c0.222,-0.079 0.127,-0.337 0.288,-0.45c0.104,-0.074 0.287,-0.01 0.406,-0.051c0.2,-0.069 0.339,-0.263 0.376,-0.46c0.016,-0.082 0.01,-0.145 0.039,-0.221c0.039,-0.103 0.111,-0.16 0.09,-0.293c-0.01,-0.062 -0.052,-0.12 -0.064,-0.187c-0.022,-0.114 0.002,-0.224 0,-0.337c-0.003,-0.2 0.017,-0.379 -0.078,-0.55c-0.38,-0.688 -1.236,-0.929 -1.975,-0.789c-0.18,0.034 -0.287,0.126 -0.442,0.207c-0.17,0.088 -0.139,0.166 -0.318,0.224c-0.081,0.026 -0.216,0.124 -0.215,0.224c0.001,0.115 0.005,0.051 0.012,0.169c-0.021,0.011 -0.021,-0.005 -0.03,-0.025"/>
     <path id="svg_72" fill="#FFFFFF" d="m0.495,-33.39c0.018,0.072 0.007,0.127 -0.026,0.19c-0.053,0.101 -0.112,0.062 -0.165,0.128c-0.05,0.062 -0.099,0.276 -0.079,0.362c-0.169,0.058 -0.01,0.227 -0.015,0.35c-0.002,0.05 -0.041,0.105 -0.045,0.161c-0.01,0.119 0.017,0.266 0.068,0.37c0.097,0.198 0.268,0.413 0.435,0.544c0.19,0.148 0.365,0.572 0.608,0.631c0.177,0.042 0.384,-0.104 0.543,-0.143c0.18,-0.043 0.397,0.01 0.571,-0.053c0.222,-0.079 0.127,-0.337 0.288,-0.45c0.104,-0.074 0.287,-0.01 0.406,-0.051c0.2,-0.069 0.339,-0.263 0.376,-0.46c0.016,-0.082 0.01,-0.145 0.039,-0.221c0.039,-0.103 0.111,-0.16 0.09,-0.293c-0.01,-0.062 -0.052,-0.12 -0.064,-0.187c-0.022,-0.114 0.002,-0.224 0,-0.337c-0.003,-0.2 0.017,-0.379 -0.078,-0.55c-0.38,-0.688 -1.236,-0.929 -1.975,-0.789c-0.18,0.034 -0.287,0.126 -0.442,0.207c-0.17,0.088 -0.139,0.166 -0.318,0.224c-0.081,0.026 -0.216,0.124 -0.215,0.224c0.003,0.117 0.006,0.053 0.013,0.171c-0.021,0.011 -0.021,-0.005 -0.03,-0.025"/>
    </g>
    <g id="svg_73">
     <path id="svg_74" fill="#FFFFFF" d="m69.439,-25.736c0.018,0.072 0.007,0.127 -0.026,0.19c-0.053,0.101 -0.112,0.062 -0.165,0.128c-0.05,0.062 -0.099,0.276 -0.079,0.362c-0.169,0.058 -0.01,0.227 -0.015,0.35c-0.002,0.05 -0.041,0.105 -0.045,0.161c-0.01,0.119 0.017,0.266 0.068,0.37c0.097,0.198 0.268,0.413 0.435,0.544c0.19,0.148 0.365,0.572 0.608,0.631c0.177,0.042 0.384,-0.104 0.543,-0.143c0.18,-0.043 0.397,0.01 0.571,-0.053c0.222,-0.079 0.127,-0.337 0.288,-0.45c0.104,-0.074 0.287,-0.01 0.406,-0.051c0.2,-0.069 0.339,-0.263 0.376,-0.46c0.016,-0.082 0.01,-0.145 0.039,-0.221c0.039,-0.103 0.111,-0.16 0.09,-0.293c-0.01,-0.062 -0.052,-0.12 -0.064,-0.187c-0.022,-0.114 0.002,-0.224 0,-0.337c-0.003,-0.2 0.017,-0.379 -0.078,-0.55c-0.38,-0.688 -1.236,-0.929 -1.975,-0.789c-0.18,0.034 -0.287,0.126 -0.442,0.207c-0.17,0.088 -0.139,0.166 -0.318,0.224c-0.081,0.026 -0.216,0.124 -0.215,0.224c0.001,0.115 0.005,0.051 0.012,0.169c-0.021,0.011 -0.021,-0.005 -0.03,-0.025"/>
     <path id="svg_75" fill="#FFFFFF" d="m61.778,-25.736c0.018,0.072 0.007,0.127 -0.026,0.19c-0.053,0.101 -0.112,0.062 -0.165,0.128c-0.05,0.062 -0.099,0.276 -0.079,0.362c-0.169,0.058 -0.009,0.227 -0.015,0.35c-0.002,0.05 -0.041,0.105 -0.045,0.161c-0.01,0.119 0.017,0.266 0.068,0.37c0.097,0.198 0.268,0.413 0.435,0.544c0.19,0.148 0.365,0.572 0.608,0.631c0.177,0.042 0.384,-0.104 0.543,-0.143c0.18,-0.043 0.397,0.01 0.571,-0.053c0.222,-0.079 0.127,-0.337 0.288,-0.45c0.104,-0.074 0.287,-0.01 0.406,-0.051c0.2,-0.069 0.339,-0.263 0.376,-0.46c0.016,-0.082 0.01,-0.145 0.039,-0.221c0.039,-0.103 0.111,-0.16 0.09,-0.293c-0.01,-0.062 -0.052,-0.12 -0.064,-0.187c-0.022,-0.114 0.002,-0.224 0,-0.337c-0.003,-0.2 0.017,-0.379 -0.078,-0.55c-0.38,-0.688 -1.236,-0.929 -1.975,-0.789c-0.18,0.034 -0.287,0.126 -0.442,0.207c-0.17,0.088 -0.139,0.166 -0.318,0.224c-0.081,0.026 -0.216,0.124 -0.215,0.224c0.001,0.115 0.005,0.051 0.012,0.169c-0.021,0.011 -0.021,-0.005 -0.03,-0.025"/>
     <path id="svg_76" fill="#FFFFFF" d="m54.118,-25.736c0.018,0.072 0.007,0.127 -0.026,0.19c-0.053,0.101 -0.112,0.062 -0.165,0.128c-0.05,0.062 -0.099,0.276 -0.079,0.362c-0.169,0.058 -0.009,0.227 -0.015,0.35c-0.002,0.05 -0.041,0.105 -0.045,0.161c-0.01,0.119 0.017,0.266 0.068,0.37c0.097,0.198 0.268,0.413 0.435,0.544c0.19,0.148 0.365,0.572 0.608,0.631c0.177,0.042 0.384,-0.104 0.543,-0.143c0.18,-0.043 0.397,0.01 0.571,-0.053c0.222,-0.079 0.127,-0.337 0.288,-0.45c0.104,-0.074 0.287,-0.01 0.406,-0.051c0.2,-0.069 0.339,-0.263 0.376,-0.46c0.016,-0.082 0.01,-0.145 0.039,-0.221c0.039,-0.103 0.111,-0.16 0.09,-0.293c-0.01,-0.062 -0.052,-0.12 -0.064,-0.187c-0.022,-0.114 0.002,-0.224 0,-0.337c-0.003,-0.2 0.017,-0.379 -0.078,-0.55c-0.38,-0.688 -1.236,-0.929 -1.975,-0.789c-0.18,0.034 -0.287,0.126 -0.442,0.207c-0.17,0.088 -0.139,0.166 -0.318,0.224c-0.081,0.026 -0.216,0.124 -0.215,0.224c0.001,0.115 0.005,0.051 0.012,0.169c-0.021,0.011 -0.021,-0.005 -0.03,-0.025"/>
     <path id="svg_77" fill="#FFFFFF" d="m46.458,-25.736c0.018,0.072 0.007,0.127 -0.026,0.19c-0.053,0.101 -0.112,0.062 -0.165,0.128c-0.05,0.062 -0.099,0.276 -0.079,0.362c-0.169,0.058 -0.009,0.227 -0.015,0.35c-0.002,0.05 -0.041,0.105 -0.045,0.161c-0.01,0.119 0.017,0.266 0.068,0.37c0.097,0.198 0.268,0.413 0.435,0.544c0.19,0.148 0.365,0.572 0.608,0.631c0.177,0.042 0.384,-0.104 0.543,-0.143c0.18,-0.043 0.397,0.01 0.571,-0.053c0.222,-0.079 0.127,-0.337 0.288,-0.45c0.104,-0.074 0.287,-0.01 0.406,-0.051c0.2,-0.069 0.339,-0.263 0.376,-0.46c0.016,-0.082 0.01,-0.145 0.039,-0.221c0.039,-0.103 0.111,-0.16 0.09,-0.293c-0.01,-0.062 -0.052,-0.12 -0.064,-0.187c-0.022,-0.114 0.002,-0.224 0,-0.337c-0.003,-0.2 0.017,-0.379 -0.078,-0.55c-0.38,-0.688 -1.236,-0.929 -1.975,-0.789c-0.18,0.034 -0.287,0.126 -0.442,0.207c-0.17,0.088 -0.139,0.166 -0.318,0.224c-0.081,0.026 -0.216,0.124 -0.215,0.224c0.001,0.115 0.005,0.051 0.012,0.169c-0.021,0.011 -0.021,-0.005 -0.03,-0.025"/>
     <path id="svg_78" fill="#FFFFFF" d="m38.797,-25.736c0.018,0.072 0.007,0.127 -0.026,0.19c-0.053,0.101 -0.112,0.062 -0.165,0.128c-0.05,0.062 -0.099,0.276 -0.079,0.362c-0.169,0.058 -0.009,0.227 -0.015,0.35c-0.002,0.05 -0.041,0.105 -0.045,0.161c-0.01,0.119 0.017,0.266 0.068,0.37c0.097,0.198 0.268,0.413 0.435,0.544c0.19,0.148 0.365,0.572 0.608,0.631c0.177,0.042 0.384,-0.104 0.543,-0.143c0.18,-0.043 0.397,0.01 0.571,-0.053c0.222,-0.079 0.127,-0.337 0.288,-0.45c0.104,-0.074 0.287,-0.01 0.406,-0.051c0.2,-0.069 0.339,-0.263 0.376,-0.46c0.016,-0.082 0.01,-0.145 0.039,-0.221c0.039,-0.103 0.111,-0.16 0.09,-0.293c-0.01,-0.062 -0.052,-0.12 -0.064,-0.187c-0.022,-0.114 0.002,-0.224 0,-0.337c-0.003,-0.2 0.017,-0.379 -0.078,-0.55c-0.38,-0.688 -1.236,-0.929 -1.975,-0.789c-0.18,0.034 -0.287,0.126 -0.442,0.207c-0.17,0.088 -0.139,0.166 -0.318,0.224c-0.081,0.026 -0.216,0.124 -0.215,0.224c0.001,0.115 0.005,0.051 0.012,0.169c-0.021,0.011 -0.021,-0.005 -0.03,-0.025"/>
     <path id="svg_79" fill="#FFFFFF" d="m31.137,-25.736c0.018,0.072 0.007,0.127 -0.026,0.19c-0.053,0.101 -0.112,0.062 -0.165,0.128c-0.05,0.062 -0.099,0.276 -0.079,0.362c-0.169,0.058 -0.009,0.227 -0.015,0.35c-0.002,0.05 -0.041,0.105 -0.045,0.161c-0.01,0.119 0.017,0.266 0.068,0.37c0.097,0.198 0.268,0.413 0.435,0.544c0.19,0.148 0.365,0.572 0.608,0.631c0.177,0.042 0.384,-0.104 0.543,-0.143c0.18,-0.043 0.397,0.01 0.571,-0.053c0.222,-0.079 0.127,-0.337 0.288,-0.45c0.104,-0.074 0.287,-0.01 0.406,-0.051c0.2,-0.069 0.339,-0.263 0.376,-0.46c0.016,-0.082 0.01,-0.145 0.039,-0.221c0.039,-0.103 0.111,-0.16 0.09,-0.293c-0.01,-0.062 -0.052,-0.12 -0.064,-0.187c-0.022,-0.114 0.002,-0.224 0,-0.337c-0.003,-0.2 0.017,-0.379 -0.078,-0.55c-0.38,-0.688 -1.236,-0.929 -1.975,-0.789c-0.18,0.034 -0.287,0.126 -0.442,0.207c-0.17,0.088 -0.139,0.166 -0.318,0.224c-0.081,0.026 -0.216,0.124 -0.215,0.224c0.001,0.115 0.005,0.051 0.012,0.169c-0.021,0.011 -0.021,-0.005 -0.03,-0.025"/>
     <path id="svg_80" fill="#FFFFFF" d="m23.477,-25.736c0.018,0.072 0.007,0.127 -0.026,0.19c-0.053,0.101 -0.112,0.062 -0.165,0.128c-0.05,0.062 -0.099,0.276 -0.079,0.362c-0.169,0.058 -0.009,0.227 -0.015,0.35c-0.002,0.05 -0.041,0.105 -0.045,0.161c-0.01,0.119 0.017,0.266 0.068,0.37c0.097,0.198 0.268,0.413 0.435,0.544c0.19,0.148 0.365,0.572 0.608,0.631c0.177,0.042 0.384,-0.104 0.543,-0.143c0.18,-0.043 0.397,0.01 0.571,-0.053c0.222,-0.079 0.127,-0.337 0.288,-0.45c0.104,-0.074 0.287,-0.01 0.406,-0.051c0.2,-0.069 0.339,-0.263 0.376,-0.46c0.016,-0.082 0.01,-0.145 0.039,-0.221c0.039,-0.103 0.111,-0.16 0.09,-0.293c-0.01,-0.062 -0.052,-0.12 -0.064,-0.187c-0.022,-0.114 0.002,-0.224 0,-0.337c-0.003,-0.2 0.017,-0.379 -0.078,-0.55c-0.38,-0.688 -1.236,-0.929 -1.975,-0.789c-0.18,0.034 -0.287,0.126 -0.442,0.207c-0.17,0.088 -0.139,0.166 -0.318,0.224c-0.081,0.026 -0.216,0.124 -0.215,0.224c0.001,0.115 0.005,0.051 0.012,0.169c-0.021,0.011 -0.021,-0.005 -0.03,-0.025"/>
     <path id="svg_81" fill="#FFFFFF" d="m15.816,-25.736c0.018,0.072 0.007,0.127 -0.026,0.19c-0.053,0.101 -0.112,0.062 -0.165,0.128c-0.05,0.062 -0.099,0.276 -0.079,0.362c-0.169,0.058 -0.009,0.227 -0.015,0.35c-0.002,0.05 -0.041,0.105 -0.045,0.161c-0.01,0.119 0.017,0.266 0.068,0.37c0.097,0.198 0.268,0.413 0.435,0.544c0.19,0.148 0.365,0.572 0.608,0.631c0.177,0.042 0.384,-0.104 0.543,-0.143c0.18,-0.043 0.397,0.01 0.571,-0.053c0.222,-0.079 0.127,-0.337 0.288,-0.45c0.104,-0.074 0.287,-0.01 0.406,-0.051c0.2,-0.069 0.339,-0.263 0.376,-0.46c0.016,-0.082 0.01,-0.145 0.039,-0.221c0.039,-0.103 0.111,-0.16 0.09,-0.293c-0.01,-0.062 -0.052,-0.12 -0.064,-0.187c-0.022,-0.114 0.002,-0.224 0,-0.337c-0.003,-0.2 0.017,-0.379 -0.078,-0.55c-0.38,-0.688 -1.236,-0.929 -1.975,-0.789c-0.18,0.034 -0.287,0.126 -0.442,0.207c-0.17,0.088 -0.139,0.166 -0.318,0.224c-0.081,0.026 -0.216,0.124 -0.215,0.224c0.001,0.115 0.005,0.051 0.012,0.169c-0.021,0.011 -0.021,-0.005 -0.03,-0.025"/>
     <path id="svg_82" fill="#FFFFFF" d="m8.156,-25.736c0.018,0.072 0.007,0.127 -0.026,0.19c-0.053,0.101 -0.112,0.062 -0.165,0.128c-0.05,0.062 -0.099,0.276 -0.079,0.362c-0.169,0.058 -0.009,0.227 -0.015,0.35c-0.002,0.05 -0.041,0.105 -0.045,0.161c-0.01,0.119 0.017,0.266 0.068,0.37c0.097,0.198 0.268,0.413 0.435,0.544c0.19,0.148 0.365,0.572 0.608,0.631c0.177,0.042 0.384,-0.104 0.543,-0.143c0.18,-0.043 0.397,0.01 0.571,-0.053c0.222,-0.079 0.127,-0.337 0.288,-0.45c0.104,-0.074 0.287,-0.01 0.406,-0.051c0.2,-0.069 0.339,-0.263 0.376,-0.46c0.016,-0.082 0.01,-0.145 0.039,-0.221c0.039,-0.103 0.111,-0.16 0.09,-0.293c-0.01,-0.062 -0.052,-0.12 -0.064,-0.187c-0.022,-0.114 0.002,-0.224 0,-0.337c-0.003,-0.2 0.017,-0.379 -0.078,-0.55c-0.38,-0.688 -1.236,-0.929 -1.975,-0.789c-0.18,0.034 -0.287,0.126 -0.442,0.207c-0.17,0.088 -0.139,0.166 -0.318,0.224c-0.081,0.026 -0.216,0.124 -0.215,0.224c0.001,0.115 0.005,0.051 0.012,0.169c-0.021,0.011 -0.021,-0.005 -0.03,-0.025"/>
     <path id="svg_83" fill="#FFFFFF" d="m0.495,-25.736c0.018,0.072 0.007,0.127 -0.026,0.19c-0.053,0.101 -0.112,0.062 -0.165,0.128c-0.05,0.062 -0.099,0.276 -0.079,0.362c-0.169,0.058 -0.01,0.227 -0.015,0.35c-0.002,0.05 -0.041,0.105 -0.045,0.161c-0.01,0.119 0.017,0.266 0.068,0.37c0.097,0.198 0.268,0.413 0.435,0.544c0.19,0.148 0.365,0.572 0.608,0.631c0.177,0.042 0.384,-0.104 0.543,-0.143c0.18,-0.043 0.397,0.01 0.571,-0.053c0.222,-0.079 0.127,-0.337 0.288,-0.45c0.104,-0.074 0.287,-0.01 0.406,-0.051c0.2,-0.069 0.339,-0.263 0.376,-0.46c0.016,-0.082 0.01,-0.145 0.039,-0.221c0.039,-0.103 0.111,-0.16 0.09,-0.293c-0.01,-0.062 -0.052,-0.12 -0.064,-0.187c-0.022,-0.114 0.002,-0.224 0,-0.337c-0.003,-0.2 0.017,-0.379 -0.078,-0.55c-0.38,-0.688 -1.236,-0.929 -1.975,-0.789c-0.18,0.034 -0.287,0.126 -0.442,0.207c-0.17,0.088 -0.139,0.166 -0.318,0.224c-0.081,0.026 -0.216,0.124 -0.215,0.224c0.001,0.115 0.005,0.051 0.012,0.169c-0.021,0.011 -0.021,-0.005 -0.03,-0.025"/>
    </g>
    <g id="svg_84">
     <path id="svg_85" fill="#FFFFFF" d="m69.439,-18.084c0.018,0.072 0.007,0.127 -0.026,0.19c-0.053,0.101 -0.112,0.062 -0.165,0.128c-0.05,0.062 -0.099,0.276 -0.079,0.362c-0.169,0.058 -0.01,0.227 -0.015,0.35c-0.002,0.05 -0.041,0.105 -0.045,0.161c-0.01,0.119 0.017,0.266 0.068,0.37c0.097,0.198 0.268,0.413 0.435,0.544c0.19,0.148 0.365,0.572 0.608,0.631c0.177,0.042 0.384,-0.104 0.543,-0.143c0.18,-0.043 0.397,0.01 0.571,-0.053c0.222,-0.079 0.127,-0.337 0.288,-0.45c0.104,-0.074 0.287,-0.01 0.406,-0.051c0.2,-0.069 0.339,-0.263 0.376,-0.46c0.016,-0.082 0.01,-0.145 0.039,-0.221c0.039,-0.103 0.111,-0.16 0.09,-0.293c-0.01,-0.062 -0.052,-0.12 -0.064,-0.187c-0.022,-0.114 0.002,-0.224 0,-0.337c-0.003,-0.2 0.017,-0.379 -0.078,-0.55c-0.38,-0.688 -1.236,-0.929 -1.975,-0.789c-0.18,0.034 -0.287,0.126 -0.442,0.207c-0.17,0.088 -0.139,0.166 -0.318,0.224c-0.081,0.026 -0.216,0.124 -0.215,0.224c0.001,0.115 0.005,0.051 0.012,0.169c-0.021,0.011 -0.021,-0.005 -0.03,-0.025"/>
     <path id="svg_86" fill="#FFFFFF" d="m61.778,-18.084c0.018,0.072 0.007,0.127 -0.026,0.19c-0.053,0.101 -0.112,0.062 -0.165,0.128c-0.05,0.062 -0.099,0.276 -0.079,0.362c-0.169,0.058 -0.009,0.227 -0.015,0.35c-0.002,0.05 -0.041,0.105 -0.045,0.161c-0.01,0.119 0.017,0.266 0.068,0.37c0.097,0.198 0.268,0.413 0.435,0.544c0.19,0.148 0.365,0.572 0.608,0.631c0.177,0.042 0.384,-0.104 0.543,-0.143c0.18,-0.043 0.397,0.01 0.571,-0.053c0.222,-0.079 0.127,-0.337 0.288,-0.45c0.104,-0.074 0.287,-0.01 0.406,-0.051c0.2,-0.069 0.339,-0.263 0.376,-0.46c0.016,-0.082 0.01,-0.145 0.039,-0.221c0.039,-0.103 0.111,-0.16 0.09,-0.293c-0.01,-0.062 -0.052,-0.12 -0.064,-0.187c-0.022,-0.114 0.002,-0.224 0,-0.337c-0.003,-0.2 0.017,-0.379 -0.078,-0.55c-0.38,-0.688 -1.236,-0.929 -1.975,-0.789c-0.18,0.034 -0.287,0.126 -0.442,0.207c-0.17,0.088 -0.139,0.166 -0.318,0.224c-0.081,0.026 -0.216,0.124 -0.215,0.224c0.001,0.115 0.005,0.051 0.012,0.169c-0.021,0.011 -0.021,-0.005 -0.03,-0.025"/>
     <path id="svg_87" fill="#FFFFFF" d="m54.118,-18.084c0.018,0.072 0.007,0.127 -0.026,0.19c-0.053,0.101 -0.112,0.062 -0.165,0.128c-0.05,0.062 -0.099,0.276 -0.079,0.362c-0.169,0.058 -0.009,0.227 -0.015,0.35c-0.002,0.05 -0.041,0.105 -0.045,0.161c-0.01,0.119 0.017,0.266 0.068,0.37c0.097,0.198 0.268,0.413 0.435,0.544c0.19,0.148 0.365,0.572 0.608,0.631c0.177,0.042 0.384,-0.104 0.543,-0.143c0.18,-0.043 0.397,0.01 0.571,-0.053c0.222,-0.079 0.127,-0.337 0.288,-0.45c0.104,-0.074 0.287,-0.01 0.406,-0.051c0.2,-0.069 0.339,-0.263 0.376,-0.46c0.016,-0.082 0.01,-0.145 0.039,-0.221c0.039,-0.103 0.111,-0.16 0.09,-0.293c-0.01,-0.062 -0.052,-0.12 -0.064,-0.187c-0.022,-0.114 0.002,-0.224 0,-0.337c-0.003,-0.2 0.017,-0.379 -0.078,-0.55c-0.38,-0.688 -1.236,-0.929 -1.975,-0.789c-0.18,0.034 -0.287,0.126 -0.442,0.207c-0.17,0.088 -0.139,0.166 -0.318,0.224c-0.081,0.026 -0.216,0.124 -0.215,0.224c0.001,0.115 0.005,0.051 0.012,0.169c-0.021,0.011 -0.021,-0.005 -0.03,-0.025"/>
     <path id="svg_88" fill="#FFFFFF" d="m46.458,-18.084c0.018,0.072 0.007,0.127 -0.026,0.19c-0.053,0.101 -0.112,0.062 -0.165,0.128c-0.05,0.062 -0.099,0.276 -0.079,0.362c-0.169,0.058 -0.009,0.227 -0.015,0.35c-0.002,0.05 -0.041,0.105 -0.045,0.161c-0.01,0.119 0.017,0.266 0.068,0.37c0.097,0.198 0.268,0.413 0.435,0.544c0.19,0.148 0.365,0.572 0.608,0.631c0.177,0.042 0.384,-0.104 0.543,-0.143c0.18,-0.043 0.397,0.01 0.571,-0.053c0.222,-0.079 0.127,-0.337 0.288,-0.45c0.104,-0.074 0.287,-0.01 0.406,-0.051c0.2,-0.069 0.339,-0.263 0.376,-0.46c0.016,-0.082 0.01,-0.145 0.039,-0.221c0.039,-0.103 0.111,-0.16 0.09,-0.293c-0.01,-0.062 -0.052,-0.12 -0.064,-0.187c-0.022,-0.114 0.002,-0.224 0,-0.337c-0.003,-0.2 0.017,-0.379 -0.078,-0.55c-0.38,-0.688 -1.236,-0.929 -1.975,-0.789c-0.18,0.034 -0.287,0.126 -0.442,0.207c-0.17,0.088 -0.139,0.166 -0.318,0.224c-0.081,0.026 -0.216,0.124 -0.215,0.224c0.001,0.115 0.005,0.051 0.012,0.169c-0.021,0.011 -0.021,-0.005 -0.03,-0.025"/>
     <path id="svg_89" fill="#FFFFFF" d="m38.797,-18.084c0.018,0.072 0.007,0.127 -0.026,0.19c-0.053,0.101 -0.112,0.062 -0.165,0.128c-0.05,0.062 -0.099,0.276 -0.079,0.362c-0.169,0.058 -0.009,0.227 -0.015,0.35c-0.002,0.05 -0.041,0.105 -0.045,0.161c-0.01,0.119 0.017,0.266 0.068,0.37c0.097,0.198 0.268,0.413 0.435,0.544c0.19,0.148 0.365,0.572 0.608,0.631c0.177,0.042 0.384,-0.104 0.543,-0.143c0.18,-0.043 0.397,0.01 0.571,-0.053c0.222,-0.079 0.127,-0.337 0.288,-0.45c0.104,-0.074 0.287,-0.01 0.406,-0.051c0.2,-0.069 0.339,-0.263 0.376,-0.46c0.016,-0.082 0.01,-0.145 0.039,-0.221c0.039,-0.103 0.111,-0.16 0.09,-0.293c-0.01,-0.062 -0.052,-0.12 -0.064,-0.187c-0.022,-0.114 0.002,-0.224 0,-0.337c-0.003,-0.2 0.017,-0.379 -0.078,-0.55c-0.38,-0.688 -1.236,-0.929 -1.975,-0.789c-0.18,0.034 -0.287,0.126 -0.442,0.207c-0.17,0.088 -0.139,0.166 -0.318,0.224c-0.081,0.026 -0.216,0.124 -0.215,0.224c0.001,0.115 0.005,0.051 0.012,0.169c-0.021,0.011 -0.021,-0.005 -0.03,-0.025"/>
     <path id="svg_90" fill="#FFFFFF" d="m31.137,-18.084c0.018,0.072 0.007,0.127 -0.026,0.19c-0.053,0.101 -0.112,0.062 -0.165,0.128c-0.05,0.062 -0.099,0.276 -0.079,0.362c-0.169,0.058 -0.009,0.227 -0.015,0.35c-0.002,0.05 -0.041,0.105 -0.045,0.161c-0.01,0.119 0.017,0.266 0.068,0.37c0.097,0.198 0.268,0.413 0.435,0.544c0.19,0.148 0.365,0.572 0.608,0.631c0.177,0.042 0.384,-0.104 0.543,-0.143c0.18,-0.043 0.397,0.01 0.571,-0.053c0.222,-0.079 0.127,-0.337 0.288,-0.45c0.104,-0.074 0.287,-0.01 0.406,-0.051c0.2,-0.069 0.339,-0.263 0.376,-0.46c0.016,-0.082 0.01,-0.145 0.039,-0.221c0.039,-0.103 0.111,-0.16 0.09,-0.293c-0.01,-0.062 -0.052,-0.12 -0.064,-0.187c-0.022,-0.114 0.002,-0.224 0,-0.337c-0.003,-0.2 0.017,-0.379 -0.078,-0.55c-0.38,-0.688 -1.236,-0.929 -1.975,-0.789c-0.18,0.034 -0.287,0.126 -0.442,0.207c-0.17,0.088 -0.139,0.166 -0.318,0.224c-0.081,0.026 -0.216,0.124 -0.215,0.224c0.001,0.115 0.005,0.051 0.012,0.169c-0.021,0.011 -0.021,-0.005 -0.03,-0.025"/>
     <path id="svg_91" fill="#FFFFFF" d="m23.477,-18.084c0.018,0.072 0.007,0.127 -0.026,0.19c-0.053,0.101 -0.112,0.062 -0.165,0.128c-0.05,0.062 -0.099,0.276 -0.079,0.362c-0.169,0.058 -0.009,0.227 -0.015,0.35c-0.002,0.05 -0.041,0.105 -0.045,0.161c-0.01,0.119 0.017,0.266 0.068,0.37c0.097,0.198 0.268,0.413 0.435,0.544c0.19,0.148 0.365,0.572 0.608,0.631c0.177,0.042 0.384,-0.104 0.543,-0.143c0.18,-0.043 0.397,0.01 0.571,-0.053c0.222,-0.079 0.127,-0.337 0.288,-0.45c0.104,-0.074 0.287,-0.01 0.406,-0.051c0.2,-0.069 0.339,-0.263 0.376,-0.46c0.016,-0.082 0.01,-0.145 0.039,-0.221c0.039,-0.103 0.111,-0.16 0.09,-0.293c-0.01,-0.062 -0.052,-0.12 -0.064,-0.187c-0.022,-0.114 0.002,-0.224 0,-0.337c-0.003,-0.2 0.017,-0.379 -0.078,-0.55c-0.38,-0.688 -1.236,-0.929 -1.975,-0.789c-0.18,0.034 -0.287,0.126 -0.442,0.207c-0.17,0.088 -0.139,0.166 -0.318,0.224c-0.081,0.026 -0.216,0.124 -0.215,0.224c0.001,0.115 0.005,0.051 0.012,0.169c-0.021,0.011 -0.021,-0.005 -0.03,-0.025"/>
     <path id="svg_92" fill="#FFFFFF" d="m15.816,-18.084c0.018,0.072 0.007,0.127 -0.026,0.19c-0.053,0.101 -0.112,0.062 -0.165,0.128c-0.05,0.062 -0.099,0.276 -0.079,0.362c-0.169,0.058 -0.009,0.227 -0.015,0.35c-0.002,0.05 -0.041,0.105 -0.045,0.161c-0.01,0.119 0.017,0.266 0.068,0.37c0.097,0.198 0.268,0.413 0.435,0.544c0.19,0.148 0.365,0.572 0.608,0.631c0.177,0.042 0.384,-0.104 0.543,-0.143c0.18,-0.043 0.397,0.01 0.571,-0.053c0.222,-0.079 0.127,-0.337 0.288,-0.45c0.104,-0.074 0.287,-0.01 0.406,-0.051c0.2,-0.069 0.339,-0.263 0.376,-0.46c0.016,-0.082 0.01,-0.145 0.039,-0.221c0.039,-0.103 0.111,-0.16 0.09,-0.293c-0.01,-0.062 -0.052,-0.12 -0.064,-0.187c-0.022,-0.114 0.002,-0.224 0,-0.337c-0.003,-0.2 0.017,-0.379 -0.078,-0.55c-0.38,-0.688 -1.236,-0.929 -1.975,-0.789c-0.18,0.034 -0.287,0.126 -0.442,0.207c-0.17,0.088 -0.139,0.166 -0.318,0.224c-0.081,0.026 -0.216,0.124 -0.215,0.224c0.001,0.115 0.005,0.051 0.012,0.169c-0.021,0.011 -0.021,-0.005 -0.03,-0.025"/>
     <path id="svg_93" fill="#FFFFFF" d="m8.156,-18.084c0.018,0.072 0.007,0.127 -0.026,0.19c-0.053,0.101 -0.112,0.062 -0.165,0.128c-0.05,0.062 -0.099,0.276 -0.079,0.362c-0.169,0.058 -0.009,0.227 -0.015,0.35c-0.002,0.05 -0.041,0.105 -0.045,0.161c-0.01,0.119 0.017,0.266 0.068,0.37c0.097,0.198 0.268,0.413 0.435,0.544c0.19,0.148 0.365,0.572 0.608,0.631c0.177,0.042 0.384,-0.104 0.543,-0.143c0.18,-0.043 0.397,0.01 0.571,-0.053c0.222,-0.079 0.127,-0.337 0.288,-0.45c0.104,-0.074 0.287,-0.01 0.406,-0.051c0.2,-0.069 0.339,-0.263 0.376,-0.46c0.016,-0.082 0.01,-0.145 0.039,-0.221c0.039,-0.103 0.111,-0.16 0.09,-0.293c-0.01,-0.062 -0.052,-0.12 -0.064,-0.187c-0.022,-0.114 0.002,-0.224 0,-0.337c-0.003,-0.2 0.017,-0.379 -0.078,-0.55c-0.38,-0.688 -1.236,-0.929 -1.975,-0.789c-0.18,0.034 -0.287,0.126 -0.442,0.207c-0.17,0.088 -0.139,0.166 -0.318,0.224c-0.081,0.026 -0.216,0.124 -0.215,0.224c0.001,0.115 0.005,0.051 0.012,0.169c-0.021,0.011 -0.021,-0.005 -0.03,-0.025"/>
     <path id="svg_94" fill="#FFFFFF" d="m0.495,-18.084c0.018,0.072 0.007,0.127 -0.026,0.19c-0.053,0.101 -0.112,0.062 -0.165,0.128c-0.05,0.062 -0.099,0.276 -0.079,0.362c-0.169,0.058 -0.01,0.227 -0.015,0.35c-0.002,0.05 -0.041,0.105 -0.045,0.161c-0.01,0.119 0.017,0.266 0.068,0.37c0.097,0.198 0.268,0.413 0.435,0.544c0.19,0.148 0.365,0.572 0.608,0.631c0.177,0.042 0.384,-0.104 0.543,-0.143c0.18,-0.043 0.397,0.01 0.571,-0.053c0.222,-0.079 0.127,-0.337 0.288,-0.45c0.104,-0.074 0.287,-0.01 0.406,-0.051c0.2,-0.069 0.339,-0.263 0.376,-0.46c0.016,-0.082 0.01,-0.145 0.039,-0.221c0.039,-0.103 0.111,-0.16 0.09,-0.293c-0.01,-0.062 -0.052,-0.12 -0.064,-0.187c-0.022,-0.114 0.002,-0.224 0,-0.337c-0.003,-0.2 0.017,-0.379 -0.078,-0.55c-0.38,-0.688 -1.236,-0.929 -1.975,-0.789c-0.18,0.034 -0.287,0.126 -0.442,0.207c-0.17,0.088 -0.139,0.166 -0.318,0.224c-0.081,0.026 -0.216,0.124 -0.215,0.224c0.003,0.117 0.006,0.052 0.013,0.17c-0.021,0.011 -0.021,-0.005 -0.03,-0.025"/>
    </g>
    <g id="svg_95">
     <path id="svg_96" fill="#FFFFFF" d="m69.439,-10.431c0.018,0.072 0.007,0.127 -0.026,0.19c-0.053,0.101 -0.112,0.062 -0.165,0.128c-0.05,0.062 -0.099,0.276 -0.079,0.362c-0.169,0.059 -0.01,0.228 -0.015,0.351c-0.002,0.05 -0.041,0.105 -0.045,0.161c-0.01,0.119 0.017,0.266 0.068,0.37c0.097,0.198 0.268,0.413 0.435,0.544c0.19,0.148 0.365,0.572 0.608,0.631c0.177,0.042 0.384,-0.104 0.543,-0.143c0.18,-0.043 0.397,0.01 0.571,-0.053c0.222,-0.079 0.127,-0.337 0.288,-0.45c0.104,-0.074 0.287,-0.01 0.406,-0.051c0.2,-0.069 0.339,-0.263 0.376,-0.46c0.016,-0.082 0.01,-0.145 0.039,-0.221c0.039,-0.103 0.111,-0.16 0.09,-0.293c-0.01,-0.062 -0.052,-0.12 -0.064,-0.187c-0.022,-0.114 0.002,-0.224 0,-0.337c-0.003,-0.2 0.017,-0.379 -0.078,-0.55c-0.38,-0.688 -1.236,-0.929 -1.975,-0.789c-0.18,0.034 -0.287,0.126 -0.442,0.207c-0.17,0.088 -0.139,0.166 -0.318,0.224c-0.081,0.026 -0.216,0.124 -0.215,0.224c0.001,0.115 0.005,0.051 0.012,0.169c-0.021,0.011 -0.021,-0.005 -0.03,-0.025"/>
     <path id="svg_97" fill="#FFFFFF" d="m61.778,-10.431c0.018,0.072 0.007,0.127 -0.026,0.19c-0.053,0.101 -0.112,0.062 -0.165,0.128c-0.05,0.062 -0.099,0.276 -0.079,0.362c-0.169,0.058 -0.009,0.227 -0.015,0.35c-0.002,0.05 -0.041,0.105 -0.045,0.161c-0.01,0.119 0.017,0.266 0.068,0.37c0.097,0.198 0.268,0.413 0.435,0.544c0.19,0.148 0.365,0.572 0.608,0.631c0.177,0.042 0.384,-0.104 0.543,-0.143c0.18,-0.043 0.397,0.01 0.571,-0.053c0.222,-0.079 0.127,-0.337 0.288,-0.45c0.104,-0.074 0.287,-0.01 0.406,-0.051c0.2,-0.069 0.339,-0.263 0.376,-0.46c0.016,-0.082 0.01,-0.145 0.039,-0.221c0.039,-0.103 0.111,-0.16 0.09,-0.293c-0.01,-0.062 -0.052,-0.12 -0.064,-0.187c-0.022,-0.114 0.002,-0.224 0,-0.337c-0.003,-0.2 0.017,-0.379 -0.078,-0.55c-0.38,-0.688 -1.236,-0.929 -1.975,-0.789c-0.18,0.034 -0.287,0.126 -0.442,0.207c-0.17,0.088 -0.139,0.166 -0.318,0.224c-0.081,0.026 -0.216,0.124 -0.215,0.224c0.001,0.115 0.005,0.051 0.012,0.169c-0.021,0.011 -0.021,-0.005 -0.03,-0.025"/>
     <path id="svg_98" fill="#FFFFFF" d="m54.118,-10.431c0.018,0.072 0.007,0.127 -0.026,0.19c-0.053,0.101 -0.112,0.062 -0.165,0.128c-0.05,0.062 -0.099,0.276 -0.079,0.362c-0.169,0.058 -0.009,0.227 -0.015,0.35c-0.002,0.05 -0.041,0.105 -0.045,0.161c-0.01,0.119 0.017,0.266 0.068,0.37c0.097,0.198 0.268,0.413 0.435,0.544c0.19,0.148 0.365,0.572 0.608,0.631c0.177,0.042 0.384,-0.104 0.543,-0.143c0.18,-0.043 0.397,0.01 0.571,-0.053c0.222,-0.079 0.127,-0.337 0.288,-0.45c0.104,-0.074 0.287,-0.01 0.406,-0.051c0.2,-0.069 0.339,-0.263 0.376,-0.46c0.016,-0.082 0.01,-0.145 0.039,-0.221c0.039,-0.103 0.111,-0.16 0.09,-0.293c-0.01,-0.062 -0.052,-0.12 -0.064,-0.187c-0.022,-0.114 0.002,-0.224 0,-0.337c-0.003,-0.2 0.017,-0.379 -0.078,-0.55c-0.38,-0.688 -1.236,-0.929 -1.975,-0.789c-0.18,0.034 -0.287,0.126 -0.442,0.207c-0.17,0.088 -0.139,0.166 -0.318,0.224c-0.081,0.026 -0.216,0.124 -0.215,0.224c0.001,0.115 0.005,0.051 0.012,0.169c-0.021,0.011 -0.021,-0.005 -0.03,-0.025"/>
     <path id="svg_99" fill="#FFFFFF" d="m46.458,-10.431c0.018,0.072 0.007,0.127 -0.026,0.19c-0.053,0.101 -0.112,0.062 -0.165,0.128c-0.05,0.062 -0.099,0.276 -0.079,0.362c-0.169,0.058 -0.009,0.227 -0.015,0.35c-0.002,0.05 -0.041,0.105 -0.045,0.161c-0.01,0.119 0.017,0.266 0.068,0.37c0.097,0.198 0.268,0.413 0.435,0.544c0.19,0.148 0.365,0.572 0.608,0.631c0.177,0.042 0.384,-0.104 0.543,-0.143c0.18,-0.043 0.397,0.01 0.571,-0.053c0.222,-0.079 0.127,-0.337 0.288,-0.45c0.104,-0.074 0.287,-0.01 0.406,-0.051c0.2,-0.069 0.339,-0.263 0.376,-0.46c0.016,-0.082 0.01,-0.145 0.039,-0.221c0.039,-0.103 0.111,-0.16 0.09,-0.293c-0.01,-0.062 -0.052,-0.12 -0.064,-0.187c-0.022,-0.114 0.002,-0.224 0,-0.337c-0.003,-0.2 0.017,-0.379 -0.078,-0.55c-0.38,-0.688 -1.236,-0.929 -1.975,-0.789c-0.18,0.034 -0.287,0.126 -0.442,0.207c-0.17,0.088 -0.139,0.166 -0.318,0.224c-0.081,0.026 -0.216,0.124 -0.215,0.224c0.001,0.115 0.005,0.051 0.012,0.169c-0.021,0.011 -0.021,-0.005 -0.03,-0.025"/>
     <path id="svg_100" fill="#FFFFFF" d="m38.797,-10.431c0.018,0.072 0.007,0.127 -0.026,0.19c-0.053,0.101 -0.112,0.062 -0.165,0.128c-0.05,0.062 -0.099,0.276 -0.079,0.362c-0.169,0.058 -0.009,0.227 -0.015,0.35c-0.002,0.05 -0.041,0.105 -0.045,0.161c-0.01,0.119 0.017,0.266 0.068,0.37c0.097,0.198 0.268,0.413 0.435,0.544c0.19,0.148 0.365,0.572 0.608,0.631c0.177,0.042 0.384,-0.104 0.543,-0.143c0.18,-0.043 0.397,0.01 0.571,-0.053c0.222,-0.079 0.127,-0.337 0.288,-0.45c0.104,-0.074 0.287,-0.01 0.406,-0.051c0.2,-0.069 0.339,-0.263 0.376,-0.46c0.016,-0.082 0.01,-0.145 0.039,-0.221c0.039,-0.103 0.111,-0.16 0.09,-0.293c-0.01,-0.062 -0.052,-0.12 -0.064,-0.187c-0.022,-0.114 0.002,-0.224 0,-0.337c-0.003,-0.2 0.017,-0.379 -0.078,-0.55c-0.38,-0.688 -1.236,-0.929 -1.975,-0.789c-0.18,0.034 -0.287,0.126 -0.442,0.207c-0.17,0.088 -0.139,0.166 -0.318,0.224c-0.081,0.026 -0.216,0.124 -0.215,0.224c0.001,0.115 0.005,0.051 0.012,0.169c-0.021,0.011 -0.021,-0.005 -0.03,-0.025"/>
     <path id="svg_101" fill="#FFFFFF" d="m31.137,-10.431c0.018,0.072 0.007,0.127 -0.026,0.19c-0.053,0.101 -0.112,0.062 -0.165,0.128c-0.05,0.062 -0.099,0.276 -0.079,0.362c-0.169,0.058 -0.009,0.227 -0.015,0.35c-0.002,0.05 -0.041,0.105 -0.045,0.161c-0.01,0.119 0.017,0.266 0.068,0.37c0.097,0.198 0.268,0.413 0.435,0.544c0.19,0.148 0.365,0.572 0.608,0.631c0.177,0.042 0.384,-0.104 0.543,-0.143c0.18,-0.043 0.397,0.01 0.571,-0.053c0.222,-0.079 0.127,-0.337 0.288,-0.45c0.104,-0.074 0.287,-0.01 0.406,-0.051c0.2,-0.069 0.339,-0.263 0.376,-0.46c0.016,-0.082 0.01,-0.145 0.039,-0.221c0.039,-0.103 0.111,-0.16 0.09,-0.293c-0.01,-0.062 -0.052,-0.12 -0.064,-0.187c-0.022,-0.114 0.002,-0.224 0,-0.337c-0.003,-0.2 0.017,-0.379 -0.078,-0.55c-0.38,-0.688 -1.236,-0.929 -1.975,-0.789c-0.18,0.034 -0.287,0.126 -0.442,0.207c-0.17,0.088 -0.139,0.166 -0.318,0.224c-0.081,0.026 -0.216,0.124 -0.215,0.224c0.001,0.115 0.005,0.051 0.012,0.169c-0.021,0.011 -0.021,-0.005 -0.03,-0.025"/>
     <path id="svg_102" fill="#FFFFFF" d="m23.477,-10.431c0.018,0.072 0.007,0.127 -0.026,0.19c-0.053,0.101 -0.112,0.062 -0.165,0.128c-0.05,0.062 -0.099,0.276 -0.079,0.362c-0.169,0.058 -0.009,0.227 -0.015,0.35c-0.002,0.05 -0.041,0.105 -0.045,0.161c-0.01,0.119 0.017,0.266 0.068,0.37c0.097,0.198 0.268,0.413 0.435,0.544c0.19,0.148 0.365,0.572 0.608,0.631c0.177,0.042 0.384,-0.104 0.543,-0.143c0.18,-0.043 0.397,0.01 0.571,-0.053c0.222,-0.079 0.127,-0.337 0.288,-0.45c0.104,-0.074 0.287,-0.01 0.406,-0.051c0.2,-0.069 0.339,-0.263 0.376,-0.46c0.016,-0.082 0.01,-0.145 0.039,-0.221c0.039,-0.103 0.111,-0.16 0.09,-0.293c-0.01,-0.062 -0.052,-0.12 -0.064,-0.187c-0.022,-0.114 0.002,-0.224 0,-0.337c-0.003,-0.2 0.017,-0.379 -0.078,-0.55c-0.38,-0.688 -1.236,-0.929 -1.975,-0.789c-0.18,0.034 -0.287,0.126 -0.442,0.207c-0.17,0.088 -0.139,0.166 -0.318,0.224c-0.081,0.026 -0.216,0.124 -0.215,0.224c0.001,0.115 0.005,0.051 0.012,0.169c-0.021,0.011 -0.021,-0.005 -0.03,-0.025"/>
     <path id="svg_103" fill="#FFFFFF" d="m15.816,-10.431c0.018,0.072 0.007,0.127 -0.026,0.19c-0.053,0.101 -0.112,0.062 -0.165,0.128c-0.05,0.062 -0.099,0.276 -0.079,0.362c-0.169,0.058 -0.009,0.227 -0.015,0.35c-0.002,0.05 -0.041,0.105 -0.045,0.161c-0.01,0.119 0.017,0.266 0.068,0.37c0.097,0.198 0.268,0.413 0.435,0.544c0.19,0.148 0.365,0.572 0.608,0.631c0.177,0.042 0.384,-0.104 0.543,-0.143c0.18,-0.043 0.397,0.01 0.571,-0.053c0.222,-0.078 0.128,-0.336 0.289,-0.449c0.104,-0.074 0.287,-0.01 0.406,-0.051c0.2,-0.069 0.339,-0.263 0.376,-0.46c0.016,-0.082 0.01,-0.145 0.039,-0.221c0.039,-0.103 0.111,-0.16 0.09,-0.293c-0.01,-0.062 -0.052,-0.12 -0.064,-0.187c-0.022,-0.114 0.002,-0.224 0,-0.337c-0.003,-0.2 0.017,-0.379 -0.078,-0.55c-0.38,-0.688 -1.236,-0.929 -1.975,-0.789c-0.18,0.034 -0.287,0.126 -0.442,0.207c-0.17,0.088 -0.139,0.166 -0.318,0.224c-0.081,0.026 -0.216,0.124 -0.215,0.224c0.001,0.115 0.005,0.051 0.012,0.169c-0.021,0.011 -0.021,-0.005 -0.03,-0.025"/>
     <path id="svg_104" fill="#FFFFFF" d="m8.156,-10.431c0.018,0.072 0.007,0.127 -0.026,0.19c-0.053,0.101 -0.112,0.062 -0.165,0.128c-0.05,0.063 -0.099,0.277 -0.079,0.363c-0.169,0.058 -0.01,0.227 -0.015,0.35c-0.003,0.049 -0.041,0.105 -0.045,0.161c-0.01,0.119 0.017,0.266 0.068,0.37c0.097,0.198 0.268,0.413 0.435,0.544c0.19,0.148 0.365,0.572 0.608,0.631c0.177,0.042 0.384,-0.105 0.543,-0.143c0.18,-0.043 0.397,0.01 0.571,-0.053c0.222,-0.079 0.127,-0.337 0.288,-0.45c0.104,-0.074 0.287,-0.01 0.406,-0.051c0.2,-0.069 0.339,-0.263 0.376,-0.46c0.016,-0.082 0.01,-0.145 0.039,-0.221c0.039,-0.103 0.111,-0.16 0.09,-0.293c-0.01,-0.062 -0.052,-0.12 -0.064,-0.187c-0.022,-0.114 0.002,-0.224 0,-0.337c-0.003,-0.2 0.017,-0.379 -0.078,-0.55c-0.38,-0.688 -1.236,-0.929 -1.975,-0.789c-0.18,0.034 -0.287,0.126 -0.442,0.207c-0.17,0.088 -0.139,0.166 -0.318,0.224c-0.081,0.026 -0.216,0.124 -0.215,0.224c0.001,0.115 0.005,0.051 0.012,0.169c-0.021,0.011 -0.021,-0.005 -0.03,-0.025"/>
     <path id="svg_105" fill="#FFFFFF" d="m0.495,-10.431c0.018,0.072 0.007,0.127 -0.026,0.19c-0.053,0.101 -0.112,0.062 -0.165,0.128c-0.05,0.063 -0.099,0.277 -0.079,0.363c-0.169,0.058 -0.01,0.227 -0.015,0.35c-0.002,0.05 -0.041,0.105 -0.045,0.161c-0.01,0.119 0.017,0.266 0.068,0.37c0.097,0.198 0.268,0.413 0.435,0.544c0.19,0.148 0.365,0.572 0.608,0.631c0.178,0.042 0.384,-0.105 0.543,-0.143c0.181,-0.043 0.398,0.01 0.572,-0.053c0.222,-0.079 0.127,-0.337 0.288,-0.45c0.104,-0.074 0.287,-0.01 0.406,-0.051c0.2,-0.069 0.339,-0.263 0.376,-0.46c0.016,-0.082 0.01,-0.144 0.039,-0.22c0.039,-0.103 0.111,-0.16 0.09,-0.293c-0.01,-0.062 -0.052,-0.12 -0.064,-0.187c-0.022,-0.114 0.002,-0.224 0,-0.337c-0.003,-0.2 0.017,-0.379 -0.078,-0.55c-0.38,-0.688 -1.236,-0.929 -1.975,-0.789c-0.18,0.034 -0.287,0.126 -0.442,0.207c-0.17,0.088 -0.139,0.166 -0.318,0.224c-0.081,0.026 -0.216,0.124 -0.215,0.224c0.001,0.115 0.005,0.051 0.012,0.169c-0.021,0.011 -0.021,-0.005 -0.03,-0.025"/>
    </g>
   </g>
   <g id="svg_106">
    <path id="svg_107" fill="#FFFFFF" d="m69.439,-2.778c0.018,0.072 0.008,0.127 -0.026,0.19c-0.052,0.101 -0.113,0.063 -0.165,0.128c-0.051,0.062 -0.099,0.276 -0.079,0.362c-0.169,0.058 -0.01,0.227 -0.015,0.35c-0.002,0.05 -0.041,0.105 -0.045,0.161c-0.01,0.119 0.017,0.266 0.068,0.37c0.097,0.198 0.268,0.413 0.435,0.544c0.19,0.148 0.365,0.572 0.608,0.631c0.177,0.042 0.384,-0.104 0.543,-0.143c0.18,-0.043 0.397,0.01 0.571,-0.053c0.222,-0.079 0.127,-0.337 0.288,-0.45c0.104,-0.074 0.287,-0.01 0.406,-0.051c0.2,-0.07 0.339,-0.263 0.376,-0.46c0.016,-0.082 0.01,-0.145 0.039,-0.221c0.038,-0.103 0.111,-0.16 0.09,-0.293c-0.01,-0.062 -0.051,-0.12 -0.064,-0.187c-0.021,-0.114 0.002,-0.224 0,-0.337c-0.003,-0.2 0.017,-0.379 -0.078,-0.55c-0.38,-0.688 -1.236,-0.929 -1.975,-0.789c-0.18,0.034 -0.287,0.126 -0.442,0.207c-0.17,0.088 -0.139,0.166 -0.318,0.224c-0.081,0.026 -0.215,0.124 -0.215,0.224c0.002,0.115 0.005,0.051 0.012,0.169c-0.021,0.011 -0.021,-0.005 -0.03,-0.025"/>
    <path id="svg_108" fill="#FFFFFF" d="m61.778,-2.778c0.018,0.072 0.007,0.127 -0.026,0.19c-0.052,0.101 -0.112,0.063 -0.165,0.128c-0.05,0.062 -0.099,0.276 -0.079,0.362c-0.169,0.058 -0.01,0.227 -0.015,0.35c-0.002,0.05 -0.041,0.105 -0.045,0.161c-0.01,0.119 0.017,0.266 0.068,0.37c0.097,0.198 0.268,0.413 0.435,0.544c0.19,0.148 0.365,0.572 0.608,0.631c0.178,0.042 0.384,-0.104 0.544,-0.143c0.18,-0.043 0.397,0.01 0.571,-0.053c0.222,-0.079 0.127,-0.337 0.288,-0.45c0.104,-0.074 0.287,-0.01 0.406,-0.051c0.2,-0.069 0.339,-0.263 0.376,-0.46c0.016,-0.082 0.01,-0.145 0.039,-0.221c0.039,-0.103 0.111,-0.16 0.09,-0.293c-0.01,-0.062 -0.052,-0.12 -0.064,-0.187c-0.022,-0.114 0.002,-0.224 0,-0.337c-0.003,-0.2 0.017,-0.379 -0.078,-0.55c-0.38,-0.688 -1.236,-0.929 -1.975,-0.789c-0.18,0.034 -0.287,0.126 -0.442,0.207c-0.17,0.088 -0.139,0.166 -0.318,0.224c-0.081,0.028 -0.216,0.125 -0.215,0.225c0.001,0.115 0.005,0.051 0.012,0.169c-0.021,0.011 -0.021,-0.005 -0.03,-0.025"/>
    <path id="svg_109" fill="#FFFFFF" d="m54.118,-2.778c0.018,0.072 0.007,0.127 -0.026,0.19c-0.052,0.101 -0.112,0.063 -0.165,0.128c-0.05,0.062 -0.099,0.276 -0.079,0.362c-0.169,0.058 -0.01,0.227 -0.015,0.35c-0.002,0.05 -0.041,0.105 -0.045,0.161c-0.01,0.119 0.017,0.266 0.068,0.37c0.097,0.198 0.268,0.413 0.435,0.544c0.19,0.148 0.365,0.572 0.608,0.631c0.178,0.042 0.384,-0.104 0.543,-0.143c0.18,-0.043 0.397,0.01 0.571,-0.053c0.222,-0.079 0.127,-0.337 0.288,-0.45c0.104,-0.074 0.287,-0.01 0.406,-0.051c0.2,-0.069 0.339,-0.263 0.376,-0.46c0.016,-0.082 0.01,-0.145 0.039,-0.221c0.039,-0.103 0.111,-0.16 0.09,-0.293c-0.01,-0.062 -0.052,-0.12 -0.064,-0.187c-0.022,-0.114 0.002,-0.224 0,-0.337c-0.003,-0.2 0.017,-0.379 -0.078,-0.55c-0.38,-0.688 -1.236,-0.929 -1.975,-0.789c-0.18,0.034 -0.287,0.126 -0.442,0.207c-0.17,0.088 -0.139,0.166 -0.318,0.224c-0.08,0.028 -0.215,0.125 -0.214,0.225c0.001,0.115 0.005,0.051 0.012,0.169c-0.021,0.011 -0.021,-0.005 -0.03,-0.025"/>
    <path id="svg_110" fill="#FFFFFF" d="m46.458,-2.778c0.018,0.072 0.007,0.127 -0.026,0.19c-0.053,0.101 -0.112,0.062 -0.165,0.128c-0.05,0.062 -0.099,0.276 -0.079,0.362c-0.169,0.058 -0.01,0.227 -0.015,0.35c-0.002,0.05 -0.041,0.105 -0.045,0.161c-0.01,0.119 0.017,0.266 0.068,0.37c0.097,0.198 0.268,0.413 0.435,0.544c0.19,0.148 0.365,0.572 0.608,0.631c0.177,0.042 0.384,-0.104 0.543,-0.143c0.18,-0.043 0.397,0.01 0.571,-0.053c0.222,-0.079 0.127,-0.337 0.288,-0.45c0.104,-0.074 0.287,-0.01 0.406,-0.051c0.2,-0.069 0.339,-0.263 0.376,-0.46c0.016,-0.082 0.01,-0.145 0.039,-0.221c0.039,-0.103 0.111,-0.16 0.09,-0.293c-0.01,-0.062 -0.052,-0.12 -0.064,-0.187c-0.022,-0.114 0.002,-0.224 0,-0.337c-0.003,-0.2 0.017,-0.379 -0.078,-0.55c-0.38,-0.688 -1.236,-0.929 -1.975,-0.789c-0.18,0.034 -0.287,0.126 -0.442,0.207c-0.17,0.088 -0.139,0.166 -0.318,0.224c-0.081,0.028 -0.216,0.125 -0.215,0.225c0.001,0.115 0.005,0.051 0.012,0.169c-0.021,0.011 -0.021,-0.005 -0.03,-0.025"/>
    <path id="svg_111" fill="#FFFFFF" d="m38.797,-2.778c0.018,0.072 0.007,0.127 -0.026,0.19c-0.053,0.101 -0.112,0.062 -0.165,0.128c-0.05,0.062 -0.099,0.276 -0.079,0.362c-0.169,0.058 -0.01,0.227 -0.015,0.35c-0.002,0.05 -0.041,0.105 -0.045,0.161c-0.01,0.119 0.017,0.266 0.068,0.37c0.097,0.198 0.268,0.413 0.435,0.544c0.19,0.148 0.365,0.572 0.608,0.631c0.178,0.042 0.384,-0.104 0.544,-0.143c0.18,-0.043 0.397,0.01 0.571,-0.053c0.222,-0.079 0.127,-0.337 0.288,-0.45c0.104,-0.074 0.287,-0.01 0.406,-0.051c0.2,-0.069 0.339,-0.263 0.376,-0.46c0.016,-0.082 0.01,-0.145 0.039,-0.221c0.039,-0.103 0.111,-0.16 0.09,-0.293c-0.01,-0.062 -0.052,-0.12 -0.064,-0.187c-0.022,-0.114 0.002,-0.224 0,-0.337c-0.003,-0.2 0.017,-0.379 -0.078,-0.55c-0.38,-0.688 -1.236,-0.929 -1.975,-0.789c-0.18,0.034 -0.287,0.126 -0.442,0.207c-0.17,0.088 -0.139,0.166 -0.318,0.224c-0.081,0.028 -0.216,0.125 -0.215,0.225c0.001,0.115 0.005,0.051 0.012,0.169c-0.021,0.011 -0.021,-0.005 -0.03,-0.025"/>
    <path id="svg_112" fill="#FFFFFF" d="m31.137,-2.778c0.018,0.072 0.007,0.127 -0.026,0.19c-0.053,0.101 -0.112,0.062 -0.165,0.128c-0.05,0.062 -0.099,0.276 -0.079,0.362c-0.169,0.058 -0.01,0.227 -0.015,0.35c-0.002,0.05 -0.041,0.105 -0.045,0.161c-0.01,0.119 0.017,0.266 0.068,0.37c0.097,0.198 0.268,0.413 0.435,0.544c0.19,0.148 0.365,0.572 0.608,0.631c0.177,0.042 0.384,-0.104 0.543,-0.143c0.18,-0.043 0.397,0.01 0.571,-0.053c0.222,-0.079 0.127,-0.337 0.288,-0.45c0.104,-0.074 0.287,-0.01 0.406,-0.051c0.2,-0.069 0.339,-0.263 0.376,-0.46c0.016,-0.082 0.01,-0.145 0.039,-0.221c0.039,-0.103 0.111,-0.16 0.09,-0.293c-0.01,-0.062 -0.052,-0.12 -0.064,-0.187c-0.022,-0.114 0.002,-0.224 0,-0.337c-0.003,-0.2 0.017,-0.379 -0.078,-0.55c-0.38,-0.688 -1.236,-0.929 -1.975,-0.789c-0.18,0.034 -0.287,0.126 -0.442,0.207c-0.17,0.088 -0.139,0.166 -0.318,0.224c-0.081,0.028 -0.215,0.125 -0.214,0.225c0.001,0.115 0.005,0.051 0.012,0.169c-0.021,0.011 -0.021,-0.005 -0.03,-0.025"/>
    <path id="svg_113" fill="#FFFFFF" d="m23.477,-2.778c0.018,0.072 0.007,0.127 -0.026,0.19c-0.053,0.101 -0.112,0.062 -0.165,0.128c-0.05,0.062 -0.099,0.276 -0.079,0.362c-0.169,0.058 -0.01,0.227 -0.015,0.35c-0.002,0.05 -0.041,0.105 -0.045,0.161c-0.01,0.119 0.017,0.266 0.068,0.37c0.097,0.198 0.268,0.413 0.435,0.544c0.19,0.148 0.365,0.572 0.608,0.631c0.177,0.042 0.384,-0.104 0.543,-0.143c0.18,-0.043 0.397,0.01 0.571,-0.053c0.222,-0.079 0.127,-0.337 0.288,-0.45c0.104,-0.074 0.287,-0.01 0.406,-0.051c0.2,-0.069 0.339,-0.263 0.376,-0.46c0.016,-0.082 0.01,-0.145 0.039,-0.221c0.039,-0.103 0.111,-0.16 0.09,-0.293c-0.01,-0.062 -0.052,-0.12 -0.064,-0.187c-0.022,-0.114 0.002,-0.224 0,-0.337c-0.003,-0.2 0.017,-0.379 -0.078,-0.55c-0.38,-0.688 -1.236,-0.929 -1.975,-0.789c-0.18,0.034 -0.287,0.126 -0.442,0.207c-0.17,0.088 -0.139,0.166 -0.318,0.224c-0.081,0.026 -0.216,0.124 -0.215,0.224c0.001,0.115 0.005,0.051 0.012,0.169c-0.021,0.011 -0.021,-0.005 -0.03,-0.025"/>
    <path id="svg_114" fill="#FFFFFF" d="m15.816,-2.778c0.018,0.072 0.007,0.127 -0.026,0.19c-0.053,0.101 -0.112,0.062 -0.165,0.128c-0.05,0.062 -0.099,0.276 -0.079,0.362c-0.169,0.058 -0.01,0.227 -0.015,0.35c-0.002,0.05 -0.041,0.105 -0.045,0.161c-0.01,0.119 0.017,0.266 0.068,0.37c0.097,0.198 0.268,0.413 0.435,0.544c0.19,0.148 0.365,0.572 0.608,0.631c0.177,0.042 0.384,-0.104 0.543,-0.143c0.18,-0.043 0.397,0.01 0.571,-0.053c0.222,-0.079 0.127,-0.337 0.288,-0.45c0.104,-0.074 0.287,-0.01 0.406,-0.051c0.2,-0.069 0.339,-0.263 0.376,-0.46c0.016,-0.082 0.01,-0.145 0.039,-0.221c0.039,-0.103 0.111,-0.16 0.09,-0.293c-0.01,-0.062 -0.052,-0.12 -0.064,-0.187c-0.022,-0.114 0.002,-0.224 0,-0.337c-0.003,-0.2 0.017,-0.379 -0.078,-0.55c-0.38,-0.688 -1.236,-0.929 -1.975,-0.789c-0.18,0.034 -0.287,0.126 -0.442,0.207c-0.17,0.088 -0.139,0.166 -0.318,0.224c-0.081,0.026 -0.216,0.124 -0.215,0.224c0.001,0.115 0.005,0.051 0.012,0.169c-0.02,0.012 -0.021,-0.004 -0.03,-0.024"/>
    <path id="svg_115" fill="#FFFFFF" d="m8.156,-2.778c0.018,0.072 0.007,0.127 -0.026,0.19c-0.053,0.101 -0.112,0.063 -0.165,0.128c-0.05,0.062 -0.099,0.276 -0.079,0.362c-0.169,0.058 -0.01,0.227 -0.015,0.35c-0.003,0.05 -0.041,0.105 -0.045,0.161c-0.01,0.119 0.017,0.266 0.068,0.37c0.097,0.198 0.268,0.413 0.435,0.544c0.19,0.148 0.365,0.572 0.608,0.631c0.177,0.042 0.384,-0.104 0.543,-0.143c0.18,-0.043 0.397,0.01 0.571,-0.053c0.222,-0.079 0.127,-0.337 0.288,-0.45c0.104,-0.074 0.287,-0.01 0.406,-0.051c0.2,-0.069 0.339,-0.263 0.376,-0.46c0.016,-0.082 0.01,-0.145 0.039,-0.221c0.039,-0.103 0.111,-0.16 0.09,-0.293c-0.01,-0.062 -0.052,-0.12 -0.064,-0.187c-0.022,-0.114 0.002,-0.224 0,-0.337c-0.003,-0.2 0.017,-0.379 -0.078,-0.55c-0.38,-0.688 -1.236,-0.929 -1.975,-0.789c-0.179,0.036 -0.286,0.128 -0.441,0.209c-0.17,0.088 -0.139,0.166 -0.318,0.224c-0.082,0.026 -0.216,0.123 -0.215,0.223c0.001,0.115 0.005,0.051 0.011,0.169c-0.02,0.011 -0.021,-0.005 -0.03,-0.025"/>
    <path id="svg_116" fill="#FFFFFF" d="m0.495,-2.778c0.018,0.072 0.008,0.127 -0.026,0.19c-0.052,0.101 -0.113,0.063 -0.165,0.128c-0.051,0.063 -0.099,0.276 -0.079,0.362c-0.169,0.058 -0.01,0.227 -0.015,0.35c-0.002,0.05 -0.041,0.105 -0.045,0.161c-0.01,0.119 0.017,0.266 0.068,0.37c0.097,0.198 0.268,0.413 0.435,0.544c0.19,0.148 0.365,0.572 0.608,0.631c0.178,0.042 0.384,-0.104 0.543,-0.143c0.181,-0.043 0.398,0.01 0.572,-0.052c0.222,-0.079 0.127,-0.337 0.288,-0.45c0.104,-0.074 0.287,-0.01 0.406,-0.051c0.2,-0.07 0.339,-0.263 0.376,-0.46c0.016,-0.082 0.01,-0.145 0.039,-0.221c0.038,-0.103 0.111,-0.16 0.09,-0.293c-0.01,-0.062 -0.051,-0.12 -0.064,-0.187c-0.021,-0.114 0.002,-0.224 0,-0.337c-0.003,-0.2 0.017,-0.379 -0.078,-0.55c-0.38,-0.688 -1.236,-0.929 -1.975,-0.789c-0.18,0.035 -0.286,0.127 -0.442,0.208c-0.17,0.088 -0.139,0.166 -0.318,0.224c-0.081,0.026 -0.215,0.123 -0.215,0.223c0.002,0.115 0.005,0.051 0.012,0.169c-0.021,0.011 -0.022,-0.005 -0.031,-0.025"/>
   </g>
  </g>
 </pattern>
 <g class="layer">
  <title>Layer 1</title>
  <path fill="#ffffff" id="svg_117" fill-rule="evenodd" clip-rule="evenodd" d="m256,46.531c-115.982,0 -210,93.784 -210,209.465c0,115.689 94.018,209.473 210,209.473c115.975,0 210,-93.783 210,-209.473c0,-115.681 -94.025,-209.465 -210,-209.465zm2.453,331.981c-67.688,0 -122.513,-54.825 -122.513,-122.513c0,-67.687 54.825,-122.512 122.513,-122.512c33.08,0 60.717,12.174 81.932,31.93l-34.54,34.534l0,-0.078c-12.861,-12.252 -29.169,-18.529 -47.392,-18.529c-40.428,0 -73.276,34.149 -73.276,74.581c0,40.423 32.849,74.655 73.276,74.655c36.678,0 61.637,-20.981 66.773,-49.771l-66.773,0l0,-47.781l115.235,0c1.533,8.191 2.37,16.769 2.37,25.727c0.001,69.986 -46.853,119.757 -117.605,119.757z"/>
 </g>
</svg>