<?xml version="1.0"?>
<svg width="512" height="512" xmlns="http://www.w3.org/2000/svg" xmlns:svg="http://www.w3.org/2000/svg">
 <g class="layer">
  <title>Layer 1</title>
  <g id="svg_1"/>
  <circle stroke="#ffffff" id="svg_10" r="206.75531" cy="251.333341" cx="252.000006" stroke-linecap="null" stroke-linejoin="null" stroke-dasharray="null" stroke-width="null" fill="#ffffff"/>
  <g id="svg_3">
   <path stroke="#ffffff" id="svg_4" fill="#5cb85c" d="m123.48533,132.74333l91.746,0c0,0 83.332,125.871 85.793,129.246c2.52,3.41 2.812,0 2.812,0c-3.844,-19.477 -8.016,-28.219 -8.016,-59.379l0,-69.867l91.359,0l0,233.18l-91.359,0c0,0 -81.621,-119.156 -84.082,-122.449c-2.473,-3.316 -2.801,0 -2.801,0c3.141,16.078 5.918,18.762 5.918,46.688l0,75.762l-91.371,0l0,-233.181l0.001,0z"/>
  </g>
  <ellipse id="svg_5" cy="-258.666667" cx="-906.666667" stroke-linecap="null" stroke-linejoin="null" stroke-dasharray="null" stroke-width="null" stroke="#ffffff" fill="#5cb85c"/>
 </g>
</svg>