<?xml version="1.0" encoding="iso-8859-1"?>
<!-- Generator: Adobe Illustrator 19.0.0, SVG Export Plug-In . SVG Version: 6.00 Build 0)  -->
<svg version="1.1" id="Layer_1" xmlns="http://www.w3.org/2000/svg" xmlns:xlink="http://www.w3.org/1999/xlink" x="0px" y="0px"
	 viewBox="0 0 512.001 512.001" style="enable-background:new 0 0 512.001 512.001;" xml:space="preserve">
<path style="fill:#ECB45C;" d="M442.167,263.758h-23.273H255.985H93.076H69.803c-7.23,0-13.689,3.297-17.959,8.468
	c-1.898,2.299-3.362,4.968-4.268,7.883c-0.68,2.186-1.046,4.51-1.046,6.92v201.697c0,0.647,0.033,1.285,0.085,1.918
	c0.017,0.2,0.043,0.399,0.065,0.599c0.045,0.433,0.101,0.864,0.171,1.291c0.037,0.223,0.078,0.444,0.121,0.664
	c0.081,0.41,0.171,0.816,0.273,1.218c0.051,0.205,0.099,0.411,0.158,0.614c0.133,0.476,0.284,0.943,0.447,1.407
	c0.039,0.115,0.073,0.231,0.115,0.344c0.209,0.571,0.444,1.129,0.697,1.677c0.071,0.155,0.152,0.304,0.227,0.458
	c0.191,0.393,0.391,0.78,0.604,1.162c0.106,0.189,0.217,0.374,0.327,0.56c0.206,0.343,0.417,0.68,0.639,1.01
	c0.119,0.178,0.237,0.357,0.362,0.531c0.25,0.354,0.514,0.697,0.784,1.035c0.106,0.132,0.206,0.27,0.315,0.399
	c0.382,0.458,0.779,0.903,1.195,1.328c0.084,0.087,0.174,0.166,0.261,0.253c0.338,0.338,0.684,0.667,1.044,0.984
	c0.155,0.137,0.313,0.265,0.472,0.397c0.309,0.258,0.621,0.509,0.942,0.749c0.174,0.13,0.349,0.259,0.526,0.386
	c0.169,0.119,0.344,0.23,0.518,0.344c0.174,0.115,0.341,0.234,0.517,0.344c0.081,0.051,0.161,0.101,0.242,0.152
	c0.081,0.051,0.16,0.104,0.242,0.152c0.514,0.307,1.036,0.6,1.575,0.867c1.772,0.881,3.671,1.545,5.663,1.952
	c1.514,0.31,3.081,0.473,4.689,0.473h186.182h186.182c1.607,0,3.176-0.163,4.69-0.473c1.992-0.408,3.893-1.071,5.663-1.952
	c0.538-0.267,1.061-0.56,1.573-0.867c0.164-0.098,0.324-0.205,0.486-0.307c0.351-0.222,0.695-0.45,1.033-0.689
	c0.177-0.126,0.352-0.256,0.526-0.386c0.321-0.242,0.635-0.492,0.942-0.749c0.158-0.132,0.317-0.261,0.47-0.397
	c0.36-0.318,0.707-0.647,1.047-0.985c0.087-0.085,0.175-0.164,0.259-0.251c0.416-0.427,0.811-0.872,1.195-1.328
	c0.109-0.129,0.209-0.267,0.315-0.399c0.27-0.338,0.534-0.681,0.784-1.035c0.124-0.174,0.242-0.354,0.362-0.531
	c0.222-0.331,0.433-0.667,0.639-1.01c0.11-0.186,0.222-0.371,0.327-0.56c0.213-0.38,0.413-0.768,0.604-1.162
	c0.076-0.154,0.157-0.303,0.227-0.458c0.253-0.548,0.489-1.106,0.697-1.677c0.042-0.115,0.076-0.233,0.116-0.349
	c0.161-0.461,0.313-0.929,0.447-1.404c0.056-0.202,0.104-0.408,0.157-0.613c0.101-0.402,0.192-0.808,0.273-1.22
	c0.043-0.22,0.084-0.442,0.121-0.664c0.07-0.427,0.126-0.858,0.171-1.291c0.022-0.2,0.048-0.397,0.065-0.599
	c0.051-0.633,0.085-1.271,0.085-1.918V287.03C465.44,274.178,455.02,263.758,442.167,263.758z"/>
<path style="fill:#E0E0E2;" d="M46.531,287.03c0-12.853,10.42-23.273,23.273-23.273h23.273h162.909h162.909h23.273
	c12.853,0,23.273,10.42,23.273,23.273V179.018c-0.321,12.573-10.591,22.672-23.242,22.672c-0.011,0-0.02,0-0.031,0h-23.273H287.016
	c-12.853,0-23.273-10.42-23.273-23.273V46.545V23.273c0-9.413,5.669-17.9,14.367-21.501c2.993-1.24,6.139-1.801,9.253-1.755
	C287.247,0.016,287.132,0,287.016,0H69.803C56.951,0,46.531,10.418,46.531,23.273C46.531,23.273,46.531,287.03,46.531,287.03z"/>
<g>
	<path style="fill:#D6D5D8;" d="M462.478,500.078c0,0,0,0.002-0.002,0.003c0.216-0.383,0.416-0.776,0.61-1.171
		c-0.002,0.003-0.003,0.005-0.005,0.006C462.891,499.31,462.69,499.698,462.478,500.078z"/>
	<path style="fill:#D6D5D8;" d="M455.267,507.966c0.118-0.081,0.231-0.172,0.348-0.256l0,0
		C455.496,507.795,455.384,507.885,455.267,507.966z"/>
	<path style="fill:#D6D5D8;" d="M460.366,503.214c-0.003,0.002-0.005,0.005-0.006,0.008c0.273-0.341,0.538-0.689,0.791-1.046
		c0,0,0,0.002-0.002,0.002C460.9,502.533,460.636,502.876,460.366,503.214z"/>
	<path style="fill:#D6D5D8;" d="M461.511,501.648c-0.002,0.002-0.002,0.003-0.003,0.005c0.223-0.334,0.438-0.673,0.645-1.018
		c-0.002,0.002-0.003,0.003-0.003,0.005C461.944,500.98,461.733,501.316,461.511,501.648z"/>
	<path style="fill:#D6D5D8;" d="M456.138,507.327L456.138,507.327c0.321-0.242,0.636-0.493,0.945-0.751
		c-0.002,0-0.002,0.002-0.003,0.002C456.773,506.833,456.46,507.085,456.138,507.327z"/>
	<path style="fill:#D6D5D8;" d="M464.123,496.434c-0.002,0.002-0.002,0.005-0.002,0.006c0.163-0.464,0.313-0.934,0.448-1.412v0.002
		C464.434,495.504,464.284,495.971,464.123,496.434z"/>
	<path style="fill:#D6D5D8;" d="M464.725,494.418c-0.002,0.002-0.002,0.002-0.002,0.002c0.102-0.403,0.194-0.81,0.275-1.223l0,0
		C464.917,493.61,464.827,494.015,464.725,494.418z"/>
	<path style="fill:#D6D5D8;" d="M457.55,506.18L457.55,506.18c0.362-0.32,0.712-0.65,1.055-0.993
		c-0.003,0.003-0.005,0.005-0.008,0.006C458.258,505.533,457.912,505.862,457.55,506.18z"/>
	<path style="fill:#D6D5D8;" d="M465.119,492.535c-0.002,0-0.002,0-0.002,0c0.071-0.427,0.127-0.858,0.172-1.292c0,0,0,0,0,0.002
		C465.244,491.677,465.188,492.108,465.119,492.535z"/>
	<path style="fill:#D6D5D8;" d="M458.857,504.942C458.857,504.944,458.857,504.944,458.857,504.942
		c0.414-0.427,0.813-0.872,1.196-1.33c0,0-0.002,0-0.002,0.002C459.67,504.072,459.273,504.515,458.857,504.942z"/>
	<path style="fill:#D6D5D8;" d="M465.354,490.645c0.051-0.633,0.085-1.271,0.085-1.918
		C465.44,489.374,465.407,490.012,465.354,490.645L465.354,490.645z"/>
	<path style="fill:#D6D5D8;" d="M463.308,498.458L463.308,498.458c0.253-0.548,0.487-1.106,0.697-1.677l0,0
		C463.797,497.354,463.561,497.911,463.308,498.458z"/>
	<path style="fill:#D6D5D8;" d="M54.89,506.576c0,0,0,0-0.002-0.002c0.309,0.259,0.622,0.51,0.945,0.752l-0.002-0.002
		C55.511,507.085,55.199,506.833,54.89,506.576z"/>
	<path style="fill:#D6D5D8;" d="M53.374,505.195c-0.003-0.002-0.006-0.005-0.008-0.006c0.341,0.34,0.69,0.672,1.053,0.991
		c0,0-0.002,0-0.002-0.002C54.06,505.862,53.713,505.533,53.374,505.195z"/>
	<path style="fill:#D6D5D8;" d="M46.681,491.244C46.681,491.242,46.681,491.242,46.681,491.244c0.045,0.433,0.101,0.864,0.172,1.291
		h-0.002C46.782,492.108,46.726,491.677,46.681,491.244z"/>
	<path style="fill:#D6D5D8;" d="M49.82,500.638c0-0.002-0.002-0.003-0.003-0.005c0.208,0.346,0.422,0.684,0.645,1.018
		c-0.002-0.002-0.002-0.003-0.003-0.005C50.239,501.316,50.026,500.98,49.82,500.638z"/>
	<path style="fill:#D6D5D8;" d="M51.921,503.614h-0.002c0.382,0.458,0.78,0.903,1.196,1.331c0,0,0,0,0-0.002
		C52.7,504.515,52.302,504.072,51.921,503.614z"/>
	<path style="fill:#D6D5D8;" d="M46.531,488.727c0,0.647,0.033,1.285,0.085,1.918l0,0C46.565,490.012,46.531,489.374,46.531,488.727
		z"/>
	<path style="fill:#D6D5D8;" d="M56.358,507.712c0.116,0.084,0.228,0.174,0.348,0.256C56.588,507.885,56.474,507.795,56.358,507.712
		L56.358,507.712z"/>
	<path style="fill:#D6D5D8;" d="M50.822,502.179C50.821,502.177,50.821,502.177,50.822,502.179c0.251,0.355,0.517,0.701,0.79,1.043
		c-0.002-0.002-0.003-0.005-0.006-0.008C51.336,502.876,51.072,502.533,50.822,502.179z"/>
	<path style="fill:#D6D5D8;" d="M47.966,496.781L47.966,496.781c0.209,0.571,0.444,1.129,0.697,1.679v-0.002
		C48.41,497.911,48.175,497.352,47.966,496.781z"/>
	<path style="fill:#D6D5D8;" d="M46.973,493.199L46.973,493.199c0.081,0.411,0.171,0.818,0.275,1.221
		c-0.002,0-0.002-0.002-0.002-0.002C47.145,494.015,47.054,493.608,46.973,493.199z"/>
	<path style="fill:#D6D5D8;" d="M47.404,495.031l-0.002-0.002c0.135,0.479,0.285,0.95,0.45,1.415c0-0.002-0.002-0.005-0.002-0.006
		C47.687,495.974,47.538,495.506,47.404,495.031z"/>
	<path style="fill:#D6D5D8;" d="M48.891,498.916c-0.002-0.003-0.003-0.005-0.005-0.006c0.194,0.396,0.394,0.788,0.61,1.171
		c-0.002-0.002-0.002-0.002-0.002-0.002C49.282,499.698,49.081,499.31,48.891,498.916z"/>
</g>
<path style="fill:#C6C5CA;" d="M263.743,23.273v23.273v131.873c0,12.853,10.42,23.273,23.273,23.273h131.879h23.273
	c0.011,0,0.02,0,0.031,0c12.651,0,22.921-10.1,23.242-22.672c0.005-0.202,0.031-0.397,0.031-0.6c0-4.824-1.488-9.289-4-13.003
	c-0.003-0.003-0.005-0.008-0.008-0.011c-0.397-0.588-0.824-1.153-1.271-1.7c-0.037-0.045-0.071-0.092-0.109-0.135
	c-0.424-0.512-0.875-1.001-1.339-1.474c-0.073-0.073-0.144-0.147-0.217-0.22c-0.205-0.202-0.394-0.419-0.605-0.613L303.472,6.816
	c-0.484-0.484-0.988-0.934-1.505-1.367c-0.158-0.132-0.321-0.256-0.481-0.383c-0.375-0.298-0.76-0.586-1.153-0.861
	c-0.191-0.133-0.382-0.267-0.577-0.394c-0.41-0.268-0.832-0.521-1.261-0.765c-0.168-0.096-0.334-0.2-0.503-0.292
	c-0.56-0.301-1.137-0.577-1.725-0.832c-0.237-0.102-0.481-0.192-0.72-0.287c-0.388-0.154-0.779-0.298-1.178-0.43
	c-0.272-0.09-0.543-0.177-0.816-0.258c-0.448-0.13-0.903-0.245-1.361-0.351c-0.202-0.045-0.402-0.102-0.605-0.143
	c-0.647-0.13-1.306-0.228-1.97-0.301c-0.203-0.023-0.406-0.036-0.61-0.053c-0.545-0.047-1.092-0.074-1.646-0.084
	c-3.114-0.047-6.26,0.515-9.253,1.755C269.414,5.373,263.743,13.86,263.743,23.273z"/>
<g>
	<path style="fill:#FF9811;" d="M202.269,391.764v8.223c0,6.102,2.211,7.26,6.291,7.26c4.08,0,6.291-1.157,6.291-7.26v-4.267h-5.585
		C206.298,395.72,203.736,394.162,202.269,391.764z"/>
	<path style="fill:#FF9811;" d="M214.878,370.573c-0.405-3.271-1.561-5.042-6.318-5.042c-4.081,0-6.291,1.143-6.291,7.174v9.503
		c1.468-2.375,4.029-3.918,6.997-3.918h13.264C218.268,377.74,215.224,374.731,214.878,370.573z"/>
</g>
<g>
	<path style="fill:#57565C;" d="M233.072,369.183c0-12.617-10.116-21.431-24.599-21.431c-15.293,0-24.425,9.328-24.425,24.953
		v27.282c0,15.678,9.163,25.038,24.512,25.038c15.348,0,24.512-9.36,24.512-25.038v-13.2c0-4.661-3.312-8.22-7.789-8.481
		C229.994,377.755,233.072,374.229,233.072,369.183z M214.851,399.987c0,6.102-2.211,7.26-6.291,7.26
		c-4.08,0-6.291-1.157-6.291-7.26v-8.223c1.468,2.399,4.029,3.956,6.997,3.956h5.585L214.851,399.987L214.851,399.987z
		 M209.266,378.29c-2.968,0-5.528,1.542-6.997,3.918v-9.503c0-6.031,2.211-7.174,6.291-7.174c4.757,0,5.913,1.77,6.318,5.042
		c0.346,4.158,3.39,7.166,7.652,7.717H209.266z"/>
	<path style="fill:#57565C;" d="M322.621,347.753h-31.154c-5.044,0-8.847,3.613-8.847,8.406v59.933c0,4.793,3.914,8.406,9.107,8.406
		c5.196,0,9.112-3.613,9.112-8.406v-21.341h7.7c4.741,0,8.316-3.69,8.316-8.581c0-4.96-3.652-8.845-8.316-8.845h-7.7v-11.793h21.782
		c4.714,0,8.406-3.963,8.406-9.022C331.026,351.6,327.335,347.753,322.621,347.753z"/>
	<path style="fill:#57565C;" d="M257.014,347.753c-0.351,0-0.692,0.017-1.029,0.048v76.643c0.002,0,0.002,0,0.003,0
		c0.338,0.033,0.68,0.054,1.026,0.054c5.109,0,9.112-3.731,9.112-8.496V356.07C266.126,351.328,262.21,347.753,257.014,347.753z"/>
	<path style="fill:#57565C;" d="M254.275,348.093c-0.52,0.135-1.012,0.313-1.482,0.521c-0.033,0.014-0.07,0.028-0.101,0.042
		c-0.447,0.205-0.869,0.445-1.263,0.712c-0.045,0.031-0.092,0.059-0.133,0.09c-0.379,0.267-0.731,0.563-1.053,0.884
		c-0.043,0.045-0.09,0.088-0.132,0.133c-0.312,0.323-0.594,0.672-0.846,1.043c-0.036,0.053-0.07,0.109-0.102,0.161
		c-0.242,0.379-0.456,0.777-0.63,1.198c-0.023,0.054-0.04,0.109-0.062,0.163c-0.169,0.436-0.309,0.887-0.402,1.361
		c-0.009,0.039-0.012,0.081-0.019,0.121c-0.092,0.498-0.146,1.012-0.146,1.545v59.934c0,0.524,0.056,1.035,0.15,1.531
		c0.008,0.04,0.011,0.082,0.02,0.124c0.098,0.472,0.239,0.928,0.414,1.367c0.022,0.054,0.04,0.11,0.064,0.163
		c0.18,0.427,0.399,0.835,0.647,1.221c0.034,0.054,0.067,0.107,0.102,0.161c0.258,0.382,0.546,0.742,0.864,1.077
		c0.04,0.043,0.082,0.087,0.124,0.129c0.33,0.335,0.687,0.647,1.072,0.926c0.037,0.028,0.078,0.053,0.115,0.081
		c0.403,0.284,0.828,0.54,1.282,0.759c0.022,0.009,0.043,0.019,0.065,0.03c0.96,0.453,2.023,0.757,3.154,0.873
		c0.002,0,0.005,0,0.005,0l0.002-76.643c-0.591,0.053-1.159,0.152-1.704,0.292C254.282,348.093,254.279,348.093,254.275,348.093z"/>
</g>
<g>
	<path style="fill:#FF9811;" d="M255.979,424.443c-1.131-0.115-2.194-0.419-3.154-0.873c-0.022-0.011-0.043-0.019-0.065-0.03
		c-0.453-0.219-0.878-0.475-1.282-0.759c-0.039-0.028-0.078-0.053-0.115-0.081c-0.385-0.281-0.743-0.591-1.072-0.926
		c-0.042-0.043-0.084-0.085-0.124-0.129c-0.318-0.337-0.607-0.695-0.864-1.077c-0.036-0.053-0.07-0.107-0.102-0.161
		c-0.248-0.388-0.467-0.794-0.647-1.221c-0.023-0.054-0.04-0.109-0.064-0.163c-0.174-0.439-0.316-0.894-0.414-1.367
		c-0.009-0.04-0.012-0.082-0.02-0.123c-0.095-0.496-0.15-1.007-0.15-1.531V356.07c0-0.534,0.054-1.047,0.146-1.545
		c0.006-0.039,0.009-0.081,0.019-0.121c0.093-0.473,0.231-0.925,0.402-1.361c0.022-0.054,0.039-0.109,0.062-0.163
		c0.174-0.42,0.388-0.819,0.63-1.199c0.033-0.054,0.068-0.109,0.102-0.161c0.251-0.371,0.534-0.718,0.846-1.043
		c0.042-0.045,0.088-0.09,0.132-0.133c0.323-0.32,0.673-0.616,1.053-0.884c0.042-0.031,0.088-0.059,0.133-0.09
		c0.394-0.267,0.813-0.509,1.261-0.714c0.033-0.016,0.068-0.028,0.101-0.042c0.47-0.209,0.962-0.386,1.482-0.521
		c0.003-0.002,0.006-0.002,0.008-0.002c0.545-0.14,1.112-0.239,1.704-0.292v-84.041H93.076H69.803
		c-12.853,0-23.273,10.42-23.273,23.273v201.697c0,0.647,0.033,1.285,0.085,1.918c0.017,0.2,0.043,0.399,0.065,0.599
		c0.045,0.433,0.101,0.864,0.171,1.291c0.037,0.223,0.078,0.444,0.121,0.664c0.081,0.41,0.171,0.816,0.273,1.218
		c0.051,0.205,0.099,0.411,0.157,0.614c0.133,0.476,0.284,0.943,0.447,1.407c0.039,0.115,0.073,0.233,0.115,0.344
		c0.209,0.571,0.444,1.129,0.697,1.677c0.071,0.155,0.152,0.304,0.227,0.458c0.191,0.393,0.391,0.78,0.604,1.16
		c0.106,0.189,0.217,0.374,0.327,0.56c0.206,0.343,0.419,0.68,0.639,1.01c0.119,0.178,0.237,0.357,0.362,0.531
		c0.25,0.354,0.514,0.697,0.784,1.036c0.106,0.133,0.206,0.27,0.315,0.399c0.382,0.458,0.779,0.903,1.193,1.33
		c0.084,0.087,0.174,0.166,0.261,0.253c0.338,0.338,0.684,0.667,1.044,0.984c0.155,0.137,0.313,0.265,0.472,0.397
		c0.309,0.258,0.621,0.509,0.943,0.749c0.174,0.13,0.349,0.261,0.526,0.386c0.338,0.239,0.683,0.469,1.035,0.69
		c0.161,0.101,0.32,0.208,0.484,0.306c0.514,0.307,1.036,0.6,1.575,0.867c0.003,0.002,0.006,0.005,0.011,0.006
		c-0.005-0.002-0.008-0.003-0.011-0.006c1.772,0.881,3.671,1.545,5.663,1.952c1.514,0.31,3.081,0.473,4.689,0.473h186.182v-87.555
		C255.985,424.445,255.981,424.443,255.979,424.443z M233.072,386.787v13.2c0,15.678-9.163,25.038-24.512,25.038
		s-24.512-9.36-24.512-25.038v-27.282c0-15.624,9.132-24.953,24.425-24.953c14.483,0,24.599,8.813,24.599,21.431
		c0,5.046-3.077,8.571-7.789,9.123C229.76,378.567,233.072,382.126,233.072,386.787z"/>
	<path style="fill:#FF9811;" d="M56.358,507.712c-0.177-0.126-0.352-0.254-0.524-0.383
		C56.007,507.457,56.181,507.586,56.358,507.712z"/>
	<path style="fill:#FF9811;" d="M48.886,498.91c-0.073-0.15-0.154-0.296-0.223-0.45C48.732,498.614,48.813,498.759,48.886,498.91z"
		/>
	<path style="fill:#FF9811;" d="M47.403,495.028c-0.056-0.202-0.104-0.406-0.155-0.61C47.297,494.623,47.347,494.828,47.403,495.028
		z"/>
	<path style="fill:#FF9811;" d="M50.821,502.176c-0.123-0.172-0.239-0.349-0.358-0.524
		C50.582,501.828,50.698,502.004,50.821,502.176z"/>
	<path style="fill:#FF9811;" d="M47.964,496.78c-0.04-0.11-0.073-0.225-0.112-0.337C47.891,496.555,47.924,496.669,47.964,496.78z"
		/>
	<path style="fill:#FF9811;" d="M49.817,500.634c-0.109-0.183-0.219-0.366-0.323-0.552C49.6,500.267,49.708,500.451,49.817,500.634z
		"/>
	<path style="fill:#FF9811;" d="M57.877,508.708c-0.163-0.098-0.323-0.203-0.484-0.306C57.554,508.504,57.712,508.61,57.877,508.708
		z"/>
	<path style="fill:#FF9811;" d="M54.889,506.574c-0.157-0.13-0.315-0.259-0.469-0.396C54.574,506.315,54.732,506.444,54.889,506.574
		z"/>
	<path style="fill:#FF9811;" d="M53.368,505.189c-0.084-0.084-0.171-0.161-0.253-0.245
		C53.196,505.027,53.284,505.105,53.368,505.189z"/>
	<path style="fill:#FF9811;" d="M51.919,503.612c-0.106-0.127-0.205-0.261-0.307-0.391
		C51.714,503.352,51.814,503.485,51.919,503.612z"/>
	<path style="fill:#FF9811;" d="M46.973,493.197c-0.043-0.22-0.084-0.441-0.119-0.663C46.891,492.757,46.929,492.977,46.973,493.197
		z"/>
	<path style="fill:#FF9811;" d="M46.681,491.242c-0.022-0.199-0.048-0.397-0.065-0.597
		C46.633,490.845,46.659,491.044,46.681,491.242z"/>
	<path style="fill:#FF9811;" d="M47.851,496.437c0,0.002,0.002,0.005,0.002,0.006c0.039,0.112,0.071,0.227,0.112,0.337l0.002,0.002
		C47.924,496.669,47.89,496.552,47.851,496.437z"/>
	<path style="fill:#FF9811;" d="M47.246,494.417c0,0.002,0,0.002,0.002,0.002c0.05,0.203,0.098,0.408,0.155,0.61l0.002,0.002
		C47.347,494.828,47.297,494.621,47.246,494.417z"/>
	<path style="fill:#FF9811;" d="M54.419,506.179C54.419,506.18,54.42,506.18,54.419,506.179c0.155,0.137,0.313,0.265,0.47,0.396
		c0.002,0.002,0.002,0.002,0.002,0.002C54.732,506.444,54.574,506.315,54.419,506.179z"/>
	<path style="fill:#FF9811;" d="M53.114,504.942C53.114,504.944,53.114,504.944,53.114,504.942c0.082,0.085,0.169,0.163,0.253,0.247
		c0.002,0.002,0.005,0.003,0.008,0.006C53.289,505.11,53.198,505.029,53.114,504.942z"/>
	<path style="fill:#FF9811;" d="M46.852,492.535L46.852,492.535c0.037,0.223,0.078,0.444,0.121,0.663l0,0
		C46.929,492.978,46.891,492.757,46.852,492.535z"/>
	<path style="fill:#FF9811;" d="M55.832,507.327L55.832,507.327c0.174,0.132,0.349,0.261,0.526,0.385l0,0
		C56.181,507.586,56.007,507.457,55.832,507.327z"/>
	<path style="fill:#FF9811;" d="M51.606,503.214c0.003,0.002,0.005,0.005,0.006,0.008c0.104,0.13,0.202,0.262,0.307,0.391
		c0,0,0.002,0,0.002,0.002C51.812,503.484,51.711,503.347,51.606,503.214z"/>
	<path style="fill:#FF9811;" d="M48.662,498.458L48.662,498.458c0.07,0.154,0.15,0.301,0.223,0.45
		c0.002,0.003,0.003,0.005,0.005,0.006C48.815,498.764,48.734,498.615,48.662,498.458z"/>
	<path style="fill:#FF9811;" d="M49.493,500.078c0,0,0,0.002,0.002,0.003c0.104,0.186,0.214,0.369,0.323,0.552
		c0.002,0.002,0.003,0.003,0.003,0.005C49.71,500.452,49.6,500.267,49.493,500.078z"/>
	<path style="fill:#FF9811;" d="M46.616,490.645L46.616,490.645c0.017,0.2,0.043,0.399,0.065,0.597c0,0,0,0,0,0.002
		C46.659,491.044,46.633,490.845,46.616,490.645z"/>
	<path style="fill:#FF9811;" d="M50.461,501.648c0.002,0.002,0.002,0.003,0.003,0.005c0.118,0.175,0.234,0.352,0.358,0.524
		c0,0,0,0.002,0.002,0.002C50.698,502.005,50.58,501.825,50.461,501.648z"/>
	<path style="fill:#FF9811;" d="M255.985,347.802L255.985,347.802c-0.591,0.053-1.159,0.152-1.704,0.292
		C254.826,347.952,255.394,347.854,255.985,347.802z"/>
	<path style="fill:#FF9811;" d="M249.199,420.409c-0.248-0.386-0.467-0.794-0.647-1.221
		C248.732,419.617,248.951,420.022,249.199,420.409z"/>
	<path style="fill:#FF9811;" d="M252.794,348.615c0.47-0.208,0.962-0.386,1.482-0.521
		C253.756,348.228,253.262,348.407,252.794,348.615z"/>
	<path style="fill:#FF9811;" d="M248.069,354.405c0.093-0.473,0.231-0.925,0.402-1.361
		C248.301,353.48,248.161,353.932,248.069,354.405z"/>
	<path style="fill:#FF9811;" d="M247.905,356.07c0-0.534,0.054-1.047,0.146-1.545C247.959,355.022,247.905,355.536,247.905,356.07z"
		/>
	<path style="fill:#FF9811;" d="M248.533,352.881c0.174-0.42,0.388-0.819,0.63-1.199
		C248.921,352.062,248.707,352.461,248.533,352.881z"/>
	<path style="fill:#FF9811;" d="M249.266,351.521c0.251-0.371,0.534-0.718,0.846-1.043
		C249.799,350.802,249.517,351.15,249.266,351.521z"/>
	<path style="fill:#FF9811;" d="M251.43,349.37c0.394-0.267,0.815-0.509,1.261-0.714C252.243,348.861,251.824,349.103,251.43,349.37
		z"/>
	<path style="fill:#FF9811;" d="M255.979,424.443c-1.131-0.115-2.194-0.419-3.154-0.873
		C253.785,424.026,254.848,424.33,255.979,424.443z"/>
	<path style="fill:#FF9811;" d="M252.76,423.542c-0.453-0.219-0.878-0.475-1.282-0.759
		C251.881,423.067,252.307,423.323,252.76,423.542z"/>
	<path style="fill:#FF9811;" d="M250.243,350.345c0.323-0.32,0.673-0.617,1.053-0.884
		C250.916,349.727,250.566,350.023,250.243,350.345z"/>
	<path style="fill:#FF9811;" d="M250.166,421.648c-0.318-0.335-0.607-0.695-0.864-1.077
		C249.56,420.952,249.847,421.311,250.166,421.648z"/>
	<path style="fill:#FF9811;" d="M251.363,422.703c-0.385-0.281-0.743-0.591-1.072-0.926
		C250.62,422.111,250.979,422.422,251.363,422.703z"/>
	<path style="fill:#FF9811;" d="M248.488,419.025c-0.174-0.439-0.316-0.895-0.414-1.367
		C248.172,418.132,248.315,418.586,248.488,419.025z"/>
	<path style="fill:#FF9811;" d="M248.055,417.534c-0.095-0.496-0.15-1.007-0.15-1.531
		C247.905,416.527,247.961,417.038,248.055,417.534z"/>
</g>
<g>
	<path style="fill:#80E3EC;" d="M465.354,490.645c-0.017,0.2-0.043,0.399-0.065,0.597
		C465.311,491.044,465.339,490.845,465.354,490.645z"/>
	<path style="fill:#80E3EC;" d="M457.55,506.18c-0.154,0.135-0.31,0.264-0.467,0.394C457.24,506.444,457.398,506.315,457.55,506.18z
		"/>
	<path style="fill:#80E3EC;" d="M456.137,507.327c-0.172,0.13-0.348,0.259-0.524,0.383
		C455.791,507.586,455.965,507.457,456.137,507.327z"/>
	<path style="fill:#80E3EC;" d="M465.117,492.535c-0.036,0.222-0.076,0.442-0.119,0.663
		C465.041,492.977,465.081,492.757,465.117,492.535z"/>
	<path style="fill:#80E3EC;" d="M464.723,494.42c-0.05,0.203-0.098,0.406-0.155,0.608
		C464.625,494.828,464.672,494.623,464.723,494.42z"/>
	<path style="fill:#80E3EC;" d="M464.121,496.44c-0.04,0.113-0.073,0.23-0.115,0.341
		C464.048,496.669,464.079,496.553,464.121,496.44z"/>
	<path style="fill:#80E3EC;" d="M461.508,501.653c-0.118,0.175-0.234,0.352-0.358,0.524
		C461.274,502.004,461.39,501.828,461.508,501.653z"/>
	<path style="fill:#80E3EC;" d="M463.308,498.46c-0.07,0.152-0.15,0.299-0.223,0.45C463.159,498.759,463.238,498.614,463.308,498.46
		z"/>
	<path style="fill:#80E3EC;" d="M460.36,503.222c-0.102,0.13-0.202,0.262-0.307,0.391
		C460.158,503.485,460.256,503.352,460.36,503.222z"/>
	<path style="fill:#80E3EC;" d="M458.857,504.944c-0.082,0.084-0.169,0.161-0.251,0.244
		C458.688,505.105,458.774,505.027,458.857,504.944z"/>
	<path style="fill:#80E3EC;" d="M462.476,500.081c-0.104,0.186-0.214,0.369-0.323,0.552
		C462.262,500.451,462.372,500.267,462.476,500.081z"/>
	<path style="fill:#80E3EC;" d="M454.579,508.4c-0.161,0.102-0.321,0.209-0.486,0.307C454.258,508.61,454.418,508.504,454.579,508.4
		z"/>
	<path style="fill:#80E3EC;" d="M464.569,495.03v-0.002c0.056-0.2,0.104-0.405,0.155-0.608c0,0,0-0.002,0.002-0.003
		C464.673,494.621,464.625,494.828,464.569,495.03z"/>
	<path style="fill:#80E3EC;" d="M464.998,493.199L464.998,493.199c0.043-0.222,0.084-0.442,0.119-0.664c0,0,0,0,0.002,0
		C465.081,492.757,465.041,492.978,464.998,493.199z"/>
	<path style="fill:#80E3EC;" d="M460.051,503.614h0.002c0.105-0.129,0.205-0.261,0.307-0.391c0.002-0.002,0.003-0.005,0.006-0.008
		C460.259,503.347,460.16,503.484,460.051,503.614z"/>
	<path style="fill:#80E3EC;" d="M465.291,491.244C465.291,491.242,465.291,491.242,465.291,491.244
		c0.022-0.2,0.048-0.397,0.065-0.599l0,0C465.339,490.845,465.311,491.044,465.291,491.244z"/>
	<path style="fill:#80E3EC;" d="M461.15,502.179C461.151,502.177,461.151,502.177,461.15,502.179
		c0.124-0.175,0.241-0.351,0.36-0.526c0.002-0.002,0.002-0.003,0.003-0.005C461.392,501.825,461.274,502.005,461.15,502.179z"/>
	<path style="fill:#80E3EC;" d="M457.082,506.576c0.002,0,0.002-0.002,0.003-0.002c0.157-0.13,0.313-0.259,0.467-0.394l0,0
		C457.398,506.315,457.238,506.444,457.082,506.576z"/>
	<path style="fill:#80E3EC;" d="M455.612,507.712L455.612,507.712c0.177-0.126,0.352-0.254,0.524-0.385l0.002-0.002
		C455.965,507.457,455.791,507.586,455.612,507.712z"/>
	<path style="fill:#80E3EC;" d="M458.598,505.194c0.003-0.003,0.005-0.005,0.008-0.006c0.082-0.082,0.169-0.16,0.251-0.244
		c0,0,0,0,0-0.002C458.773,505.029,458.684,505.108,458.598,505.194z"/>
	<path style="fill:#80E3EC;" d="M463.081,498.916c0.002-0.003,0.003-0.005,0.005-0.006c0.073-0.15,0.154-0.296,0.223-0.45v-0.002
		C463.237,498.615,463.158,498.764,463.081,498.916z"/>
	<path style="fill:#80E3EC;" d="M464.005,496.783L464.005,496.783c0.042-0.113,0.074-0.23,0.115-0.343c0-0.002,0-0.005,0.002-0.006
		C464.081,496.55,464.048,496.668,464.005,496.783z"/>
	<path style="fill:#80E3EC;" d="M462.151,500.638c0-0.002,0.002-0.003,0.003-0.005c0.109-0.183,0.219-0.366,0.323-0.552
		c0.002-0.002,0.002-0.002,0.002-0.002C462.372,500.267,462.261,500.452,462.151,500.638z"/>
	<path style="fill:#80E3EC;" d="M257.014,347.753c-0.351,0-0.692,0.017-1.029,0.048l0,0
		C256.322,347.771,256.665,347.753,257.014,347.753z"/>
	<path style="fill:#80E3EC;" d="M257.014,424.499c-0.348,0-0.687-0.022-1.026-0.054
		C256.325,424.479,256.666,424.499,257.014,424.499z"/>
</g>
<g>
</g>
<g>
</g>
<g>
</g>
<g>
</g>
<g>
</g>
<g>
</g>
<g>
</g>
<g>
</g>
<g>
</g>
<g>
</g>
<g>
</g>
<g>
</g>
<g>
</g>
<g>
</g>
<g>
</g>
</svg>
